octicons.ufo
<glyph name="heart" format="2">
  <advance width="1200"/>
  <unicode hex="2665"/>
  <note>
heart
</note>
  <outline>
    <contour>
      <point x="625" y="209" type="line"/>
      <point x="625" y="209" type="line"/>
      <point x="627" y="210" type="line"/>
      <point x="772" y="289"/>
      <point x="898" y="397" type="qcurve" smooth="yes"/>
      <point x="942" y="434"/>
      <point x="1017" y="511"/>
      <point x="1093" y="611"/>
      <point x="1147" y="711"/>
      <point x="1180" y="832"/>
      <point x="1180" y="891" type="qcurve" smooth="yes"/>
      <point x="1180" y="961"/>
      <point x="1128" y="1085"/>
      <point x="1042" y="1169"/>
      <point x="931" y="1218"/>
      <point x="872" y="1218" type="qcurve" smooth="yes"/>
      <point x="790" y="1218"/>
      <point x="647" y="1139"/>
      <point x="600" y="1071" type="qcurve"/>
      <point x="553" y="1139"/>
      <point x="410" y="1218"/>
      <point x="328" y="1218" type="qcurve" smooth="yes"/>
      <point x="269" y="1218"/>
      <point x="158" y="1169"/>
      <point x="72" y="1085"/>
      <point x="20" y="961"/>
      <point x="20" y="891" type="qcurve" smooth="yes"/>
      <point x="20" y="832"/>
      <point x="53" y="711"/>
      <point x="107" y="611"/>
      <point x="183" y="511"/>
      <point x="258" y="434"/>
      <point x="302" y="397" type="qcurve" smooth="yes"/>
      <point x="418" y="298"/>
      <point x="551" y="222" type="qcurve" smooth="yes"/>
      <point x="561" y="216"/>
      <point x="573" y="210" type="qcurve"/>
      <point x="575" y="209" type="line"/>
      <point x="575" y="209" type="line"/>
      <point x="586" y="203"/>
      <point x="614" y="203"/>
      <point x="625" y="209" type="qcurve"/>
      <point x="600" y="257" type="line"/>
    </contour>
    <contour>
      <point x="403" y="1109"/>
      <point x="525" y="1010"/>
      <point x="548" y="931" type="qcurve" smooth="yes"/>
      <point x="552" y="913"/>
      <point x="581" y="891"/>
      <point x="619" y="891"/>
      <point x="648" y="913"/>
      <point x="652" y="931" type="qcurve" smooth="yes"/>
      <point x="675" y="1010"/>
      <point x="797" y="1109"/>
      <point x="872" y="1109" type="qcurve" smooth="yes"/>
      <point x="908" y="1109"/>
      <point x="979" y="1078"/>
      <point x="1036" y="1023"/>
      <point x="1071" y="939"/>
      <point x="1071" y="891" type="qcurve" smooth="yes"/>
      <point x="1071" y="835"/>
      <point x="1032" y="720"/>
      <point x="963" y="615"/>
      <point x="879" y="524"/>
      <point x="827" y="479" type="qcurve" smooth="yes"/>
      <point x="721" y="388"/>
      <point x="600" y="319" type="qcurve"/>
      <point x="479" y="388"/>
      <point x="373" y="479" type="qcurve" smooth="yes"/>
      <point x="321" y="524"/>
      <point x="238" y="615"/>
      <point x="168" y="720"/>
      <point x="129" y="835"/>
      <point x="129" y="891" type="qcurve" smooth="yes"/>
      <point x="129" y="939"/>
      <point x="164" y="1023"/>
      <point x="221" y="1078"/>
      <point x="292" y="1109"/>
      <point x="328" y="1109" type="qcurve" smooth="yes"/>
    </contour>
  </outline>
</glyph>
<glyph name="zap" format="2">
  <advance width="1200"/>
  <unicode hex="26A1"/>
  <note>
zap
</note>
  <outline>
    <contour>
      <point x="733" y="1382" type="line"/>
      <point x="89" y="755" type="line" smooth="yes"/>
      <point x="65" y="731"/>
      <point x="41" y="671"/>
      <point x="42" y="613"/>
      <point x="65" y="557"/>
      <point x="105" y="514"/>
      <point x="163" y="488"/>
      <point x="197" y="488" type="qcurve" smooth="yes"/>
      <point x="390" y="488" type="line"/>
      <point x="356" y="404" type="line" smooth="yes"/>
      <point x="321" y="320"/>
      <point x="253" y="153"/>
      <point x="253" y="153" type="qcurve"/>
      <point x="244" y="132"/>
      <point x="244" y="111" type="qcurve" smooth="yes"/>
      <point x="244" y="65"/>
      <point x="309" y="0"/>
      <point x="355" y="0" type="qcurve" smooth="yes"/>
      <point x="362" y="0" type="line" smooth="yes"/>
      <point x="369" y="0"/>
      <point x="382" y="0"/>
      <point x="382" y="0" type="qcurve"/>
      <point x="427" y="0"/>
      <point x="460" y="31" type="qcurve" smooth="yes"/>
      <point x="1111" y="665" type="line" smooth="yes"/>
      <point x="1135" y="689"/>
      <point x="1159" y="749"/>
      <point x="1158" y="807"/>
      <point x="1135" y="863"/>
      <point x="1095" y="906"/>
      <point x="1037" y="932"/>
      <point x="1003" y="932" type="qcurve" smooth="yes"/>
      <point x="814" y="932" type="line"/>
      <point x="848" y="1006" type="line" smooth="yes"/>
      <point x="882" y="1081"/>
      <point x="949" y="1230"/>
      <point x="949" y="1230" type="qcurve"/>
      <point x="962" y="1256"/>
      <point x="962" y="1285" type="qcurve" smooth="yes"/>
      <point x="962" y="1341"/>
      <point x="883" y="1420"/>
      <point x="827" y="1420" type="qcurve" smooth="yes"/>
      <point x="773" y="1420"/>
      <point x="734" y="1382" type="qcurve"/>
    </contour>
    <contour>
      <point x="827" y="1287"/>
      <point x="827" y="1287" type="qcurve" smooth="yes"/>
      <point x="828" y="1287" type="line"/>
      <point x="828" y="1286" type="line"/>
      <point x="829" y="1286"/>
      <point x="829" y="1285" type="qcurve" smooth="yes"/>
      <point x="829" y="1285" type="line"/>
      <point x="784" y="1187" type="line" smooth="yes"/>
      <point x="739" y="1089"/>
      <point x="651" y="893"/>
      <point x="651" y="893" type="qcurve"/>
      <point x="644" y="880"/>
      <point x="644" y="865" type="qcurve" smooth="yes"/>
      <point x="644" y="838"/>
      <point x="683" y="799"/>
      <point x="711" y="799" type="qcurve" smooth="yes"/>
      <point x="784" y="799" type="line" smooth="yes"/>
      <point x="857" y="799"/>
      <point x="1003" y="799"/>
      <point x="1003" y="799" type="qcurve"/>
      <point x="1012" y="799"/>
      <point x="1025" y="786"/>
      <point x="1025" y="777" type="qcurve" smooth="yes"/>
      <point x="1025" y="768"/>
      <point x="1018" y="761" type="qcurve" smooth="yes"/>
      <point x="399" y="158" type="line"/>
      <point x="436" y="251" type="line" smooth="yes"/>
      <point x="475" y="344"/>
      <point x="551" y="530"/>
      <point x="551" y="530" type="qcurve"/>
      <point x="556" y="542"/>
      <point x="556" y="555" type="qcurve" smooth="yes"/>
      <point x="556" y="582"/>
      <point x="517" y="621"/>
      <point x="489" y="621" type="qcurve" smooth="yes"/>
      <point x="416" y="621" type="line" smooth="yes"/>
      <point x="343" y="621"/>
      <point x="197" y="621"/>
      <point x="197" y="621" type="qcurve"/>
      <point x="188" y="621"/>
      <point x="175" y="634"/>
      <point x="175" y="643" type="qcurve" smooth="yes"/>
      <point x="175" y="652"/>
      <point x="182" y="659" type="qcurve" smooth="yes"/>
      <point x="827" y="1286" type="line"/>
    </contour>
  </outline>
</glyph>
<glyph name="light-bulb" format="2">
  <advance width="1200"/>
  <unicode hex="F400"/>
  <note>
light-bulb
</note>
  <outline>
    <contour>
      <point x="955" y="1093"/>
      <point x="955" y="954" type="qcurve" smooth="yes"/>
      <point x="955" y="894"/>
      <point x="911" y="802"/>
      <point x="868" y="750" type="qcurve" smooth="yes"/>
      <point x="861" y="741"/>
      <point x="849" y="727" type="qcurve" smooth="yes"/>
      <point x="807" y="677"/>
      <point x="789" y="652" type="qcurve" smooth="yes"/>
      <point x="743" y="586"/>
      <point x="734" y="520" type="qcurve"/>
      <point x="734" y="517"/>
      <point x="734" y="514" type="qcurve" smooth="yes"/>
      <point x="734" y="486"/>
      <point x="773" y="447"/>
      <point x="800" y="447" type="qcurve" smooth="yes"/>
      <point x="825" y="447"/>
      <point x="861" y="478"/>
      <point x="866" y="501" type="qcurve" smooth="yes"/>
      <point x="870" y="536"/>
      <point x="898" y="576" type="qcurve" smooth="yes"/>
      <point x="913" y="596"/>
      <point x="947" y="637" type="qcurve" smooth="yes"/>
      <point x="961" y="655"/>
      <point x="970" y="665" type="qcurve" smooth="yes"/>
      <point x="995" y="695"/>
      <point x="1031" y="746"/>
      <point x="1068" y="820"/>
      <point x="1088" y="906"/>
      <point x="1088" y="954" type="qcurve" smooth="yes"/>
      <point x="1088" y="1050"/>
      <point x="1013" y="1223"/>
      <point x="884" y="1347"/>
      <point x="703" y="1420"/>
      <point x="497" y="1420"/>
      <point x="316" y="1347"/>
      <point x="187" y="1223"/>
      <point x="112" y="1050"/>
      <point x="112" y="954" type="qcurve" smooth="yes"/>
      <point x="112" y="906"/>
      <point x="132" y="820"/>
      <point x="169" y="746"/>
      <point x="205" y="695"/>
      <point x="230" y="665" type="qcurve" smooth="yes"/>
      <point x="234" y="660"/>
      <point x="253" y="637" type="qcurve" smooth="yes"/>
      <point x="279" y="607"/>
      <point x="302" y="576" type="qcurve" smooth="yes"/>
      <point x="330" y="536"/>
      <point x="334" y="501" type="qcurve" smooth="yes"/>
      <point x="339" y="478"/>
      <point x="375" y="446"/>
      <point x="400" y="446" type="qcurve" smooth="yes"/>
      <point x="427" y="446"/>
      <point x="466" y="485"/>
      <point x="466" y="512" type="qcurve" smooth="yes"/>
      <point x="466" y="516"/>
      <point x="466" y="519" type="qcurve"/>
      <point x="457" y="586"/>
      <point x="411" y="652" type="qcurve" smooth="yes"/>
      <point x="393" y="677"/>
      <point x="351" y="727" type="qcurve" smooth="yes"/>
      <point x="332" y="750" type="line" smooth="yes"/>
      <point x="289" y="802"/>
      <point x="245" y="894"/>
      <point x="245" y="954" type="qcurve" smooth="yes"/>
      <point x="245" y="1093"/>
      <point x="445" y="1287"/>
      <point x="755" y="1287"/>
    </contour>
    <contour>
      <point x="373" y="355"/>
      <point x="334" y="316"/>
      <point x="334" y="261"/>
      <point x="373" y="222"/>
      <point x="400" y="222" type="qcurve" smooth="yes"/>
      <point x="800" y="222" type="line" smooth="yes"/>
      <point x="827" y="222"/>
      <point x="866" y="261"/>
      <point x="866" y="316"/>
      <point x="827" y="355"/>
      <point x="800" y="355" type="qcurve" smooth="yes"/>
      <point x="400" y="355" type="line" smooth="yes"/>
    </contour>
    <contour>
      <point x="461" y="0"/>
      <point x="489" y="0" type="qcurve" smooth="yes"/>
      <point x="711" y="0" type="line" smooth="yes"/>
      <point x="739" y="0"/>
      <point x="778" y="39"/>
      <point x="778" y="94"/>
      <point x="739" y="133"/>
      <point x="711" y="133" type="qcurve" smooth="yes"/>
      <point x="489" y="133" type="line" smooth="yes"/>
      <point x="461" y="133"/>
      <point x="423" y="94"/>
      <point x="423" y="39"/>
    </contour>
  </outline>
</glyph>
<glyph name="repo" format="2">
  <advance width="1200"/>
  <unicode hex="F401"/>
  <note>
repo
</note>
  <outline>
    <contour>
      <point x="59" y="992" type="line" smooth="yes"/>
      <point x="59" y="789"/>
      <point x="59" y="586" type="qcurve" smooth="yes"/>
      <point x="59" y="383" type="line" smooth="yes"/>
      <point x="59" y="291"/>
      <point x="123" y="225" type="qcurve" smooth="yes"/>
      <point x="144" y="205"/>
      <point x="172" y="205" type="qcurve" smooth="yes"/>
      <point x="200" y="205"/>
      <point x="239" y="244"/>
      <point x="239" y="273" type="qcurve" smooth="yes"/>
      <point x="239" y="300"/>
      <point x="220" y="320" type="qcurve" smooth="yes"/>
      <point x="194" y="347"/>
      <point x="194" y="383" type="qcurve" smooth="yes"/>
      <point x="194" y="421"/>
      <point x="247" y="473"/>
      <point x="284" y="473" type="qcurve" smooth="yes"/>
      <point x="1006" y="473" type="line"/>
      <point x="1006" y="293" type="line"/>
      <point x="848" y="293" type="line" smooth="yes"/>
      <point x="820" y="293"/>
      <point x="780" y="254"/>
      <point x="780" y="197"/>
      <point x="820" y="158"/>
      <point x="848" y="158" type="qcurve" smooth="yes"/>
      <point x="1073" y="158" type="line" smooth="yes"/>
      <point x="1102" y="158"/>
      <point x="1141" y="197"/>
      <point x="1141" y="225" type="qcurve" smooth="yes"/>
      <point x="1141" y="1352" type="line" smooth="yes"/>
      <point x="1141" y="1381"/>
      <point x="1102" y="1420"/>
      <point x="1073" y="1420" type="qcurve" smooth="yes"/>
      <point x="284" y="1420" type="line" smooth="yes"/>
      <point x="191" y="1420"/>
      <point x="59" y="1288"/>
      <point x="59" y="1195" type="qcurve" smooth="yes"/>
    </contour>
    <contour>
      <point x="1006" y="609" type="line"/>
      <point x="825" y="609" type="line" smooth="yes"/>
      <point x="645" y="609"/>
      <point x="465" y="609" type="qcurve" smooth="yes"/>
      <point x="284" y="609" type="line" smooth="yes"/>
      <point x="284" y="609"/>
      <point x="284" y="609" type="qcurve"/>
      <point x="237" y="609"/>
      <point x="194" y="590" type="qcurve"/>
      <point x="194" y="1195" type="line" smooth="yes"/>
      <point x="194" y="1232"/>
      <point x="247" y="1285"/>
      <point x="284" y="1285" type="qcurve" smooth="yes"/>
      <point x="1006" y="1285" type="line"/>
    </contour>
    <contour>
      <point x="330" y="23" type="line" smooth="yes"/>
      <point x="330" y="13"/>
      <point x="343" y="0"/>
      <point x="352" y="0" type="qcurve" smooth="yes"/>
      <point x="360" y="0"/>
      <point x="365" y="4" type="qcurve" smooth="yes"/>
      <point x="399" y="29" type="line" smooth="yes"/>
      <point x="431" y="54"/>
      <point x="496" y="103"/>
      <point x="496" y="103" type="qcurve"/>
      <point x="502" y="107"/>
      <point x="518" y="107"/>
      <point x="523" y="103" type="qcurve" smooth="yes"/>
      <point x="537" y="92" type="line" smooth="yes"/>
      <point x="550" y="82"/>
      <point x="589" y="54"/>
      <point x="627" y="25"/>
      <point x="654" y="4"/>
      <point x="654" y="4" type="qcurve"/>
      <point x="660" y="0"/>
      <point x="668" y="0" type="qcurve" smooth="yes"/>
      <point x="677" y="0"/>
      <point x="690" y="13"/>
      <point x="690" y="23" type="qcurve" smooth="yes"/>
      <point x="690" y="316" type="line" smooth="yes"/>
      <point x="690" y="325"/>
      <point x="677" y="338"/>
      <point x="668" y="338" type="qcurve" smooth="yes"/>
      <point x="352" y="338" type="line" smooth="yes"/>
      <point x="343" y="338"/>
      <point x="330" y="325"/>
      <point x="330" y="316" type="qcurve" smooth="yes"/>
    </contour>
  </outline>
</glyph>
<glyph name="repo-forked" format="2">
  <advance width="1200"/>
  <unicode hex="F402"/>
  <note>
repo-forked
</note>
  <outline>
    <contour>
      <point x="374" y="986"/>
      <point x="455" y="1099"/>
      <point x="455" y="1169" type="qcurve" smooth="yes"/>
      <point x="455" y="1259"/>
      <point x="327" y="1387"/>
      <point x="148" y="1387"/>
      <point x="20" y="1259"/>
      <point x="20" y="1169" type="qcurve" smooth="yes"/>
      <point x="20" y="1099"/>
      <point x="101" y="986"/>
      <point x="165" y="964" type="qcurve"/>
      <point x="165" y="879" type="line" smooth="yes"/>
      <point x="165" y="789"/>
      <point x="293" y="662"/>
      <point x="382" y="662" type="qcurve" smooth="yes"/>
      <point x="527" y="662" type="line"/>
      <point x="527" y="456" type="line"/>
      <point x="463" y="434"/>
      <point x="382" y="321"/>
      <point x="382" y="251" type="qcurve" smooth="yes"/>
      <point x="382" y="161"/>
      <point x="510" y="33"/>
      <point x="690" y="33"/>
      <point x="817" y="161"/>
      <point x="817" y="251" type="qcurve" smooth="yes"/>
      <point x="817" y="321"/>
      <point x="737" y="434"/>
      <point x="672" y="456" type="qcurve"/>
      <point x="672" y="662" type="line"/>
      <point x="817" y="662" type="line" smooth="yes"/>
      <point x="907" y="662"/>
      <point x="1035" y="789"/>
      <point x="1035" y="879" type="qcurve" smooth="yes"/>
      <point x="1035" y="964" type="line"/>
      <point x="1099" y="986"/>
      <point x="1180" y="1099"/>
      <point x="1180" y="1169" type="qcurve" smooth="yes"/>
      <point x="1180" y="1259"/>
      <point x="1052" y="1387"/>
      <point x="873" y="1387"/>
      <point x="745" y="1259"/>
      <point x="745" y="1169" type="qcurve" smooth="yes"/>
      <point x="745" y="1099"/>
      <point x="826" y="986"/>
      <point x="890" y="964" type="qcurve"/>
      <point x="890" y="879" type="line" smooth="yes"/>
      <point x="890" y="849"/>
      <point x="848" y="807"/>
      <point x="817" y="807" type="qcurve" smooth="yes"/>
      <point x="382" y="807" type="line" smooth="yes"/>
      <point x="352" y="807"/>
      <point x="310" y="849"/>
      <point x="310" y="879" type="qcurve" smooth="yes"/>
      <point x="310" y="964" type="line"/>
    </contour>
    <contour>
      <point x="268" y="1097"/>
      <point x="207" y="1097"/>
      <point x="165" y="1139"/>
      <point x="165" y="1199"/>
      <point x="207" y="1242"/>
      <point x="268" y="1242"/>
      <point x="310" y="1199"/>
      <point x="310" y="1139"/>
    </contour>
    <contour>
      <point x="890" y="1139"/>
      <point x="932" y="1097"/>
      <point x="993" y="1097"/>
      <point x="1035" y="1139"/>
      <point x="1035" y="1199"/>
      <point x="993" y="1242"/>
      <point x="932" y="1242"/>
      <point x="890" y="1199"/>
    </contour>
    <contour>
      <point x="630" y="178"/>
      <point x="570" y="178"/>
      <point x="527" y="221"/>
      <point x="527" y="281"/>
      <point x="570" y="323"/>
      <point x="630" y="323"/>
      <point x="672" y="281"/>
      <point x="672" y="221"/>
    </contour>
  </outline>
</glyph>
<glyph name="repo-push" format="2">
  <advance width="1200"/>
  <unicode hex="F403"/>
  <note>
repo-push
</note>
  <outline>
    <contour>
      <point x="20" y="430" type="line" smooth="yes"/>
      <point x="20" y="347"/>
      <point x="138" y="230"/>
      <point x="220" y="230" type="qcurve" smooth="yes"/>
      <point x="680" y="230" type="line" smooth="yes"/>
      <point x="705" y="230"/>
      <point x="740" y="265"/>
      <point x="740" y="315"/>
      <point x="705" y="350"/>
      <point x="680" y="350" type="qcurve" smooth="yes"/>
      <point x="220" y="350" type="line" smooth="yes"/>
      <point x="187" y="350"/>
      <point x="140" y="397"/>
      <point x="140" y="463"/>
      <point x="187" y="510"/>
      <point x="220" y="510" type="qcurve" smooth="yes"/>
      <point x="480" y="510" type="line" smooth="yes"/>
      <point x="505" y="510"/>
      <point x="540" y="545"/>
      <point x="540" y="595"/>
      <point x="505" y="630"/>
      <point x="480" y="630" type="qcurve" smooth="yes"/>
      <point x="415" y="630" type="line" smooth="yes"/>
      <point x="350" y="630"/>
      <point x="285" y="630" type="qcurve" smooth="yes"/>
      <point x="220" y="630" type="line" smooth="yes"/>
      <point x="219" y="630"/>
      <point x="219" y="630" type="qcurve"/>
      <point x="178" y="630"/>
      <point x="140" y="613" type="qcurve"/>
      <point x="140" y="1150" type="line" smooth="yes"/>
      <point x="140" y="1183"/>
      <point x="187" y="1230"/>
      <point x="220" y="1230" type="qcurve" smooth="yes"/>
      <point x="860" y="1230" type="line"/>
      <point x="860" y="1010" type="line" smooth="yes"/>
      <point x="860" y="985"/>
      <point x="895" y="950"/>
      <point x="945" y="950"/>
      <point x="981" y="985"/>
      <point x="981" y="1010" type="qcurve" smooth="yes"/>
      <point x="981" y="1290" type="line" smooth="yes"/>
      <point x="981" y="1315"/>
      <point x="945" y="1350"/>
      <point x="920" y="1350" type="qcurve" smooth="yes"/>
      <point x="220" y="1350" type="line" smooth="yes"/>
      <point x="138" y="1350"/>
      <point x="20" y="1233"/>
      <point x="20" y="1150" type="qcurve" smooth="yes"/>
    </contour>
    <contour>
      <point x="1096" y="511"/>
      <point x="1120" y="511" type="qcurve" smooth="yes"/>
      <point x="1145" y="511"/>
      <point x="1180" y="546"/>
      <point x="1180" y="571" type="qcurve" smooth="yes"/>
      <point x="1180" y="594"/>
      <point x="1164" y="612" type="qcurve" smooth="yes"/>
      <point x="963" y="812" type="line" smooth="yes"/>
      <point x="945" y="829"/>
      <point x="896" y="829"/>
      <point x="879" y="812" type="qcurve" smooth="yes"/>
      <point x="678" y="612" type="line" smooth="yes"/>
      <point x="661" y="594"/>
      <point x="661" y="570" type="qcurve" smooth="yes"/>
      <point x="661" y="545"/>
      <point x="696" y="510"/>
      <point x="721" y="510" type="qcurve" smooth="yes"/>
      <point x="745" y="510"/>
      <point x="763" y="527" type="qcurve" smooth="yes"/>
      <point x="861" y="625" type="line"/>
      <point x="861" y="130" type="line" smooth="yes"/>
      <point x="861" y="105"/>
      <point x="896" y="70"/>
      <point x="945" y="70"/>
      <point x="981" y="105"/>
      <point x="981" y="130" type="qcurve" smooth="yes"/>
      <point x="981" y="625" type="line"/>
      <point x="1079" y="527" type="line" smooth="yes"/>
    </contour>
  </outline>
</glyph>
<glyph name="repo-pull" format="2">
  <advance width="1200"/>
  <unicode hex="F404"/>
  <note>
repo-pull
</note>
  <outline>
    <contour>
      <point x="818" y="565" type="line"/>
      <point x="165" y="565" type="line"/>
      <point x="165" y="1218" type="line"/>
      <point x="818" y="1218" type="line"/>
      <point x="818" y="1073" type="line"/>
      <point x="890" y="1073" type="line"/>
      <point x="890" y="1218" type="line" smooth="yes"/>
      <point x="890" y="1248"/>
      <point x="848" y="1290"/>
      <point x="818" y="1290" type="qcurve" smooth="yes"/>
      <point x="93" y="1290" type="line" smooth="yes"/>
      <point x="62" y="1290"/>
      <point x="20" y="1248"/>
      <point x="20" y="1218" type="qcurve" smooth="yes"/>
      <point x="20" y="348" type="line" smooth="yes"/>
      <point x="20" y="317"/>
      <point x="62" y="275"/>
      <point x="93" y="275" type="qcurve" smooth="yes"/>
      <point x="238" y="275" type="line"/>
      <point x="238" y="130" type="line"/>
      <point x="346" y="239" type="line"/>
      <point x="455" y="130" type="line"/>
      <point x="455" y="275" type="line"/>
      <point x="818" y="275" type="line" smooth="yes"/>
      <point x="848" y="275"/>
      <point x="890" y="317"/>
      <point x="890" y="348" type="qcurve" smooth="yes"/>
      <point x="890" y="783" type="line"/>
      <point x="818" y="783" type="line"/>
    </contour>
    <contour>
      <point x="1180" y="928" type="line"/>
      <point x="963" y="1145" type="line"/>
      <point x="963" y="1000" type="line"/>
      <point x="528" y="1000" type="line"/>
      <point x="528" y="855" type="line"/>
      <point x="963" y="855" type="line"/>
      <point x="963" y="710" type="line"/>
    </contour>
    <contour>
      <point x="818" y="348" type="line"/>
      <point x="455" y="348" type="line"/>
      <point x="455" y="420" type="line"/>
      <point x="238" y="420" type="line"/>
      <point x="238" y="348" type="line"/>
      <point x="93" y="348" type="line"/>
      <point x="93" y="493" type="line"/>
      <point x="818" y="493" type="line"/>
    </contour>
    <contour>
      <point x="238" y="1145" type="line"/>
      <point x="238" y="1073" type="line"/>
      <point x="310" y="1073" type="line"/>
      <point x="310" y="1145" type="line"/>
    </contour>
    <contour>
      <point x="238" y="1000" type="line"/>
      <point x="238" y="928" type="line"/>
      <point x="310" y="928" type="line"/>
      <point x="310" y="1000" type="line"/>
    </contour>
    <contour>
      <point x="238" y="855" type="line"/>
      <point x="238" y="783" type="line"/>
      <point x="310" y="783" type="line"/>
      <point x="310" y="855" type="line"/>
    </contour>
    <contour>
      <point x="310" y="638" type="line"/>
      <point x="310" y="710" type="line"/>
      <point x="238" y="710" type="line"/>
      <point x="238" y="638" type="line"/>
    </contour>
  </outline>
</glyph>
<glyph name="book" format="2">
  <advance width="1200"/>
  <unicode hex="F405"/>
  <note>
book
</note>
  <outline>
    <contour>
      <point x="20" y="384" type="line" smooth="yes"/>
      <point x="20" y="361"/>
      <point x="52" y="329"/>
      <point x="74" y="329" type="qcurve" smooth="yes"/>
      <point x="156" y="329" type="line" smooth="yes"/>
      <point x="238" y="329"/>
      <point x="401" y="329"/>
      <point x="401" y="329" type="qcurve"/>
      <point x="469" y="329"/>
      <point x="517" y="282" type="qcurve" smooth="yes"/>
      <point x="528" y="270" type="line" smooth="yes"/>
      <point x="539" y="259"/>
      <point x="561" y="236"/>
      <point x="561" y="236" type="qcurve"/>
      <point x="577" y="221"/>
      <point x="623" y="221"/>
      <point x="639" y="236" type="qcurve" smooth="yes"/>
      <point x="650" y="248" type="line" smooth="yes"/>
      <point x="661" y="259"/>
      <point x="684" y="282"/>
      <point x="684" y="282" type="qcurve"/>
      <point x="731" y="329"/>
      <point x="799" y="329" type="qcurve" smooth="yes"/>
      <point x="1126" y="329" type="line" smooth="yes"/>
      <point x="1148" y="329"/>
      <point x="1180" y="361"/>
      <point x="1180" y="384" type="qcurve" smooth="yes"/>
      <point x="1180" y="1145" type="line" smooth="yes"/>
      <point x="1180" y="1168"/>
      <point x="1148" y="1199"/>
      <point x="1126" y="1199" type="qcurve" smooth="yes"/>
      <point x="818" y="1199" type="line" smooth="yes"/>
      <point x="818" y="1199"/>
      <point x="818" y="1199" type="qcurve"/>
      <point x="752" y="1199"/>
      <point x="638" y="1141"/>
      <point x="600" y="1091" type="qcurve"/>
      <point x="563" y="1141"/>
      <point x="448" y="1199"/>
      <point x="383" y="1199" type="qcurve" smooth="yes"/>
      <point x="74" y="1199" type="line" smooth="yes"/>
      <point x="52" y="1199"/>
      <point x="20" y="1168"/>
      <point x="20" y="1145" type="qcurve" smooth="yes"/>
    </contour>
    <contour>
      <point x="479" y="438"/>
      <point x="401" y="438" type="qcurve" smooth="yes"/>
      <point x="129" y="438" type="line"/>
      <point x="129" y="1091" type="line"/>
      <point x="383" y="1091" type="line" smooth="yes"/>
      <point x="450" y="1091"/>
      <point x="546" y="995"/>
      <point x="546" y="928" type="qcurve" smooth="yes"/>
      <point x="546" y="764" type="line"/>
      <point x="546" y="397" type="line"/>
    </contour>
    <contour>
      <point x="655" y="995"/>
      <point x="750" y="1091"/>
      <point x="818" y="1091" type="qcurve" smooth="yes"/>
      <point x="1071" y="1091" type="line"/>
      <point x="1071" y="438" type="line"/>
      <point x="1003" y="438" type="line" smooth="yes"/>
      <point x="935" y="438"/>
      <point x="799" y="438"/>
      <point x="799" y="438" type="qcurve"/>
      <point x="721" y="438"/>
      <point x="654" y="397" type="qcurve"/>
      <point x="655" y="928" type="line" smooth="yes"/>
    </contour>
  </outline>
</glyph>
<glyph name="accessibility" format="2">
  <advance width="1200"/>
  <unicode hex="F406"/>
  <note>
accessibility
</note>
  <outline>
    <contour>
      <point x="809" y="978"/>
      <point x="858" y="1081"/>
      <point x="858" y="1140" type="qcurve" smooth="yes"/>
      <point x="858" y="1209"/>
      <point x="789" y="1328"/>
      <point x="670" y="1397"/>
      <point x="530" y="1397"/>
      <point x="411" y="1328"/>
      <point x="342" y="1209"/>
      <point x="342" y="1140" type="qcurve" smooth="yes"/>
      <point x="342" y="1081"/>
      <point x="391" y="978"/>
      <point x="435" y="942" type="qcurve"/>
      <point x="427" y="934"/>
      <point x="419" y="925" type="qcurve"/>
      <point x="84" y="925" type="line" smooth="yes"/>
      <point x="58" y="925"/>
      <point x="20" y="887"/>
      <point x="20" y="834"/>
      <point x="58" y="796"/>
      <point x="84" y="796" type="qcurve" smooth="yes"/>
      <point x="368" y="796" type="line"/>
      <point x="318" y="352" type="line"/>
      <point x="287" y="95" type="line" smooth="yes"/>
      <point x="287" y="91"/>
      <point x="287" y="87" type="qcurve" smooth="yes"/>
      <point x="287" y="60"/>
      <point x="325" y="23"/>
      <point x="351" y="23" type="qcurve" smooth="yes"/>
      <point x="376" y="23"/>
      <point x="412" y="55"/>
      <point x="415" y="79" type="qcurve" smooth="yes"/>
      <point x="440" y="280" type="line"/>
      <point x="760" y="280" type="line"/>
      <point x="766" y="230" type="line" smooth="yes"/>
      <point x="773" y="180"/>
      <point x="785" y="79"/>
      <point x="785" y="79" type="qcurve"/>
      <point x="788" y="55"/>
      <point x="824" y="23"/>
      <point x="849" y="23" type="qcurve" smooth="yes"/>
      <point x="875" y="23"/>
      <point x="913" y="60"/>
      <point x="913" y="87" type="qcurve" smooth="yes"/>
      <point x="913" y="91"/>
      <point x="913" y="95" type="qcurve" smooth="yes"/>
      <point x="882" y="352" type="line"/>
      <point x="832" y="796" type="line"/>
      <point x="1116" y="796" type="line" smooth="yes"/>
      <point x="1142" y="796"/>
      <point x="1180" y="834"/>
      <point x="1180" y="887"/>
      <point x="1142" y="925"/>
      <point x="1116" y="925" type="qcurve" smooth="yes"/>
      <point x="781" y="925" type="line"/>
      <point x="773" y="934"/>
      <point x="765" y="942" type="qcurve"/>
    </contour>
    <contour>
      <point x="746" y="409" type="line"/>
      <point x="454" y="409" type="line"/>
      <point x="459" y="448" type="line" smooth="yes"/>
      <point x="463" y="488"/>
      <point x="476" y="599"/>
      <point x="488" y="711"/>
      <point x="497" y="790"/>
      <point x="497" y="790" type="qcurve"/>
      <point x="501" y="829"/>
      <point x="560" y="882"/>
      <point x="640" y="882"/>
      <point x="699" y="829"/>
      <point x="703" y="790" type="qcurve"/>
      <point x="703" y="790" type="line"/>
    </contour>
    <contour>
      <point x="653" y="1011"/>
      <point x="546" y="1011"/>
      <point x="471" y="1086"/>
      <point x="471" y="1193"/>
      <point x="546" y="1269"/>
      <point x="653" y="1269"/>
      <point x="729" y="1193"/>
      <point x="729" y="1086"/>
    </contour>
  </outline>
</glyph>
<glyph name="git-pull-request" format="2">
  <advance width="1200"/>
  <unicode hex="F407"/>
  <note>
git-pull-request
</note>
  <outline>
    <contour>
      <point x="20" y="1039"/>
      <point x="92" y="939"/>
      <point x="149" y="918" type="qcurve"/>
      <point x="149" y="467" type="line"/>
      <point x="92" y="447"/>
      <point x="20" y="347"/>
      <point x="20" y="285" type="qcurve" smooth="yes"/>
      <point x="20" y="205"/>
      <point x="133" y="91"/>
      <point x="293" y="91"/>
      <point x="407" y="205"/>
      <point x="407" y="285" type="qcurve" smooth="yes"/>
      <point x="407" y="347"/>
      <point x="335" y="447"/>
      <point x="278" y="467" type="qcurve"/>
      <point x="278" y="918" type="line"/>
      <point x="335" y="939"/>
      <point x="407" y="1039"/>
      <point x="407" y="1101" type="qcurve" smooth="yes"/>
      <point x="407" y="1181"/>
      <point x="293" y="1294"/>
      <point x="133" y="1294"/>
      <point x="20" y="1181"/>
      <point x="20" y="1101" type="qcurve" smooth="yes"/>
    </contour>
    <contour>
      <point x="501" y="1110"/>
      <point x="501" y="1092"/>
      <point x="508" y="1086" type="qcurve" smooth="yes"/>
      <point x="559" y="1035" type="line" smooth="yes"/>
      <point x="611" y="983"/>
      <point x="713" y="880"/>
      <point x="713" y="880" type="qcurve"/>
      <point x="720" y="873"/>
      <point x="738" y="873"/>
      <point x="750" y="886"/>
      <point x="750" y="895" type="qcurve" smooth="yes"/>
      <point x="750" y="1037" type="line"/>
      <point x="836" y="1037" type="line" smooth="yes"/>
      <point x="872" y="1037"/>
      <point x="922" y="986"/>
      <point x="922" y="951" type="qcurve" smooth="yes"/>
      <point x="922" y="467" type="line"/>
      <point x="865" y="447"/>
      <point x="793" y="347"/>
      <point x="793" y="285" type="qcurve" smooth="yes"/>
      <point x="793" y="205"/>
      <point x="907" y="91"/>
      <point x="1067" y="91"/>
      <point x="1180" y="205"/>
      <point x="1180" y="285" type="qcurve" smooth="yes"/>
      <point x="1180" y="347"/>
      <point x="1108" y="447"/>
      <point x="1051" y="467" type="qcurve"/>
      <point x="1051" y="951" type="line" smooth="yes"/>
      <point x="1051" y="1039"/>
      <point x="925" y="1165"/>
      <point x="836" y="1165" type="qcurve" smooth="yes"/>
      <point x="750" y="1165" type="line"/>
      <point x="750" y="1201" type="line" smooth="yes"/>
      <point x="750" y="1236"/>
      <point x="750" y="1307"/>
      <point x="750" y="1307" type="qcurve"/>
      <point x="750" y="1316"/>
      <point x="738" y="1329"/>
      <point x="720" y="1329"/>
      <point x="713" y="1322" type="qcurve" smooth="yes"/>
      <point x="508" y="1116" type="line" smooth="yes"/>
    </contour>
    <contour>
      <point x="278" y="1128"/>
      <point x="240" y="1165"/>
      <point x="186" y="1165"/>
      <point x="149" y="1128"/>
      <point x="149" y="1074"/>
      <point x="186" y="1037"/>
      <point x="240" y="1037"/>
      <point x="278" y="1074"/>
    </contour>
    <contour>
      <point x="278" y="312"/>
      <point x="278" y="258"/>
      <point x="240" y="220"/>
      <point x="186" y="220"/>
      <point x="149" y="258"/>
      <point x="149" y="312"/>
      <point x="186" y="349"/>
      <point x="240" y="349"/>
    </contour>
    <contour>
      <point x="960" y="349"/>
      <point x="1014" y="349"/>
      <point x="1051" y="312"/>
      <point x="1051" y="258"/>
      <point x="1014" y="220"/>
      <point x="960" y="220"/>
      <point x="922" y="258"/>
      <point x="922" y="312"/>
    </contour>
  </outline>
</glyph>
<glyph name="mark-github" format="2">
  <advance width="1200"/>
  <unicode hex="F408"/>
  <note>
mark-github
</note>
  <outline>
    <contour>
      <point x="371" y="1234"/>
      <point x="244" y="1159"/>
      <point x="137" y="1052"/>
      <point x="62" y="925"/>
      <point x="20" y="775"/>
      <point x="20" y="696" type="qcurve" smooth="yes"/>
      <point x="20" y="601"/>
      <point x="79" y="424"/>
      <point x="184" y="282"/>
      <point x="331" y="174"/>
      <point x="416" y="145" type="qcurve"/>
      <point x="436" y="142"/>
      <point x="457" y="160"/>
      <point x="457" y="173" type="qcurve" smooth="yes"/>
      <point x="457" y="176"/>
      <point x="456" y="252"/>
      <point x="456" y="281" type="qcurve"/>
      <point x="421" y="274"/>
      <point x="363" y="274"/>
      <point x="323" y="285"/>
      <point x="293" y="301"/>
      <point x="274" y="322"/>
      <point x="264" y="340"/>
      <point x="261" y="349" type="qcurve" smooth="yes"/>
      <point x="254" y="367"/>
      <point x="218" y="422"/>
      <point x="201" y="431" type="qcurve" smooth="yes"/>
      <point x="193" y="436"/>
      <point x="179" y="448"/>
      <point x="171" y="460"/>
      <point x="184" y="469"/>
      <point x="201" y="470" type="qcurve" smooth="yes"/>
      <point x="217" y="470"/>
      <point x="247" y="457"/>
      <point x="270" y="436"/>
      <point x="285" y="419"/>
      <point x="290" y="410" type="qcurve" smooth="yes"/>
      <point x="304" y="385"/>
      <point x="344" y="355"/>
      <point x="380" y="346"/>
      <point x="420" y="349"/>
      <point x="447" y="357"/>
      <point x="458" y="362" type="qcurve"/>
      <point x="466" y="414"/>
      <point x="496" y="440" type="qcurve"/>
      <point x="466" y="443"/>
      <point x="415" y="454"/>
      <point x="359" y="474"/>
      <point x="316" y="503"/>
      <point x="275" y="547"/>
      <point x="248" y="603"/>
      <point x="232" y="680"/>
      <point x="232" y="726" type="qcurve" smooth="yes"/>
      <point x="232" y="817"/>
      <point x="291" y="882" type="qcurve"/>
      <point x="288" y="891"/>
      <point x="282" y="913"/>
      <point x="278" y="954"/>
      <point x="286" y="1008"/>
      <point x="297" y="1036" type="qcurve"/>
      <point x="303" y="1037" type="line" smooth="yes"/>
      <point x="308" y="1038"/>
      <point x="334" y="1035"/>
      <point x="369" y="1025"/>
      <point x="426" y="997"/>
      <point x="457" y="976" type="qcurve"/>
      <point x="526" y="996"/>
      <point x="677" y="996"/>
      <point x="747" y="976" type="qcurve"/>
      <point x="777" y="998"/>
      <point x="834" y="1025"/>
      <point x="867" y="1035"/>
      <point x="896" y="1038"/>
      <point x="904" y="1036"/>
      <point x="906" y="1036" type="qcurve"/>
      <point x="917" y="1008"/>
      <point x="925" y="954"/>
      <point x="921" y="913"/>
      <point x="915" y="891"/>
      <point x="912" y="882" type="qcurve"/>
      <point x="971" y="817"/>
      <point x="971" y="726" type="qcurve" smooth="yes"/>
      <point x="971" y="680"/>
      <point x="955" y="602"/>
      <point x="928" y="547"/>
      <point x="887" y="503"/>
      <point x="843" y="474"/>
      <point x="787" y="454"/>
      <point x="737" y="443"/>
      <point x="706" y="440" type="qcurve"/>
      <point x="746" y="406"/>
      <point x="746" y="333" type="qcurve" smooth="yes"/>
      <point x="746" y="286"/>
      <point x="745" y="176"/>
      <point x="745" y="173" type="qcurve" smooth="yes"/>
      <point x="745" y="159"/>
      <point x="765" y="141"/>
      <point x="785" y="145" type="qcurve"/>
      <point x="871" y="174"/>
      <point x="1016" y="282"/>
      <point x="1121" y="425"/>
      <point x="1180" y="602"/>
      <point x="1180" y="696" type="qcurve" smooth="yes"/>
      <point x="1180" y="775"/>
      <point x="1138" y="925"/>
      <point x="1063" y="1052"/>
      <point x="956" y="1159"/>
      <point x="829" y="1234"/>
      <point x="679" y="1276"/>
      <point x="521" y="1276"/>
    </contour>
  </outline>
</glyph>
<glyph name="upload" format="2">
  <advance width="1200"/>
  <unicode hex="F40A"/>
  <note>
upload
</note>
  <outline>
    <contour>
      <point x="1035" y="182" type="line" smooth="yes"/>
      <point x="1095" y="182"/>
      <point x="1180" y="267"/>
      <point x="1180" y="327" type="qcurve" smooth="yes"/>
      <point x="1180" y="534" type="line" smooth="yes"/>
      <point x="1180" y="560"/>
      <point x="1144" y="596"/>
      <point x="1092" y="596"/>
      <point x="1056" y="560"/>
      <point x="1056" y="534" type="qcurve" smooth="yes"/>
      <point x="1056" y="327" type="line" smooth="yes"/>
      <point x="1056" y="318"/>
      <point x="1043" y="306"/>
      <point x="1035" y="306" type="qcurve" smooth="yes"/>
      <point x="165" y="306" type="line" smooth="yes"/>
      <point x="157" y="306"/>
      <point x="144" y="318"/>
      <point x="144" y="327" type="qcurve" smooth="yes"/>
      <point x="144" y="534" type="line" smooth="yes"/>
      <point x="144" y="560"/>
      <point x="108" y="596"/>
      <point x="56" y="596"/>
      <point x="20" y="560"/>
      <point x="20" y="534" type="qcurve" smooth="yes"/>
      <point x="20" y="327" type="line" smooth="yes"/>
      <point x="20" y="267"/>
      <point x="105" y="182"/>
      <point x="165" y="182" type="qcurve" smooth="yes"/>
    </contour>
    <contour>
      <point x="846" y="1018" type="line" smooth="yes"/>
      <point x="779" y="1085"/>
      <point x="644" y="1220"/>
      <point x="644" y="1220" type="qcurve"/>
      <point x="626" y="1238"/>
      <point x="574" y="1238"/>
      <point x="556" y="1220" type="qcurve" smooth="yes"/>
      <point x="287" y="951" type="line" smooth="yes"/>
      <point x="269" y="933"/>
      <point x="269" y="881"/>
      <point x="305" y="845"/>
      <point x="357" y="845"/>
      <point x="375" y="863" type="qcurve" smooth="yes"/>
      <point x="538" y="1026" type="line"/>
      <point x="538" y="555" type="line" smooth="yes"/>
      <point x="538" y="529"/>
      <point x="574" y="492"/>
      <point x="626" y="492"/>
      <point x="662" y="529"/>
      <point x="662" y="555" type="qcurve" smooth="yes"/>
      <point x="662" y="1026" type="line"/>
      <point x="703" y="985" type="line" smooth="yes"/>
      <point x="744" y="944"/>
      <point x="825" y="863"/>
      <point x="825" y="863" type="qcurve"/>
      <point x="843" y="845"/>
      <point x="895" y="845"/>
      <point x="931" y="881"/>
      <point x="931" y="933"/>
      <point x="913" y="951" type="qcurve" smooth="yes"/>
    </contour>
  </outline>
</glyph>
<glyph name="accessibility-inset" format="2">
  <advance width="1200"/>
  <unicode hex="F40B"/>
  <note>
accessibility-inset
</note>
  <outline>
    <contour>
      <point x="268" y="1198"/>
      <point x="112" y="1042"/>
      <point x="20" y="828"/>
      <point x="20" y="592"/>
      <point x="112" y="378"/>
      <point x="268" y="222"/>
      <point x="482" y="130"/>
      <point x="718" y="130"/>
      <point x="932" y="222"/>
      <point x="1088" y="378"/>
      <point x="1180" y="592"/>
      <point x="1180" y="828"/>
      <point x="1088" y="1042"/>
      <point x="932" y="1198"/>
      <point x="718" y="1290"/>
      <point x="482" y="1290"/>
    </contour>
    <contour>
      <point x="745" y="959"/>
      <point x="704" y="891"/>
      <point x="669" y="873" type="qcurve"/>
      <point x="682" y="865"/>
      <point x="692" y="855" type="qcurve"/>
      <point x="908" y="855" type="line" smooth="yes"/>
      <point x="931" y="855"/>
      <point x="963" y="823"/>
      <point x="963" y="778"/>
      <point x="931" y="746"/>
      <point x="908" y="746" type="qcurve" smooth="yes"/>
      <point x="737" y="746" type="line"/>
      <point x="781" y="335" type="line" smooth="yes"/>
      <point x="781" y="332"/>
      <point x="781" y="329" type="qcurve" smooth="yes"/>
      <point x="781" y="307"/>
      <point x="750" y="275"/>
      <point x="727" y="275" type="qcurve" smooth="yes"/>
      <point x="706" y="275"/>
      <point x="675" y="303"/>
      <point x="673" y="324" type="qcurve" smooth="yes"/>
      <point x="655" y="493" type="line"/>
      <point x="545" y="493" type="line"/>
      <point x="541" y="450" type="line" smooth="yes"/>
      <point x="536" y="408"/>
      <point x="527" y="324"/>
      <point x="527" y="324" type="qcurve"/>
      <point x="526" y="302"/>
      <point x="495" y="273"/>
      <point x="473" y="273" type="qcurve" smooth="yes"/>
      <point x="450" y="273"/>
      <point x="419" y="304"/>
      <point x="419" y="327" type="qcurve" smooth="yes"/>
      <point x="419" y="331"/>
      <point x="419" y="335" type="qcurve" smooth="yes"/>
      <point x="463" y="746" type="line"/>
      <point x="292" y="746" type="line" smooth="yes"/>
      <point x="269" y="746"/>
      <point x="238" y="778"/>
      <point x="238" y="823"/>
      <point x="269" y="855"/>
      <point x="292" y="855" type="qcurve" smooth="yes"/>
      <point x="508" y="855" type="line"/>
      <point x="518" y="865"/>
      <point x="531" y="873" type="qcurve"/>
      <point x="496" y="891"/>
      <point x="455" y="959"/>
      <point x="455" y="1000" type="qcurve" smooth="yes"/>
      <point x="455" y="1060"/>
      <point x="540" y="1145"/>
      <point x="660" y="1145"/>
      <point x="745" y="1060"/>
      <point x="745" y="1000" type="qcurve" smooth="yes"/>
    </contour>
  </outline>
</glyph>
<glyph name="alert-fill" format="2">
  <advance width="1200"/>
  <unicode hex="F40C"/>
  <note>
alert-fill
</note>
  <outline>
    <contour>
      <point x="373" y="982" type="line" smooth="yes"/>
      <point x="260" y="771"/>
      <point x="35" y="349"/>
      <point x="35" y="350" type="qcurve"/>
      <point x="20" y="321"/>
      <point x="20" y="289" type="qcurve" smooth="yes"/>
      <point x="20" y="235"/>
      <point x="96" y="159"/>
      <point x="150" y="159" type="qcurve" smooth="yes"/>
      <point x="1050" y="159" type="line" smooth="yes"/>
      <point x="1104" y="159"/>
      <point x="1180" y="235"/>
      <point x="1180" y="289" type="qcurve" smooth="yes"/>
      <point x="1180" y="321"/>
      <point x="1165" y="350" type="qcurve" smooth="yes"/>
      <point x="715" y="1193" type="line" smooth="yes"/>
      <point x="700" y="1219"/>
      <point x="653" y="1254"/>
      <point x="600" y="1263"/>
      <point x="547" y="1254"/>
      <point x="500" y="1219"/>
      <point x="485" y="1193" type="qcurve" smooth="yes"/>
    </contour>
    <contour>
      <point x="656" y="867"/>
      <point x="656" y="844" type="qcurve" smooth="yes"/>
      <point x="656" y="659" type="line" smooth="yes"/>
      <point x="656" y="636"/>
      <point x="623" y="603"/>
      <point x="577" y="603"/>
      <point x="544" y="636"/>
      <point x="544" y="659" type="qcurve" smooth="yes"/>
      <point x="544" y="844" type="line" smooth="yes"/>
      <point x="544" y="867"/>
      <point x="577" y="900"/>
      <point x="623" y="900"/>
    </contour>
    <contour>
      <point x="631" y="381"/>
      <point x="569" y="381"/>
      <point x="526" y="425"/>
      <point x="526" y="486"/>
      <point x="569" y="529"/>
      <point x="631" y="529"/>
      <point x="674" y="486"/>
      <point x="674" y="425"/>
    </contour>
  </outline>
</glyph>
<glyph name="file-code" format="2">
  <advance width="1200"/>
  <unicode hex="F40D"/>
  <note>
file-code
</note>
  <outline>
    <contour>
      <point x="310" y="946" type="line" smooth="yes"/>
      <point x="310" y="923"/>
      <point x="342" y="891"/>
      <point x="387" y="891"/>
      <point x="419" y="923"/>
      <point x="419" y="946" type="qcurve" smooth="yes"/>
      <point x="419" y="1127" type="line" smooth="yes"/>
      <point x="419" y="1134"/>
      <point x="430" y="1145"/>
      <point x="437" y="1145" type="qcurve" smooth="yes"/>
      <point x="745" y="1145" type="line"/>
      <point x="745" y="946" type="line" smooth="yes"/>
      <point x="745" y="893"/>
      <point x="819" y="819"/>
      <point x="872" y="819" type="qcurve" smooth="yes"/>
      <point x="1071" y="819" type="line"/>
      <point x="1071" y="293" type="line" smooth="yes"/>
      <point x="1071" y="286"/>
      <point x="1060" y="275"/>
      <point x="1053" y="275" type="qcurve" smooth="yes"/>
      <point x="401" y="275" type="line" smooth="yes"/>
      <point x="378" y="275"/>
      <point x="346" y="243"/>
      <point x="346" y="198"/>
      <point x="378" y="166"/>
      <point x="401" y="166" type="qcurve" smooth="yes"/>
      <point x="1053" y="166" type="line" smooth="yes"/>
      <point x="1106" y="166"/>
      <point x="1180" y="240"/>
      <point x="1180" y="293" type="qcurve" smooth="yes"/>
      <point x="1180" y="916" type="line" smooth="yes"/>
      <point x="1180" y="968"/>
      <point x="1143" y="1005" type="qcurve" smooth="yes"/>
      <point x="931" y="1216" type="line" smooth="yes"/>
      <point x="895" y="1254"/>
      <point x="842" y="1254" type="qcurve" smooth="yes"/>
      <point x="437" y="1254" type="line" smooth="yes"/>
      <point x="384" y="1254"/>
      <point x="310" y="1180"/>
      <point x="310" y="1127" type="qcurve" smooth="yes"/>
    </contour>
    <contour>
      <point x="419" y="705"/>
      <point x="435" y="690" type="qcurve" smooth="yes"/>
      <point x="541" y="583" type="line"/>
      <point x="435" y="477" type="line" smooth="yes"/>
      <point x="418" y="460"/>
      <point x="418" y="437" type="qcurve" smooth="yes"/>
      <point x="418" y="430"/>
      <point x="419" y="423" type="qcurve" smooth="yes"/>
      <point x="424" y="405"/>
      <point x="453" y="382"/>
      <point x="472" y="382" type="qcurve" smooth="yes"/>
      <point x="495" y="382"/>
      <point x="512" y="400" type="qcurve" smooth="yes"/>
      <point x="548" y="436" type="line" smooth="yes"/>
      <point x="584" y="472"/>
      <point x="657" y="545"/>
      <point x="657" y="545" type="qcurve"/>
      <point x="673" y="560"/>
      <point x="673" y="606"/>
      <point x="657" y="622" type="qcurve" smooth="yes"/>
      <point x="620" y="658" type="line" smooth="yes"/>
      <point x="584" y="694"/>
      <point x="512" y="767"/>
      <point x="512" y="767" type="qcurve"/>
      <point x="496" y="783"/>
      <point x="450" y="783"/>
      <point x="419" y="751"/>
    </contour>
    <contour>
      <point x="273" y="705"/>
      <point x="273" y="727" type="qcurve" smooth="yes"/>
      <point x="273" y="749"/>
      <point x="240" y="781"/>
      <point x="218" y="781" type="qcurve" smooth="yes"/>
      <point x="197" y="781"/>
      <point x="181" y="767" type="qcurve" smooth="yes"/>
      <point x="145" y="730" type="line" smooth="yes"/>
      <point x="108" y="694"/>
      <point x="36" y="622"/>
      <point x="36" y="622" type="qcurve"/>
      <point x="20" y="606"/>
      <point x="20" y="560"/>
      <point x="36" y="545" type="qcurve" smooth="yes"/>
      <point x="72" y="508" type="line" smooth="yes"/>
      <point x="108" y="472"/>
      <point x="181" y="400"/>
      <point x="181" y="400" type="qcurve"/>
      <point x="197" y="385"/>
      <point x="218" y="385" type="qcurve" smooth="yes"/>
      <point x="240" y="385"/>
      <point x="273" y="417"/>
      <point x="273" y="439" type="qcurve" smooth="yes"/>
      <point x="273" y="461"/>
      <point x="258" y="477" type="qcurve" smooth="yes"/>
      <point x="151" y="583" type="line"/>
      <point x="258" y="690" type="line" smooth="yes"/>
    </contour>
    <contour>
      <point x="855" y="1140" type="line"/>
      <point x="1066" y="929" type="line"/>
      <point x="1067" y="928" type="line"/>
      <point x="872" y="928" type="line" smooth="yes"/>
      <point x="865" y="928"/>
      <point x="854" y="938"/>
      <point x="854" y="946" type="qcurve" smooth="yes"/>
      <point x="854" y="1140" type="line"/>
    </contour>
  </outline>
</glyph>
<glyph name="apps" format="2">
  <advance width="1200"/>
  <unicode hex="F40E"/>
  <note>
apps
</note>
  <outline>
    <contour>
      <point x="20" y="911" type="line" smooth="yes"/>
      <point x="20" y="846"/>
      <point x="111" y="755"/>
      <point x="176" y="755" type="qcurve" smooth="yes"/>
      <point x="399" y="755" type="line" smooth="yes"/>
      <point x="464" y="755"/>
      <point x="555" y="846"/>
      <point x="555" y="911" type="qcurve" smooth="yes"/>
      <point x="555" y="1134" type="line" smooth="yes"/>
      <point x="555" y="1199"/>
      <point x="464" y="1290"/>
      <point x="399" y="1290" type="qcurve" smooth="yes"/>
      <point x="176" y="1290" type="line" smooth="yes"/>
      <point x="111" y="1290"/>
      <point x="20" y="1199"/>
      <point x="20" y="1134" type="qcurve" smooth="yes"/>
    </contour>
    <contour>
      <point x="645" y="911" type="line" smooth="yes"/>
      <point x="645" y="846"/>
      <point x="736" y="755"/>
      <point x="801" y="755" type="qcurve" smooth="yes"/>
      <point x="1024" y="755" type="line" smooth="yes"/>
      <point x="1089" y="755"/>
      <point x="1180" y="846"/>
      <point x="1180" y="911" type="qcurve" smooth="yes"/>
      <point x="1180" y="1134" type="line" smooth="yes"/>
      <point x="1180" y="1199"/>
      <point x="1089" y="1290"/>
      <point x="1024" y="1290" type="qcurve" smooth="yes"/>
      <point x="801" y="1290" type="line" smooth="yes"/>
      <point x="736" y="1290"/>
      <point x="645" y="1199"/>
      <point x="645" y="1134" type="qcurve" smooth="yes"/>
    </contour>
    <contour>
      <point x="20" y="286" type="line" smooth="yes"/>
      <point x="20" y="221"/>
      <point x="111" y="130"/>
      <point x="176" y="130" type="qcurve" smooth="yes"/>
      <point x="399" y="130" type="line" smooth="yes"/>
      <point x="464" y="130"/>
      <point x="555" y="221"/>
      <point x="555" y="286" type="qcurve" smooth="yes"/>
      <point x="555" y="509" type="line" smooth="yes"/>
      <point x="555" y="574"/>
      <point x="464" y="665"/>
      <point x="399" y="665" type="qcurve" smooth="yes"/>
      <point x="176" y="665" type="line" smooth="yes"/>
      <point x="111" y="665"/>
      <point x="20" y="574"/>
      <point x="20" y="509" type="qcurve" smooth="yes"/>
    </contour>
    <contour>
      <point x="645" y="286" type="line" smooth="yes"/>
      <point x="645" y="221"/>
      <point x="736" y="130"/>
      <point x="801" y="130" type="qcurve" smooth="yes"/>
      <point x="1024" y="130" type="line" smooth="yes"/>
      <point x="1089" y="130"/>
      <point x="1180" y="221"/>
      <point x="1180" y="286" type="qcurve" smooth="yes"/>
      <point x="1180" y="509" type="line" smooth="yes"/>
      <point x="1180" y="574"/>
      <point x="1089" y="665"/>
      <point x="1024" y="665" type="qcurve" smooth="yes"/>
      <point x="801" y="665" type="line" smooth="yes"/>
      <point x="736" y="665"/>
      <point x="645" y="574"/>
      <point x="645" y="509" type="qcurve" smooth="yes"/>
    </contour>
    <contour>
      <point x="399" y="1156" type="line" smooth="yes"/>
      <point x="408" y="1156"/>
      <point x="422" y="1143"/>
      <point x="422" y="1134" type="qcurve" smooth="yes"/>
      <point x="422" y="911" type="line" smooth="yes"/>
      <point x="422" y="902"/>
      <point x="408" y="888"/>
      <point x="399" y="888" type="qcurve" smooth="yes"/>
      <point x="176" y="888" type="line" smooth="yes"/>
      <point x="167" y="888"/>
      <point x="154" y="902"/>
      <point x="154" y="911" type="qcurve" smooth="yes"/>
      <point x="154" y="1134" type="line" smooth="yes"/>
      <point x="154" y="1143"/>
      <point x="167" y="1156"/>
      <point x="176" y="1156" type="qcurve" smooth="yes"/>
    </contour>
    <contour>
      <point x="1024" y="1156" type="line" smooth="yes"/>
      <point x="1033" y="1156"/>
      <point x="1046" y="1143"/>
      <point x="1046" y="1134" type="qcurve" smooth="yes"/>
      <point x="1046" y="911" type="line" smooth="yes"/>
      <point x="1046" y="902"/>
      <point x="1033" y="888"/>
      <point x="1024" y="888" type="qcurve" smooth="yes"/>
      <point x="801" y="888" type="line" smooth="yes"/>
      <point x="792" y="888"/>
      <point x="778" y="902"/>
      <point x="778" y="911" type="qcurve" smooth="yes"/>
      <point x="778" y="1134" type="line" smooth="yes"/>
      <point x="778" y="1143"/>
      <point x="792" y="1156"/>
      <point x="801" y="1156" type="qcurve" smooth="yes"/>
    </contour>
    <contour>
      <point x="399" y="532" type="line" smooth="yes"/>
      <point x="408" y="532"/>
      <point x="422" y="518"/>
      <point x="422" y="509" type="qcurve" smooth="yes"/>
      <point x="422" y="286" type="line" smooth="yes"/>
      <point x="422" y="277"/>
      <point x="408" y="264"/>
      <point x="399" y="264" type="qcurve" smooth="yes"/>
      <point x="176" y="264" type="line" smooth="yes"/>
      <point x="167" y="264"/>
      <point x="154" y="277"/>
      <point x="154" y="286" type="qcurve" smooth="yes"/>
      <point x="154" y="509" type="line" smooth="yes"/>
      <point x="154" y="518"/>
      <point x="167" y="532"/>
      <point x="176" y="532" type="qcurve" smooth="yes"/>
    </contour>
    <contour>
      <point x="1024" y="532" type="line" smooth="yes"/>
      <point x="1033" y="532"/>
      <point x="1046" y="518"/>
      <point x="1046" y="509" type="qcurve" smooth="yes"/>
      <point x="1046" y="286" type="line" smooth="yes"/>
      <point x="1046" y="277"/>
      <point x="1033" y="264"/>
      <point x="1024" y="264" type="qcurve" smooth="yes"/>
      <point x="801" y="264" type="line" smooth="yes"/>
      <point x="792" y="264"/>
      <point x="778" y="277"/>
      <point x="778" y="286" type="qcurve" smooth="yes"/>
      <point x="778" y="509" type="line" smooth="yes"/>
      <point x="778" y="518"/>
      <point x="792" y="532"/>
      <point x="801" y="532" type="qcurve" smooth="yes"/>
    </contour>
  </outline>
</glyph>
<glyph name="file-media" format="2">
  <advance width="1200"/>
  <unicode hex="F40F"/>
  <note>
file-media
</note>
  <outline>
    <contour>
      <point x="1129" y="231"/>
      <point x="1180" y="283"/>
      <point x="1180" y="319" type="qcurve" smooth="yes"/>
      <point x="1180" y="1101" type="line" smooth="yes"/>
      <point x="1180" y="1137"/>
      <point x="1129" y="1189"/>
      <point x="1092" y="1189" type="qcurve" smooth="yes"/>
      <point x="108" y="1189" type="line" smooth="yes"/>
      <point x="71" y="1189"/>
      <point x="20" y="1137"/>
      <point x="20" y="1101" type="qcurve" smooth="yes"/>
      <point x="20" y="319" type="line" smooth="yes"/>
      <point x="20" y="283"/>
      <point x="71" y="231"/>
      <point x="108" y="231" type="qcurve" smooth="yes"/>
      <point x="1092" y="231" type="line" smooth="yes"/>
    </contour>
    <contour>
      <point x="1092" y="1114" type="line" smooth="yes"/>
      <point x="1097" y="1114"/>
      <point x="1104" y="1106"/>
      <point x="1104" y="1101" type="qcurve" smooth="yes"/>
      <point x="1104" y="486" type="line"/>
      <point x="1035" y="555" type="line" smooth="yes"/>
      <point x="966" y="625"/>
      <point x="828" y="763"/>
      <point x="828" y="763" type="qcurve"/>
      <point x="802" y="789"/>
      <point x="765" y="789" type="qcurve" smooth="yes"/>
      <point x="727" y="789"/>
      <point x="701" y="761" type="qcurve" smooth="yes"/>
      <point x="268" y="306" type="line"/>
      <point x="108" y="306" type="line" smooth="yes"/>
      <point x="103" y="306"/>
      <point x="96" y="314"/>
      <point x="96" y="319" type="qcurve" smooth="yes"/>
      <point x="96" y="1101" type="line" smooth="yes"/>
      <point x="96" y="1106"/>
      <point x="103" y="1114"/>
      <point x="108" y="1114" type="qcurve" smooth="yes"/>
    </contour>
    <contour>
      <point x="1104" y="314"/>
      <point x="1097" y="306"/>
      <point x="1092" y="306" type="qcurve" smooth="yes"/>
      <point x="373" y="306" type="line"/>
      <point x="755" y="709" type="line" smooth="yes"/>
      <point x="760" y="714"/>
      <point x="765" y="714" type="qcurve" smooth="yes"/>
      <point x="770" y="714"/>
      <point x="774" y="709" type="qcurve" smooth="yes"/>
      <point x="1104" y="379" type="line"/>
      <point x="1104" y="319" type="line" smooth="yes"/>
    </contour>
    <contour>
      <point x="428" y="1013"/>
      <point x="293" y="1013"/>
      <point x="196" y="916"/>
      <point x="196" y="781"/>
      <point x="293" y="685"/>
      <point x="428" y="685"/>
      <point x="524" y="781"/>
      <point x="524" y="916"/>
    </contour>
    <contour>
      <point x="397" y="760"/>
      <point x="449" y="812"/>
      <point x="449" y="885"/>
      <point x="397" y="937"/>
      <point x="324" y="937"/>
      <point x="272" y="885"/>
      <point x="272" y="812"/>
      <point x="324" y="760"/>
    </contour>
  </outline>
</glyph>
<glyph name="file-zip" format="2">
  <advance width="1200"/>
  <unicode hex="F410"/>
  <note>
file-zip
</note>
  <outline>
    <contour>
      <point x="201" y="1274"/>
      <point x="214" y="1287"/>
      <point x="223" y="1287" type="qcurve" smooth="yes"/>
      <point x="489" y="1287" type="line" smooth="yes"/>
      <point x="461" y="1287"/>
      <point x="423" y="1248"/>
      <point x="423" y="1193"/>
      <point x="461" y="1154"/>
      <point x="489" y="1154" type="qcurve" smooth="yes"/>
      <point x="533" y="1154" type="line" smooth="yes"/>
      <point x="561" y="1154"/>
      <point x="600" y="1193"/>
      <point x="600" y="1248"/>
      <point x="561" y="1287"/>
      <point x="533" y="1287" type="qcurve" smooth="yes"/>
      <point x="580" y="1287" type="line" smooth="yes"/>
      <point x="626" y="1287"/>
      <point x="719" y="1287"/>
      <point x="719" y="1287" type="qcurve"/>
      <point x="728" y="1287"/>
      <point x="735" y="1281" type="qcurve" smooth="yes"/>
      <point x="993" y="1022" type="line" smooth="yes"/>
      <point x="999" y="1015"/>
      <point x="999" y="1006" type="qcurve" smooth="yes"/>
      <point x="999" y="244" type="line" smooth="yes"/>
      <point x="999" y="235"/>
      <point x="986" y="222"/>
      <point x="977" y="222" type="qcurve" smooth="yes"/>
      <point x="933" y="222" type="line" smooth="yes"/>
      <point x="905" y="222"/>
      <point x="866" y="183"/>
      <point x="866" y="128"/>
      <point x="905" y="89"/>
      <point x="933" y="89" type="qcurve" smooth="yes"/>
      <point x="977" y="89" type="line" smooth="yes"/>
      <point x="1042" y="89"/>
      <point x="1133" y="180"/>
      <point x="1133" y="244" type="qcurve" smooth="yes"/>
      <point x="1133" y="1006" type="line" smooth="yes"/>
      <point x="1133" y="1071"/>
      <point x="1087" y="1116" type="qcurve" smooth="yes"/>
      <point x="828" y="1374" type="line" smooth="yes"/>
      <point x="783" y="1420"/>
      <point x="719" y="1420" type="qcurve" smooth="yes"/>
      <point x="223" y="1420" type="line" smooth="yes"/>
      <point x="158" y="1420"/>
      <point x="68" y="1329"/>
      <point x="68" y="1265" type="qcurve" smooth="yes"/>
      <point x="68" y="244" type="line" smooth="yes"/>
      <point x="68" y="202"/>
      <point x="110" y="130"/>
      <point x="145" y="110" type="qcurve" smooth="yes"/>
      <point x="160" y="101"/>
      <point x="178" y="101" type="qcurve" smooth="yes"/>
      <point x="206" y="101"/>
      <point x="245" y="139"/>
      <point x="245" y="167" type="qcurve" smooth="yes"/>
      <point x="245" y="185"/>
      <point x="227" y="216"/>
      <point x="212" y="225" type="qcurve" smooth="yes"/>
      <point x="201" y="231"/>
      <point x="201" y="244" type="qcurve" smooth="yes"/>
      <point x="201" y="1265" type="line" smooth="yes"/>
    </contour>
    <contour>
      <point x="469" y="488"/>
      <point x="378" y="397"/>
      <point x="378" y="333" type="qcurve" smooth="yes"/>
      <point x="378" y="67" type="line" smooth="yes"/>
      <point x="378" y="39"/>
      <point x="417" y="0"/>
      <point x="445" y="0" type="qcurve" smooth="yes"/>
      <point x="667" y="0" type="line" smooth="yes"/>
      <point x="694" y="0"/>
      <point x="733" y="39"/>
      <point x="733" y="67" type="qcurve" smooth="yes"/>
      <point x="733" y="333" type="line" smooth="yes"/>
      <point x="733" y="397"/>
      <point x="642" y="488"/>
      <point x="578" y="488" type="qcurve" smooth="yes"/>
      <point x="533" y="488" type="line" smooth="yes"/>
    </contour>
    <contour>
      <point x="461" y="888"/>
      <point x="489" y="888" type="qcurve" smooth="yes"/>
      <point x="533" y="888" type="line" smooth="yes"/>
      <point x="561" y="888"/>
      <point x="600" y="926"/>
      <point x="600" y="982"/>
      <point x="561" y="1021"/>
      <point x="533" y="1021" type="qcurve" smooth="yes"/>
      <point x="489" y="1021" type="line" smooth="yes"/>
      <point x="461" y="1021"/>
      <point x="423" y="982"/>
      <point x="423" y="926"/>
    </contour>
    <contour>
      <point x="461" y="754"/>
      <point x="423" y="716"/>
      <point x="423" y="660"/>
      <point x="461" y="621"/>
      <point x="489" y="621" type="qcurve" smooth="yes"/>
      <point x="533" y="621" type="line" smooth="yes"/>
      <point x="561" y="621"/>
      <point x="600" y="660"/>
      <point x="600" y="716"/>
      <point x="561" y="754"/>
      <point x="533" y="754" type="qcurve" smooth="yes"/>
      <point x="489" y="754" type="line" smooth="yes"/>
    </contour>
    <contour>
      <point x="639" y="754"/>
      <point x="667" y="754" type="qcurve" smooth="yes"/>
      <point x="711" y="754" type="line" smooth="yes"/>
      <point x="739" y="754"/>
      <point x="778" y="793"/>
      <point x="778" y="849"/>
      <point x="739" y="888"/>
      <point x="711" y="888" type="qcurve" smooth="yes"/>
      <point x="667" y="888" type="line" smooth="yes"/>
      <point x="639" y="888"/>
      <point x="600" y="849"/>
      <point x="600" y="793"/>
    </contour>
    <contour>
      <point x="639" y="1154"/>
      <point x="600" y="1115"/>
      <point x="600" y="1059"/>
      <point x="639" y="1021"/>
      <point x="667" y="1021" type="qcurve" smooth="yes"/>
      <point x="711" y="1021" type="line" smooth="yes"/>
      <point x="739" y="1021"/>
      <point x="778" y="1059"/>
      <point x="778" y="1115"/>
      <point x="739" y="1154"/>
      <point x="711" y="1154" type="qcurve" smooth="yes"/>
      <point x="667" y="1154" type="line" smooth="yes"/>
    </contour>
    <contour>
      <point x="639" y="488"/>
      <point x="667" y="488" type="qcurve" smooth="yes"/>
      <point x="711" y="488" type="line" smooth="yes"/>
      <point x="739" y="488"/>
      <point x="778" y="527"/>
      <point x="778" y="582"/>
      <point x="739" y="621"/>
      <point x="711" y="621" type="qcurve" smooth="yes"/>
      <point x="667" y="621" type="line" smooth="yes"/>
      <point x="639" y="621"/>
      <point x="600" y="582"/>
      <point x="600" y="527"/>
    </contour>
    <contour>
      <point x="511" y="342"/>
      <point x="524" y="355"/>
      <point x="533" y="355" type="qcurve" smooth="yes"/>
      <point x="578" y="355" type="line" smooth="yes"/>
      <point x="587" y="355"/>
      <point x="600" y="342"/>
      <point x="600" y="333" type="qcurve" smooth="yes"/>
      <point x="600" y="133" type="line"/>
      <point x="511" y="133" type="line"/>
      <point x="511" y="333" type="line" smooth="yes"/>
    </contour>
  </outline>
</glyph>
<glyph name="archive" format="2">
  <advance width="1200"/>
  <unicode hex="F411"/>
  <note>
archive
</note>
  <outline>
    <contour>
      <point x="20" y="982" type="line" smooth="yes"/>
      <point x="20" y="929"/>
      <point x="94" y="855"/>
      <point x="147" y="855" type="qcurve" smooth="yes"/>
      <point x="1053" y="855" type="line" smooth="yes"/>
      <point x="1106" y="855"/>
      <point x="1180" y="929"/>
      <point x="1180" y="982" type="qcurve" smooth="yes"/>
      <point x="1180" y="1091" type="line" smooth="yes"/>
      <point x="1180" y="1143"/>
      <point x="1106" y="1218"/>
      <point x="1053" y="1218" type="qcurve" smooth="yes"/>
      <point x="147" y="1218" type="line" smooth="yes"/>
      <point x="94" y="1218"/>
      <point x="20" y="1143"/>
      <point x="20" y="1091" type="qcurve" smooth="yes"/>
    </contour>
    <contour>
      <point x="93" y="751"/>
      <point x="93" y="728" type="qcurve" smooth="yes"/>
      <point x="93" y="329" type="line" smooth="yes"/>
      <point x="93" y="277"/>
      <point x="167" y="203"/>
      <point x="219" y="203" type="qcurve" smooth="yes"/>
      <point x="981" y="203" type="line" smooth="yes"/>
      <point x="1033" y="203"/>
      <point x="1108" y="277"/>
      <point x="1108" y="329" type="qcurve" smooth="yes"/>
      <point x="1108" y="728" type="line" smooth="yes"/>
      <point x="1108" y="751"/>
      <point x="1076" y="783"/>
      <point x="1030" y="783"/>
      <point x="999" y="751"/>
      <point x="999" y="728" type="qcurve" smooth="yes"/>
      <point x="999" y="329" type="line" smooth="yes"/>
      <point x="999" y="322"/>
      <point x="988" y="311"/>
      <point x="981" y="311" type="qcurve" smooth="yes"/>
      <point x="219" y="311" type="line" smooth="yes"/>
      <point x="212" y="311"/>
      <point x="201" y="322"/>
      <point x="201" y="329" type="qcurve" smooth="yes"/>
      <point x="201" y="728" type="line" smooth="yes"/>
      <point x="201" y="751"/>
      <point x="170" y="783"/>
      <point x="124" y="783"/>
    </contour>
    <contour>
      <point x="1053" y="1109" type="line" smooth="yes"/>
      <point x="1060" y="1109"/>
      <point x="1071" y="1098"/>
      <point x="1071" y="1091" type="qcurve" smooth="yes"/>
      <point x="1071" y="982" type="line" smooth="yes"/>
      <point x="1071" y="975"/>
      <point x="1060" y="964"/>
      <point x="1053" y="964" type="qcurve" smooth="yes"/>
      <point x="147" y="964" type="line" smooth="yes"/>
      <point x="140" y="964"/>
      <point x="129" y="975"/>
      <point x="129" y="982" type="qcurve" smooth="yes"/>
      <point x="129" y="1091" type="line" smooth="yes"/>
      <point x="129" y="1098"/>
      <point x="140" y="1109"/>
      <point x="147" y="1109" type="qcurve" smooth="yes"/>
    </contour>
    <contour>
      <point x="450" y="710"/>
      <point x="419" y="678"/>
      <point x="419" y="633"/>
      <point x="450" y="601"/>
      <point x="473" y="601" type="qcurve" smooth="yes"/>
      <point x="727" y="601" type="line" smooth="yes"/>
      <point x="750" y="601"/>
      <point x="781" y="633"/>
      <point x="781" y="678"/>
      <point x="750" y="710"/>
      <point x="727" y="710" type="qcurve" smooth="yes"/>
      <point x="473" y="710" type="line" smooth="yes"/>
    </contour>
  </outline>
</glyph>
<glyph name="tag" format="2">
  <advance width="1200"/>
  <unicode hex="F412"/>
  <note>
tag
</note>
  <outline>
    <contour>
      <point x="20" y="701"/>
      <point x="60" y="661" type="qcurve" smooth="yes"/>
      <point x="183" y="538" type="line" smooth="yes"/>
      <point x="306" y="415"/>
      <point x="551" y="170"/>
      <point x="551" y="170" type="qcurve"/>
      <point x="591" y="130"/>
      <point x="705" y="130"/>
      <point x="745" y="170" type="qcurve" smooth="yes"/>
      <point x="1140" y="565" type="line" smooth="yes"/>
      <point x="1180" y="605"/>
      <point x="1180" y="719"/>
      <point x="1140" y="759" type="qcurve" smooth="yes"/>
      <point x="649" y="1250" type="line" smooth="yes"/>
      <point x="609" y="1290"/>
      <point x="552" y="1290" type="qcurve" smooth="yes"/>
      <point x="157" y="1290" type="line" smooth="yes"/>
      <point x="100" y="1290"/>
      <point x="20" y="1210"/>
      <point x="20" y="1153" type="qcurve" smooth="yes"/>
      <point x="20" y="758" type="line" smooth="yes"/>
    </contour>
    <contour>
      <point x="138" y="1153" type="line" smooth="yes"/>
      <point x="138" y="1161"/>
      <point x="149" y="1172"/>
      <point x="157" y="1172" type="qcurve" smooth="yes"/>
      <point x="256" y="1172" type="line" smooth="yes"/>
      <point x="355" y="1172"/>
      <point x="552" y="1172"/>
      <point x="552" y="1172" type="qcurve"/>
      <point x="560" y="1172"/>
      <point x="566" y="1167" type="qcurve" smooth="yes"/>
      <point x="1057" y="676" type="line" smooth="yes"/>
      <point x="1062" y="670"/>
      <point x="1062" y="654"/>
      <point x="1057" y="648" type="qcurve" smooth="yes"/>
      <point x="958" y="550" type="line" smooth="yes"/>
      <point x="859" y="451"/>
      <point x="662" y="253"/>
      <point x="662" y="253" type="qcurve"/>
      <point x="656" y="248"/>
      <point x="640" y="248"/>
      <point x="634" y="253" type="qcurve" smooth="yes"/>
      <point x="143" y="744" type="line" smooth="yes"/>
      <point x="138" y="750"/>
      <point x="138" y="758" type="qcurve" smooth="yes"/>
    </contour>
    <contour>
      <point x="334" y="930"/>
      <point x="334" y="865"/>
      <point x="380" y="819"/>
      <point x="445" y="819"/>
      <point x="491" y="865"/>
      <point x="491" y="930"/>
      <point x="445" y="976"/>
      <point x="380" y="976"/>
    </contour>
  </outline>
</glyph>
<glyph name="file-submodule" format="2">
  <advance width="1200"/>
  <unicode hex="F414"/>
  <note>
file-submodule
</note>
  <outline>
    <contour>
      <point x="20" y="329" type="line" smooth="yes"/>
      <point x="20" y="277"/>
      <point x="94" y="203"/>
      <point x="147" y="203" type="qcurve" smooth="yes"/>
      <point x="1053" y="203" type="line" smooth="yes"/>
      <point x="1106" y="203"/>
      <point x="1180" y="277"/>
      <point x="1180" y="329" type="qcurve" smooth="yes"/>
      <point x="1180" y="946" type="line" smooth="yes"/>
      <point x="1180" y="998"/>
      <point x="1106" y="1073"/>
      <point x="1053" y="1073" type="qcurve" smooth="yes"/>
      <point x="564" y="1073" type="line" smooth="yes"/>
      <point x="555" y="1073"/>
      <point x="549" y="1080" type="qcurve" smooth="yes"/>
      <point x="484" y="1167" type="line" smooth="yes"/>
      <point x="466" y="1191"/>
      <point x="413" y="1218"/>
      <point x="383" y="1218" type="qcurve" smooth="yes"/>
      <point x="147" y="1218" type="line" smooth="yes"/>
      <point x="94" y="1218"/>
      <point x="20" y="1143"/>
      <point x="20" y="1091" type="qcurve" smooth="yes"/>
    </contour>
    <contour>
      <point x="694" y="404"/>
      <point x="673" y="413"/>
      <point x="673" y="425" type="qcurve" smooth="yes"/>
      <point x="673" y="565" type="line"/>
      <point x="364" y="565" type="line" smooth="yes"/>
      <point x="342" y="565"/>
      <point x="310" y="597"/>
      <point x="310" y="642"/>
      <point x="342" y="674"/>
      <point x="364" y="674" type="qcurve" smooth="yes"/>
      <point x="673" y="674" type="line"/>
      <point x="673" y="814" type="line" smooth="yes"/>
      <point x="673" y="821"/>
      <point x="683" y="832"/>
      <point x="691" y="832" type="qcurve" smooth="yes"/>
      <point x="698" y="832"/>
      <point x="703" y="827" type="qcurve" smooth="yes"/>
      <point x="912" y="632" type="line" smooth="yes"/>
      <point x="918" y="627"/>
      <point x="918" y="611"/>
      <point x="912" y="606" type="qcurve" smooth="yes"/>
      <point x="703" y="412" type="line" smooth="yes"/>
    </contour>
  </outline>
</glyph>
<glyph name="person" format="2">
  <advance width="1200"/>
  <unicode hex="F415"/>
  <note>
person
</note>
  <outline>
    <contour>
      <point x="913" y="709"/>
      <point x="986" y="864"/>
      <point x="986" y="953" type="qcurve" smooth="yes"/>
      <point x="986" y="1031"/>
      <point x="925" y="1175"/>
      <point x="822" y="1279"/>
      <point x="679" y="1340"/>
      <point x="521" y="1340"/>
      <point x="378" y="1279"/>
      <point x="274" y="1175"/>
      <point x="213" y="1031"/>
      <point x="213" y="953" type="qcurve" smooth="yes"/>
      <point x="213" y="865"/>
      <point x="287" y="709"/>
      <point x="352" y="656" type="qcurve"/>
      <point x="208" y="587"/>
      <point x="28" y="321"/>
      <point x="20" y="157" type="qcurve" smooth="yes"/>
      <point x="20" y="156"/>
      <point x="20" y="156" type="qcurve" smooth="yes"/>
      <point x="20" y="125"/>
      <point x="62" y="83"/>
      <point x="93" y="83" type="qcurve" smooth="yes"/>
      <point x="121" y="83"/>
      <point x="163" y="122"/>
      <point x="165" y="151" type="qcurve" smooth="yes"/>
      <point x="169" y="236"/>
      <point x="241" y="389"/>
      <point x="357" y="501"/>
      <point x="514" y="566"/>
      <point x="686" y="566"/>
      <point x="843" y="501"/>
      <point x="959" y="389"/>
      <point x="1031" y="236"/>
      <point x="1035" y="151" type="qcurve" smooth="yes"/>
      <point x="1036" y="122"/>
      <point x="1078" y="80"/>
      <point x="1107" y="80" type="qcurve" smooth="yes"/>
      <point x="1138" y="80"/>
      <point x="1180" y="122"/>
      <point x="1180" y="153" type="qcurve" smooth="yes"/>
      <point x="1180" y="155"/>
      <point x="1180" y="157" type="qcurve" smooth="yes"/>
      <point x="1172" y="321"/>
      <point x="992" y="587"/>
      <point x="848" y="656" type="qcurve"/>
    </contour>
    <contour>
      <point x="700" y="711"/>
      <point x="500" y="711"/>
      <point x="358" y="853"/>
      <point x="358" y="1053"/>
      <point x="500" y="1195"/>
      <point x="700" y="1195"/>
      <point x="842" y="1053"/>
      <point x="842" y="853"/>
    </contour>
  </outline>
</glyph>
<glyph name="arrow-both" format="2">
  <advance width="1200"/>
  <unicode hex="F416"/>
  <note>
arrow-both
</note>
  <outline>
    <contour>
      <point x="36" y="750" type="line" smooth="yes"/>
      <point x="20" y="734"/>
      <point x="20" y="689"/>
      <point x="36" y="673" type="qcurve" smooth="yes"/>
      <point x="290" y="419" type="line" smooth="yes"/>
      <point x="306" y="402"/>
      <point x="329" y="402" type="qcurve" smooth="yes"/>
      <point x="336" y="402"/>
      <point x="343" y="404" type="qcurve" smooth="yes"/>
      <point x="361" y="408"/>
      <point x="384" y="437"/>
      <point x="384" y="457" type="qcurve" smooth="yes"/>
      <point x="384" y="480"/>
      <point x="367" y="496" type="qcurve" smooth="yes"/>
      <point x="206" y="657" type="line"/>
      <point x="994" y="657" type="line"/>
      <point x="833" y="496" type="line" smooth="yes"/>
      <point x="816" y="480"/>
      <point x="816" y="457" type="qcurve" smooth="yes"/>
      <point x="816" y="450"/>
      <point x="818" y="443" type="qcurve" smooth="yes"/>
      <point x="823" y="425"/>
      <point x="851" y="402"/>
      <point x="871" y="402" type="qcurve" smooth="yes"/>
      <point x="894" y="402"/>
      <point x="910" y="419" type="qcurve" smooth="yes"/>
      <point x="1164" y="673" type="line" smooth="yes"/>
      <point x="1180" y="689"/>
      <point x="1180" y="734"/>
      <point x="1164" y="750" type="qcurve" smooth="yes"/>
      <point x="1101" y="813" type="line" smooth="yes"/>
      <point x="1037" y="877"/>
      <point x="910" y="1004"/>
      <point x="910" y="1004" type="qcurve"/>
      <point x="895" y="1018"/>
      <point x="873" y="1018" type="qcurve" smooth="yes"/>
      <point x="851" y="1018"/>
      <point x="819" y="986"/>
      <point x="819" y="964" type="qcurve" smooth="yes"/>
      <point x="819" y="943"/>
      <point x="833" y="927" type="qcurve" smooth="yes"/>
      <point x="994" y="766" type="line"/>
      <point x="206" y="766" type="line"/>
      <point x="246" y="806" type="line" smooth="yes"/>
      <point x="286" y="846"/>
      <point x="367" y="927"/>
      <point x="367" y="927" type="qcurve"/>
      <point x="381" y="943"/>
      <point x="381" y="964" type="qcurve" smooth="yes"/>
      <point x="381" y="986"/>
      <point x="349" y="1018"/>
      <point x="327" y="1018" type="qcurve" smooth="yes"/>
      <point x="305" y="1018"/>
      <point x="290" y="1004" type="qcurve" smooth="yes"/>
    </contour>
  </outline>
</glyph>
<glyph name="git-commit" format="2">
  <advance width="1200"/>
  <unicode hex="F417"/>
  <note>
git-commit
</note>
  <outline>
    <contour>
      <point x="1126" y="656" type="line" smooth="yes"/>
      <point x="1148" y="656"/>
      <point x="1180" y="687"/>
      <point x="1180" y="733"/>
      <point x="1148" y="764"/>
      <point x="1126" y="764" type="qcurve" smooth="yes"/>
      <point x="1121" y="764" type="line"/>
      <point x="1119" y="764" type="line"/>
      <point x="1118" y="764" type="line"/>
      <point x="1117" y="764" type="line"/>
      <point x="1116" y="764" type="line"/>
      <point x="1115" y="764" type="line"/>
      <point x="1114" y="764" type="line"/>
      <point x="1113" y="764" type="line"/>
      <point x="1112" y="764" type="line"/>
      <point x="1111" y="764" type="line"/>
      <point x="1110" y="764" type="line"/>
      <point x="1109" y="764" type="line"/>
      <point x="1108" y="764" type="line"/>
      <point x="1106" y="764" type="line"/>
      <point x="1106" y="764" type="line"/>
      <point x="1105" y="764" type="line"/>
      <point x="1104" y="764" type="line"/>
      <point x="1102" y="764" type="line"/>
      <point x="1101" y="764" type="line"/>
      <point x="1100" y="764" type="line"/>
      <point x="1100" y="764" type="line"/>
      <point x="1098" y="764" type="line"/>
      <point x="1097" y="764" type="line"/>
      <point x="1096" y="764" type="line"/>
      <point x="1095" y="764" type="line"/>
      <point x="1094" y="764" type="line"/>
      <point x="1093" y="764" type="line"/>
      <point x="1092" y="764" type="line"/>
      <point x="1091" y="764" type="line"/>
      <point x="1090" y="764" type="line"/>
      <point x="1089" y="764" type="line"/>
      <point x="1088" y="764" type="line"/>
      <point x="1087" y="764" type="line"/>
      <point x="1086" y="764" type="line"/>
      <point x="1085" y="764" type="line"/>
      <point x="1084" y="764" type="line"/>
      <point x="1083" y="764" type="line"/>
      <point x="1082" y="764" type="line"/>
      <point x="1081" y="764" type="line"/>
      <point x="1080" y="764" type="line"/>
      <point x="1079" y="764" type="line"/>
      <point x="1078" y="764" type="line"/>
      <point x="1077" y="764" type="line"/>
      <point x="1076" y="764" type="line"/>
      <point x="1075" y="764" type="line"/>
      <point x="1074" y="764" type="line"/>
      <point x="1073" y="764" type="line"/>
      <point x="1072" y="764" type="line"/>
      <point x="1071" y="764" type="line"/>
      <point x="1070" y="764" type="line"/>
      <point x="1069" y="764" type="line"/>
      <point x="1068" y="764" type="line"/>
      <point x="1067" y="764" type="line"/>
      <point x="1066" y="764" type="line"/>
      <point x="1065" y="764" type="line"/>
      <point x="1064" y="764" type="line"/>
      <point x="1063" y="764" type="line"/>
      <point x="1062" y="764" type="line"/>
      <point x="1062" y="764" type="line"/>
      <point x="1060" y="764" type="line"/>
      <point x="1059" y="764" type="line"/>
      <point x="1058" y="764" type="line"/>
      <point x="1058" y="764" type="line"/>
      <point x="1057" y="764" type="line"/>
      <point x="1055" y="764" type="line"/>
      <point x="1055" y="764" type="line"/>
      <point x="1054" y="764" type="line"/>
      <point x="1053" y="764" type="line"/>
      <point x="1052" y="764" type="line"/>
      <point x="1051" y="764" type="line"/>
      <point x="1050" y="764" type="line"/>
      <point x="1049" y="764" type="line"/>
      <point x="1048" y="764" type="line"/>
      <point x="1047" y="764" type="line"/>
      <point x="1046" y="764" type="line"/>
      <point x="1045" y="764" type="line"/>
      <point x="1044" y="764" type="line"/>
      <point x="1043" y="764" type="line"/>
      <point x="1042" y="764" type="line"/>
      <point x="1041" y="764" type="line"/>
      <point x="1041" y="764" type="line"/>
      <point x="1040" y="764" type="line"/>
      <point x="1039" y="764" type="line"/>
      <point x="1038" y="764" type="line"/>
      <point x="1037" y="764" type="line"/>
      <point x="1036" y="764" type="line"/>
      <point x="1035" y="764" type="line"/>
      <point x="1034" y="764" type="line"/>
      <point x="1033" y="764" type="line"/>
      <point x="1032" y="764" type="line"/>
      <point x="1032" y="764" type="line"/>
      <point x="1030" y="764" type="line"/>
      <point x="1030" y="764" type="line"/>
      <point x="1029" y="764" type="line"/>
      <point x="1028" y="764" type="line"/>
      <point x="1027" y="764" type="line"/>
      <point x="1026" y="764" type="line"/>
      <point x="1025" y="764" type="line"/>
      <point x="1024" y="764" type="line"/>
      <point x="1023" y="764" type="line"/>
      <point x="1023" y="764" type="line"/>
      <point x="1021" y="764" type="line"/>
      <point x="1021" y="764" type="line"/>
      <point x="1020" y="764" type="line"/>
      <point x="1019" y="764" type="line"/>
      <point x="1018" y="764" type="line"/>
      <point x="1017" y="764" type="line"/>
      <point x="1016" y="764" type="line"/>
      <point x="1015" y="764" type="line"/>
      <point x="1015" y="764" type="line"/>
      <point x="1013" y="764" type="line"/>
      <point x="1013" y="764" type="line"/>
      <point x="1012" y="764" type="line"/>
      <point x="1011" y="764" type="line"/>
      <point x="1010" y="764" type="line"/>
      <point x="1010" y="764" type="line"/>
      <point x="1008" y="764" type="line"/>
      <point x="1008" y="764" type="line"/>
      <point x="1007" y="764" type="line"/>
      <point x="1006" y="764" type="line"/>
      <point x="1005" y="764" type="line"/>
      <point x="1004" y="764" type="line"/>
      <point x="1003" y="764" type="line"/>
      <point x="1003" y="764" type="line"/>
      <point x="1002" y="764" type="line"/>
      <point x="1001" y="764" type="line"/>
      <point x="1000" y="764" type="line"/>
      <point x="999" y="764" type="line"/>
      <point x="998" y="764" type="line"/>
      <point x="998" y="764" type="line"/>
      <point x="996" y="764" type="line"/>
      <point x="996" y="764" type="line"/>
      <point x="995" y="764" type="line"/>
      <point x="994" y="764" type="line"/>
      <point x="994" y="764" type="line"/>
      <point x="993" y="764" type="line"/>
      <point x="992" y="764" type="line"/>
      <point x="991" y="764" type="line"/>
      <point x="990" y="764" type="line"/>
      <point x="989" y="764" type="line"/>
      <point x="989" y="764" type="line"/>
      <point x="988" y="764" type="line"/>
      <point x="987" y="764" type="line"/>
      <point x="986" y="764" type="line"/>
      <point x="985" y="764" type="line"/>
      <point x="985" y="764" type="line"/>
      <point x="984" y="764" type="line"/>
      <point x="983" y="764" type="line"/>
      <point x="982" y="764" type="line"/>
      <point x="981" y="764" type="line"/>
      <point x="981" y="764" type="line"/>
      <point x="980" y="764" type="line"/>
      <point x="979" y="764" type="line"/>
      <point x="978" y="764" type="line"/>
      <point x="977" y="764" type="line"/>
      <point x="977" y="764" type="line"/>
      <point x="976" y="764" type="line"/>
      <point x="975" y="764" type="line"/>
      <point x="974" y="764" type="line"/>
      <point x="974" y="764" type="line"/>
      <point x="973" y="764" type="line"/>
      <point x="972" y="764" type="line"/>
      <point x="972" y="764" type="line"/>
      <point x="970" y="764" type="line"/>
      <point x="970" y="764" type="line"/>
      <point x="969" y="764" type="line"/>
      <point x="968" y="764" type="line"/>
      <point x="968" y="764" type="line"/>
      <point x="967" y="764" type="line"/>
      <point x="966" y="764" type="line"/>
      <point x="965" y="764" type="line"/>
      <point x="965" y="764" type="line"/>
      <point x="964" y="764" type="line"/>
      <point x="963" y="764" type="line"/>
      <point x="963" y="764" type="line"/>
      <point x="961" y="764" type="line"/>
      <point x="961" y="764" type="line"/>
      <point x="960" y="764" type="line"/>
      <point x="960" y="764" type="line"/>
      <point x="959" y="764" type="line"/>
      <point x="958" y="764" type="line"/>
      <point x="957" y="764" type="line"/>
      <point x="957" y="764" type="line"/>
      <point x="956" y="764" type="line"/>
      <point x="955" y="764" type="line"/>
      <point x="955" y="764" type="line"/>
      <point x="954" y="764" type="line"/>
      <point x="953" y="764" type="line"/>
      <point x="952" y="764" type="line"/>
      <point x="952" y="764" type="line"/>
      <point x="951" y="764" type="line"/>
      <point x="950" y="764" type="line"/>
      <point x="949" y="764" type="line"/>
      <point x="949" y="764" type="line"/>
      <point x="948" y="764" type="line"/>
      <point x="948" y="764" type="line"/>
      <point x="947" y="764" type="line"/>
      <point x="946" y="764" type="line"/>
      <point x="946" y="764" type="line"/>
      <point x="945" y="764" type="line"/>
      <point x="944" y="764" type="line"/>
      <point x="943" y="764" type="line"/>
      <point x="943" y="764" type="line"/>
      <point x="942" y="764" type="line"/>
      <point x="942" y="764" type="line"/>
      <point x="941" y="764" type="line"/>
      <point x="940" y="764" type="line"/>
      <point x="939" y="764" type="line"/>
      <point x="939" y="764" type="line"/>
      <point x="938" y="764" type="line"/>
      <point x="938" y="764" type="line"/>
      <point x="937" y="764" type="line"/>
      <point x="936" y="764" type="line"/>
      <point x="936" y="764" type="line"/>
      <point x="935" y="764" type="line"/>
      <point x="934" y="764" type="line"/>
      <point x="934" y="764" type="line"/>
      <point x="933" y="764" type="line"/>
      <point x="932" y="764" type="line"/>
      <point x="932" y="764" type="line"/>
      <point x="931" y="764" type="line"/>
      <point x="931" y="764" type="line"/>
      <point x="930" y="764" type="line"/>
      <point x="930" y="764" type="line"/>
      <point x="929" y="764" type="line"/>
      <point x="929" y="764" type="line"/>
      <point x="928" y="764" type="line"/>
      <point x="927" y="764" type="line"/>
      <point x="927" y="764" type="line"/>
      <point x="926" y="764" type="line"/>
      <point x="925" y="764" type="line"/>
      <point x="925" y="764" type="line"/>
      <point x="924" y="764" type="line"/>
      <point x="923" y="764" type="line"/>
      <point x="923" y="764" type="line"/>
      <point x="922" y="764" type="line"/>
      <point x="922" y="764" type="line"/>
      <point x="921" y="764" type="line"/>
      <point x="921" y="764" type="line"/>
      <point x="920" y="764" type="line"/>
      <point x="919" y="764" type="line"/>
      <point x="919" y="764" type="line"/>
      <point x="918" y="764" type="line"/>
      <point x="918" y="764" type="line"/>
      <point x="917" y="764" type="line"/>
      <point x="917" y="764" type="line"/>
      <point x="916" y="764" type="line"/>
      <point x="915" y="764" type="line"/>
      <point x="915" y="764" type="line"/>
      <point x="914" y="764" type="line"/>
      <point x="914" y="764" type="line"/>
      <point x="913" y="764" type="line"/>
      <point x="913" y="764" type="line"/>
      <point x="912" y="764" type="line"/>
      <point x="912" y="764" type="line"/>
      <point x="911" y="764" type="line"/>
      <point x="910" y="764" type="line"/>
      <point x="910" y="764" type="line"/>
      <point x="909" y="764" type="line"/>
      <point x="909" y="764" type="line"/>
      <point x="908" y="764" type="line"/>
      <point x="908" y="764" type="line"/>
      <point x="907" y="764" type="line"/>
      <point x="906" y="764" type="line"/>
      <point x="906" y="764" type="line"/>
      <point x="905" y="764" type="line"/>
      <point x="905" y="764" type="line"/>
      <point x="904" y="764" type="line"/>
      <point x="904" y="764" type="line"/>
      <point x="903" y="764" type="line"/>
      <point x="902" y="764" type="line"/>
      <point x="902" y="764" type="line"/>
      <point x="901" y="764" type="line"/>
      <point x="901" y="764" type="line"/>
      <point x="900" y="764" type="line"/>
      <point x="900" y="764" type="line"/>
      <point x="899" y="764" type="line"/>
      <point x="898" y="764" type="line"/>
      <point x="898" y="764" type="line"/>
      <point x="897" y="764" type="line"/>
      <point x="897" y="764" type="line"/>
      <point x="896" y="764" type="line"/>
      <point x="896" y="764" type="line"/>
      <point x="895" y="764" type="line"/>
      <point x="895" y="764" type="line"/>
      <point x="894" y="764" type="line"/>
      <point x="893" y="764" type="line"/>
      <point x="893" y="764" type="line"/>
      <point x="892" y="764" type="line"/>
      <point x="892" y="764" type="line"/>
      <point x="891" y="764" type="line"/>
      <point x="891" y="764" type="line"/>
      <point x="890" y="764" type="line"/>
      <point x="890" y="764" type="line"/>
      <point x="889" y="764" type="line"/>
      <point x="889" y="764" type="line"/>
      <point x="888" y="764" type="line"/>
      <point x="888" y="764" type="line"/>
      <point x="888" y="764" type="line"/>
      <point x="888" y="764" type="line"/>
      <point x="887" y="764" type="line"/>
      <point x="887" y="764" type="line"/>
      <point x="887" y="764" type="line"/>
      <point x="887" y="764" type="line"/>
      <point x="886" y="764" type="line"/>
      <point x="886" y="764" type="line"/>
      <point x="886" y="764" type="line"/>
      <point x="885" y="764" type="line"/>
      <point x="885" y="764" type="line"/>
      <point x="885" y="764" type="line"/>
      <point x="885" y="764" type="line"/>
      <point x="885" y="764" type="line"/>
      <point x="885" y="764" type="line"/>
      <point x="885" y="764" type="line"/>
      <point x="885" y="764" type="line"/>
      <point x="872" y="831"/>
      <point x="791" y="938"/>
      <point x="670" y="999"/>
      <point x="530" y="999"/>
      <point x="409" y="938"/>
      <point x="328" y="831"/>
      <point x="315" y="764" type="qcurve"/>
      <point x="74" y="764" type="line" smooth="yes"/>
      <point x="52" y="764"/>
      <point x="20" y="733"/>
      <point x="20" y="687"/>
      <point x="52" y="656"/>
      <point x="74" y="656" type="qcurve" smooth="yes"/>
      <point x="79" y="656" type="line"/>
      <point x="81" y="656" type="line"/>
      <point x="82" y="656" type="line"/>
      <point x="83" y="656" type="line"/>
      <point x="84" y="656" type="line"/>
      <point x="85" y="656" type="line"/>
      <point x="86" y="656" type="line"/>
      <point x="87" y="656" type="line"/>
      <point x="88" y="656" type="line"/>
      <point x="89" y="656" type="line"/>
      <point x="90" y="656" type="line"/>
      <point x="91" y="656" type="line"/>
      <point x="93" y="656" type="line"/>
      <point x="94" y="656" type="line"/>
      <point x="94" y="656" type="line"/>
      <point x="95" y="656" type="line"/>
      <point x="96" y="656" type="line"/>
      <point x="98" y="656" type="line"/>
      <point x="99" y="656" type="line"/>
      <point x="100" y="656" type="line"/>
      <point x="100" y="656" type="line"/>
      <point x="102" y="656" type="line"/>
      <point x="103" y="656" type="line"/>
      <point x="104" y="656" type="line"/>
      <point x="105" y="656" type="line"/>
      <point x="106" y="656" type="line"/>
      <point x="107" y="656" type="line"/>
      <point x="108" y="656" type="line"/>
      <point x="109" y="656" type="line"/>
      <point x="110" y="656" type="line"/>
      <point x="111" y="656" type="line"/>
      <point x="112" y="656" type="line"/>
      <point x="113" y="656" type="line"/>
      <point x="114" y="656" type="line"/>
      <point x="115" y="656" type="line"/>
      <point x="116" y="656" type="line"/>
      <point x="117" y="656" type="line"/>
      <point x="118" y="656" type="line"/>
      <point x="119" y="656" type="line"/>
      <point x="120" y="656" type="line"/>
      <point x="121" y="656" type="line"/>
      <point x="122" y="656" type="line"/>
      <point x="123" y="656" type="line"/>
      <point x="124" y="656" type="line"/>
      <point x="125" y="656" type="line"/>
      <point x="126" y="656" type="line"/>
      <point x="127" y="656" type="line"/>
      <point x="128" y="656" type="line"/>
      <point x="129" y="656" type="line"/>
      <point x="130" y="656" type="line"/>
      <point x="131" y="656" type="line"/>
      <point x="132" y="656" type="line"/>
      <point x="133" y="656" type="line"/>
      <point x="134" y="656" type="line"/>
      <point x="135" y="656" type="line"/>
      <point x="136" y="656" type="line"/>
      <point x="137" y="656" type="line"/>
      <point x="138" y="656" type="line"/>
      <point x="138" y="656" type="line"/>
      <point x="140" y="656" type="line"/>
      <point x="141" y="656" type="line"/>
      <point x="142" y="656" type="line"/>
      <point x="142" y="656" type="line"/>
      <point x="143" y="656" type="line"/>
      <point x="145" y="656" type="line"/>
      <point x="145" y="656" type="line"/>
      <point x="146" y="656" type="line"/>
      <point x="147" y="656" type="line"/>
      <point x="148" y="656" type="line"/>
      <point x="149" y="656" type="line"/>
      <point x="150" y="656" type="line"/>
      <point x="151" y="656" type="line"/>
      <point x="152" y="656" type="line"/>
      <point x="153" y="656" type="line"/>
      <point x="154" y="656" type="line"/>
      <point x="155" y="656" type="line"/>
      <point x="156" y="656" type="line"/>
      <point x="157" y="656" type="line"/>
      <point x="158" y="656" type="line"/>
      <point x="159" y="656" type="line"/>
      <point x="159" y="656" type="line"/>
      <point x="160" y="656" type="line"/>
      <point x="161" y="656" type="line"/>
      <point x="162" y="656" type="line"/>
      <point x="163" y="656" type="line"/>
      <point x="164" y="656" type="line"/>
      <point x="165" y="656" type="line"/>
      <point x="166" y="656" type="line"/>
      <point x="167" y="656" type="line"/>
      <point x="168" y="656" type="line"/>
      <point x="168" y="656" type="line"/>
      <point x="170" y="656" type="line"/>
      <point x="170" y="656" type="line"/>
      <point x="171" y="656" type="line"/>
      <point x="172" y="656" type="line"/>
      <point x="173" y="656" type="line"/>
      <point x="174" y="656" type="line"/>
      <point x="175" y="656" type="line"/>
      <point x="176" y="656" type="line"/>
      <point x="177" y="656" type="line"/>
      <point x="177" y="656" type="line"/>
      <point x="179" y="656" type="line"/>
      <point x="179" y="656" type="line"/>
      <point x="180" y="656" type="line"/>
      <point x="181" y="656" type="line"/>
      <point x="182" y="656" type="line"/>
      <point x="183" y="656" type="line"/>
      <point x="184" y="656" type="line"/>
      <point x="185" y="656" type="line"/>
      <point x="185" y="656" type="line"/>
      <point x="187" y="656" type="line"/>
      <point x="187" y="656" type="line"/>
      <point x="188" y="656" type="line"/>
      <point x="189" y="656" type="line"/>
      <point x="190" y="656" type="line"/>
      <point x="190" y="656" type="line"/>
      <point x="192" y="656" type="line"/>
      <point x="192" y="656" type="line"/>
      <point x="193" y="656" type="line"/>
      <point x="194" y="656" type="line"/>
      <point x="195" y="656" type="line"/>
      <point x="196" y="656" type="line"/>
      <point x="197" y="656" type="line"/>
      <point x="197" y="656" type="line"/>
      <point x="198" y="656" type="line"/>
      <point x="199" y="656" type="line"/>
      <point x="200" y="656" type="line"/>
      <point x="201" y="656" type="line"/>
      <point x="202" y="656" type="line"/>
      <point x="202" y="656" type="line"/>
      <point x="204" y="656" type="line"/>
      <point x="204" y="656" type="line"/>
      <point x="205" y="656" type="line"/>
      <point x="206" y="656" type="line"/>
      <point x="206" y="656" type="line"/>
      <point x="207" y="656" type="line"/>
      <point x="208" y="656" type="line"/>
      <point x="209" y="656" type="line"/>
      <point x="210" y="656" type="line"/>
      <point x="211" y="656" type="line"/>
      <point x="211" y="656" type="line"/>
      <point x="212" y="656" type="line"/>
      <point x="213" y="656" type="line"/>
      <point x="214" y="656" type="line"/>
      <point x="215" y="656" type="line"/>
      <point x="215" y="656" type="line"/>
      <point x="216" y="656" type="line"/>
      <point x="217" y="656" type="line"/>
      <point x="218" y="656" type="line"/>
      <point x="219" y="656" type="line"/>
      <point x="219" y="656" type="line"/>
      <point x="220" y="656" type="line"/>
      <point x="221" y="656" type="line"/>
      <point x="222" y="656" type="line"/>
      <point x="223" y="656" type="line"/>
      <point x="223" y="656" type="line"/>
      <point x="224" y="656" type="line"/>
      <point x="225" y="656" type="line"/>
      <point x="226" y="656" type="line"/>
      <point x="226" y="656" type="line"/>
      <point x="227" y="656" type="line"/>
      <point x="228" y="656" type="line"/>
      <point x="228" y="656" type="line"/>
      <point x="230" y="656" type="line"/>
      <point x="230" y="656" type="line"/>
      <point x="231" y="656" type="line"/>
      <point x="232" y="656" type="line"/>
      <point x="232" y="656" type="line"/>
      <point x="233" y="656" type="line"/>
      <point x="234" y="656" type="line"/>
      <point x="235" y="656" type="line"/>
      <point x="235" y="656" type="line"/>
      <point x="236" y="656" type="line"/>
      <point x="237" y="656" type="line"/>
      <point x="238" y="656" type="line"/>
      <point x="239" y="656" type="line"/>
      <point x="239" y="656" type="line"/>
      <point x="240" y="656" type="line"/>
      <point x="240" y="656" type="line"/>
      <point x="241" y="656" type="line"/>
      <point x="242" y="656" type="line"/>
      <point x="243" y="656" type="line"/>
      <point x="243" y="656" type="line"/>
      <point x="244" y="656" type="line"/>
      <point x="245" y="656" type="line"/>
      <point x="245" y="656" type="line"/>
      <point x="246" y="656" type="line"/>
      <point x="247" y="656" type="line"/>
      <point x="248" y="656" type="line"/>
      <point x="248" y="656" type="line"/>
      <point x="249" y="656" type="line"/>
      <point x="250" y="656" type="line"/>
      <point x="251" y="656" type="line"/>
      <point x="251" y="656" type="line"/>
      <point x="252" y="656" type="line"/>
      <point x="252" y="656" type="line"/>
      <point x="253" y="656" type="line"/>
      <point x="254" y="656" type="line"/>
      <point x="254" y="656" type="line"/>
      <point x="255" y="656" type="line"/>
      <point x="256" y="656" type="line"/>
      <point x="257" y="656" type="line"/>
      <point x="257" y="656" type="line"/>
      <point x="258" y="656" type="line"/>
      <point x="258" y="656" type="line"/>
      <point x="259" y="656" type="line"/>
      <point x="260" y="656" type="line"/>
      <point x="261" y="656" type="line"/>
      <point x="261" y="656" type="line"/>
      <point x="262" y="656" type="line"/>
      <point x="262" y="656" type="line"/>
      <point x="263" y="656" type="line"/>
      <point x="264" y="656" type="line"/>
      <point x="264" y="656" type="line"/>
      <point x="265" y="656" type="line"/>
      <point x="266" y="656" type="line"/>
      <point x="266" y="656" type="line"/>
      <point x="267" y="656" type="line"/>
      <point x="268" y="656" type="line"/>
      <point x="268" y="656" type="line"/>
      <point x="269" y="656" type="line"/>
      <point x="269" y="656" type="line"/>
      <point x="270" y="656" type="line"/>
      <point x="270" y="656" type="line"/>
      <point x="271" y="656" type="line"/>
      <point x="271" y="656" type="line"/>
      <point x="272" y="656" type="line"/>
      <point x="273" y="656" type="line"/>
      <point x="273" y="656" type="line"/>
      <point x="274" y="656" type="line"/>
      <point x="275" y="656" type="line"/>
      <point x="275" y="656" type="line"/>
      <point x="276" y="656" type="line"/>
      <point x="277" y="656" type="line"/>
      <point x="277" y="656" type="line"/>
      <point x="278" y="656" type="line"/>
      <point x="278" y="656" type="line"/>
      <point x="279" y="656" type="line"/>
      <point x="279" y="656" type="line"/>
      <point x="280" y="656" type="line"/>
      <point x="281" y="656" type="line"/>
      <point x="281" y="656" type="line"/>
      <point x="282" y="656" type="line"/>
      <point x="282" y="656" type="line"/>
      <point x="283" y="656" type="line"/>
      <point x="283" y="656" type="line"/>
      <point x="284" y="656" type="line"/>
      <point x="285" y="656" type="line"/>
      <point x="285" y="656" type="line"/>
      <point x="286" y="656" type="line"/>
      <point x="286" y="656" type="line"/>
      <point x="287" y="656" type="line"/>
      <point x="287" y="656" type="line"/>
      <point x="288" y="656" type="line"/>
      <point x="288" y="656" type="line"/>
      <point x="289" y="656" type="line"/>
      <point x="290" y="656" type="line"/>
      <point x="290" y="656" type="line"/>
      <point x="291" y="656" type="line"/>
      <point x="291" y="656" type="line"/>
      <point x="292" y="656" type="line"/>
      <point x="292" y="656" type="line"/>
      <point x="293" y="656" type="line"/>
      <point x="294" y="656" type="line"/>
      <point x="294" y="656" type="line"/>
      <point x="295" y="656" type="line"/>
      <point x="295" y="656" type="line"/>
      <point x="296" y="656" type="line"/>
      <point x="296" y="656" type="line"/>
      <point x="297" y="656" type="line"/>
      <point x="298" y="656" type="line"/>
      <point x="298" y="656" type="line"/>
      <point x="299" y="656" type="line"/>
      <point x="299" y="656" type="line"/>
      <point x="300" y="656" type="line"/>
      <point x="300" y="656" type="line"/>
      <point x="301" y="656" type="line"/>
      <point x="302" y="656" type="line"/>
      <point x="302" y="656" type="line"/>
      <point x="303" y="656" type="line"/>
      <point x="303" y="656" type="line"/>
      <point x="304" y="656" type="line"/>
      <point x="304" y="656" type="line"/>
      <point x="305" y="656" type="line"/>
      <point x="305" y="656" type="line"/>
      <point x="306" y="656" type="line"/>
      <point x="307" y="656" type="line"/>
      <point x="307" y="656" type="line"/>
      <point x="308" y="656" type="line"/>
      <point x="308" y="656" type="line"/>
      <point x="309" y="656" type="line"/>
      <point x="309" y="656" type="line"/>
      <point x="310" y="656" type="line"/>
      <point x="310" y="656" type="line"/>
      <point x="311" y="656" type="line"/>
      <point x="311" y="656" type="line"/>
      <point x="312" y="656" type="line"/>
      <point x="312" y="656" type="line"/>
      <point x="312" y="656" type="line"/>
      <point x="312" y="656" type="line"/>
      <point x="313" y="656" type="line"/>
      <point x="313" y="656" type="line"/>
      <point x="313" y="656" type="line"/>
      <point x="313" y="656" type="line"/>
      <point x="314" y="656" type="line"/>
      <point x="314" y="656" type="line"/>
      <point x="314" y="656" type="line"/>
      <point x="315" y="656" type="line"/>
      <point x="315" y="656" type="line"/>
      <point x="315" y="656" type="line"/>
      <point x="315" y="656" type="line"/>
      <point x="315" y="656" type="line"/>
      <point x="315" y="656" type="line"/>
      <point x="315" y="656" type="line"/>
      <point x="315" y="656" type="line"/>
      <point x="328" y="589"/>
      <point x="409" y="482"/>
      <point x="530" y="421"/>
      <point x="670" y="421"/>
      <point x="791" y="482"/>
      <point x="872" y="589"/>
      <point x="885" y="656" type="qcurve"/>
    </contour>
    <contour>
      <point x="675" y="529"/>
      <point x="525" y="529"/>
      <point x="419" y="635"/>
      <point x="419" y="785"/>
      <point x="525" y="891"/>
      <point x="675" y="891"/>
      <point x="781" y="785"/>
      <point x="781" y="635"/>
    </contour>
  </outline>
</glyph>
<glyph name="git-branch" format="2">
  <advance width="1200"/>
  <unicode hex="F418"/>
  <note>
git-branch
</note>
  <outline>
    <contour>
      <point x="745" y="1099"/>
      <point x="826" y="986"/>
      <point x="890" y="964" type="qcurve"/>
      <point x="890" y="903" type="line" smooth="yes"/>
      <point x="890" y="863"/>
      <point x="833" y="807"/>
      <point x="793" y="807" type="qcurve" smooth="yes"/>
      <point x="697" y="807" type="line" smooth="yes"/>
      <point x="600" y="807"/>
      <point x="503" y="807" type="qcurve" smooth="yes"/>
      <point x="407" y="807" type="line" smooth="yes"/>
      <point x="406" y="807"/>
      <point x="406" y="807" type="qcurve"/>
      <point x="356" y="807"/>
      <point x="310" y="786" type="qcurve"/>
      <point x="310" y="964" type="line"/>
      <point x="374" y="986"/>
      <point x="455" y="1099"/>
      <point x="455" y="1169" type="qcurve" smooth="yes"/>
      <point x="455" y="1259"/>
      <point x="327" y="1387"/>
      <point x="148" y="1387"/>
      <point x="20" y="1259"/>
      <point x="20" y="1169" type="qcurve" smooth="yes"/>
      <point x="20" y="1099"/>
      <point x="101" y="986"/>
      <point x="165" y="964" type="qcurve"/>
      <point x="165" y="456" type="line"/>
      <point x="101" y="434"/>
      <point x="20" y="321"/>
      <point x="20" y="251" type="qcurve" smooth="yes"/>
      <point x="20" y="161"/>
      <point x="148" y="33"/>
      <point x="327" y="33"/>
      <point x="455" y="161"/>
      <point x="455" y="251" type="qcurve" smooth="yes"/>
      <point x="455" y="321"/>
      <point x="374" y="434"/>
      <point x="310" y="456" type="qcurve"/>
      <point x="310" y="565" type="line" smooth="yes"/>
      <point x="310" y="605"/>
      <point x="367" y="662"/>
      <point x="407" y="662" type="qcurve" smooth="yes"/>
      <point x="793" y="662" type="line" smooth="yes"/>
      <point x="893" y="662"/>
      <point x="1035" y="804"/>
      <point x="1035" y="903" type="qcurve" smooth="yes"/>
      <point x="1035" y="964" type="line"/>
      <point x="1099" y="986"/>
      <point x="1180" y="1099"/>
      <point x="1180" y="1169" type="qcurve" smooth="yes"/>
      <point x="1180" y="1259"/>
      <point x="1052" y="1387"/>
      <point x="873" y="1387"/>
      <point x="745" y="1259"/>
      <point x="745" y="1169" type="qcurve" smooth="yes"/>
    </contour>
    <contour>
      <point x="207" y="1242"/>
      <point x="268" y="1242"/>
      <point x="310" y="1199"/>
      <point x="310" y="1139"/>
      <point x="268" y="1097"/>
      <point x="207" y="1097"/>
      <point x="165" y="1139"/>
      <point x="165" y="1199"/>
    </contour>
    <contour>
      <point x="1035" y="1199"/>
      <point x="993" y="1242"/>
      <point x="932" y="1242"/>
      <point x="890" y="1199"/>
      <point x="890" y="1139"/>
      <point x="932" y="1097"/>
      <point x="993" y="1097"/>
      <point x="1035" y="1139"/>
    </contour>
    <contour>
      <point x="310" y="281"/>
      <point x="310" y="221"/>
      <point x="268" y="178"/>
      <point x="207" y="178"/>
      <point x="165" y="221"/>
      <point x="165" y="281"/>
      <point x="207" y="323"/>
      <point x="268" y="323"/>
    </contour>
  </outline>
</glyph>
<glyph name="git-merge" format="2">
  <advance width="1200"/>
  <unicode hex="F419"/>
  <note>
git-merge
</note>
  <outline>
    <contour>
      <point x="371" y="991"/>
      <point x="422" y="1081"/>
      <point x="422" y="1134" type="qcurve" smooth="yes"/>
      <point x="422" y="1217"/>
      <point x="304" y="1335"/>
      <point x="138" y="1335"/>
      <point x="20" y="1217"/>
      <point x="20" y="1134" type="qcurve" smooth="yes"/>
      <point x="20" y="1069"/>
      <point x="95" y="965"/>
      <point x="154" y="944" type="qcurve"/>
      <point x="154" y="476" type="line"/>
      <point x="95" y="455"/>
      <point x="20" y="351"/>
      <point x="20" y="286" type="qcurve" smooth="yes"/>
      <point x="20" y="203"/>
      <point x="138" y="85"/>
      <point x="304" y="85"/>
      <point x="422" y="203"/>
      <point x="422" y="286" type="qcurve" smooth="yes"/>
      <point x="422" y="351"/>
      <point x="347" y="455"/>
      <point x="288" y="476" type="qcurve"/>
      <point x="288" y="554" type="line" smooth="yes"/>
      <point x="288" y="632"/>
      <point x="288" y="788"/>
      <point x="288" y="788" type="qcurve"/>
      <point x="359" y="709"/>
      <point x="555" y="621"/>
      <point x="666" y="621" type="qcurve"/>
      <point x="666" y="621"/>
      <point x="667" y="621" type="qcurve" smooth="yes"/>
      <point x="790" y="621" type="line"/>
      <point x="811" y="562"/>
      <point x="914" y="487"/>
      <point x="979" y="487" type="qcurve" smooth="yes"/>
      <point x="1062" y="487"/>
      <point x="1180" y="605"/>
      <point x="1180" y="771"/>
      <point x="1062" y="888"/>
      <point x="979" y="888" type="qcurve" smooth="yes"/>
      <point x="914" y="888"/>
      <point x="811" y="814"/>
      <point x="790" y="755" type="qcurve"/>
      <point x="667" y="755" type="line" smooth="yes"/>
      <point x="557" y="755"/>
      <point x="376" y="869"/>
      <point x="328" y="964" type="qcurve"/>
    </contour>
    <contour>
      <point x="154" y="258"/>
      <point x="154" y="314"/>
      <point x="193" y="353"/>
      <point x="249" y="353"/>
      <point x="288" y="314"/>
      <point x="288" y="258"/>
      <point x="249" y="219"/>
      <point x="193" y="219"/>
    </contour>
    <contour>
      <point x="912" y="660"/>
      <point x="912" y="716"/>
      <point x="951" y="755"/>
      <point x="1007" y="755"/>
      <point x="1046" y="716"/>
      <point x="1046" y="660"/>
      <point x="1007" y="621"/>
      <point x="951" y="621"/>
    </contour>
    <contour>
      <point x="288" y="1133" type="qcurve" smooth="yes"/>
      <point x="288" y="1134" type="line" smooth="yes"/>
      <point x="288" y="1162"/>
      <point x="249" y="1201"/>
      <point x="193" y="1201"/>
      <point x="154" y="1161"/>
      <point x="154" y="1106"/>
      <point x="193" y="1067"/>
      <point x="249" y="1067"/>
      <point x="288" y="1106"/>
    </contour>
  </outline>
</glyph>
<glyph name="mirror" format="2">
  <advance width="1200"/>
  <unicode hex="F41A"/>
  <note>
mirror
</note>
  <outline>
    <contour>
      <point x="1137" y="1073"/>
      <point x="1126" y="1073" type="qcurve" smooth="yes"/>
      <point x="1104" y="1073"/>
      <point x="1088" y="1058" type="qcurve" smooth="yes"/>
      <point x="762" y="750" type="line" smooth="yes"/>
      <point x="745" y="733"/>
      <point x="745" y="687"/>
      <point x="762" y="670" type="qcurve" smooth="yes"/>
      <point x="844" y="593" type="line" smooth="yes"/>
      <point x="925" y="516"/>
      <point x="1088" y="362"/>
      <point x="1088" y="362" type="qcurve"/>
      <point x="1104" y="348"/>
      <point x="1126" y="348" type="qcurve" smooth="yes"/>
      <point x="1148" y="348"/>
      <point x="1180" y="379"/>
      <point x="1180" y="402" type="qcurve" smooth="yes"/>
      <point x="1180" y="1018" type="line" smooth="yes"/>
      <point x="1180" y="1035"/>
      <point x="1162" y="1062"/>
      <point x="1147" y="1068" type="qcurve" smooth="yes"/>
    </contour>
    <contour>
      <point x="20" y="379"/>
      <point x="52" y="348"/>
      <point x="74" y="348" type="qcurve" smooth="yes"/>
      <point x="96" y="348"/>
      <point x="112" y="362" type="qcurve" smooth="yes"/>
      <point x="438" y="670" type="line" smooth="yes"/>
      <point x="455" y="687"/>
      <point x="455" y="733"/>
      <point x="438" y="750" type="qcurve" smooth="yes"/>
      <point x="356" y="827" type="line" smooth="yes"/>
      <point x="275" y="904"/>
      <point x="112" y="1058"/>
      <point x="112" y="1058" type="qcurve"/>
      <point x="96" y="1073"/>
      <point x="74" y="1073" type="qcurve" smooth="yes"/>
      <point x="52" y="1073"/>
      <point x="20" y="1041"/>
      <point x="20" y="1018" type="qcurve" smooth="yes"/>
      <point x="20" y="402" type="line" smooth="yes"/>
    </contour>
    <contour>
      <point x="321" y="710" type="line"/>
      <point x="129" y="892" type="line"/>
      <point x="129" y="528" type="line"/>
    </contour>
    <contour>
      <point x="1071" y="892" type="line"/>
      <point x="1071" y="528" type="line"/>
      <point x="879" y="710" type="line"/>
    </contour>
    <contour>
      <point x="546" y="968"/>
      <point x="546" y="946" type="qcurve" smooth="yes"/>
      <point x="546" y="909" type="line" smooth="yes"/>
      <point x="546" y="887"/>
      <point x="577" y="855"/>
      <point x="623" y="855"/>
      <point x="654" y="887"/>
      <point x="654" y="909" type="qcurve" smooth="yes"/>
      <point x="654" y="946" type="line" smooth="yes"/>
      <point x="654" y="968"/>
      <point x="623" y="1000"/>
      <point x="577" y="1000"/>
    </contour>
    <contour>
      <point x="654" y="1186"/>
      <point x="623" y="1218"/>
      <point x="577" y="1218"/>
      <point x="546" y="1186"/>
      <point x="546" y="1163" type="qcurve" smooth="yes"/>
      <point x="546" y="1127" type="line" smooth="yes"/>
      <point x="546" y="1104"/>
      <point x="577" y="1073"/>
      <point x="623" y="1073"/>
      <point x="654" y="1104"/>
      <point x="654" y="1127" type="qcurve" smooth="yes"/>
      <point x="654" y="1163" type="line" smooth="yes"/>
    </contour>
    <contour>
      <point x="654" y="751"/>
      <point x="623" y="783"/>
      <point x="577" y="783"/>
      <point x="546" y="751"/>
      <point x="546" y="728" type="qcurve" smooth="yes"/>
      <point x="546" y="692" type="line" smooth="yes"/>
      <point x="546" y="669"/>
      <point x="577" y="638"/>
      <point x="623" y="638"/>
      <point x="654" y="669"/>
      <point x="654" y="692" type="qcurve" smooth="yes"/>
      <point x="654" y="728" type="line" smooth="yes"/>
    </contour>
    <contour>
      <point x="546" y="533"/>
      <point x="546" y="511" type="qcurve" smooth="yes"/>
      <point x="546" y="474" type="line" smooth="yes"/>
      <point x="546" y="452"/>
      <point x="577" y="420"/>
      <point x="623" y="420"/>
      <point x="654" y="452"/>
      <point x="654" y="474" type="qcurve" smooth="yes"/>
      <point x="654" y="511" type="line" smooth="yes"/>
      <point x="654" y="533"/>
      <point x="623" y="565"/>
      <point x="577" y="565"/>
    </contour>
    <contour>
      <point x="546" y="316"/>
      <point x="546" y="293" type="qcurve" smooth="yes"/>
      <point x="546" y="257" type="line" smooth="yes"/>
      <point x="546" y="234"/>
      <point x="577" y="203"/>
      <point x="623" y="203"/>
      <point x="654" y="234"/>
      <point x="654" y="257" type="qcurve" smooth="yes"/>
      <point x="654" y="293" type="line" smooth="yes"/>
      <point x="654" y="316"/>
      <point x="623" y="348"/>
      <point x="577" y="348"/>
    </contour>
  </outline>
</glyph>
<glyph name="issue-opened" format="2">
  <advance width="1200"/>
  <unicode hex="F41B"/>
  <note>
issue-opened
</note>
  <outline>
    <contour>
      <point x="709" y="665"/>
      <point x="709" y="755"/>
      <point x="645" y="819"/>
      <point x="555" y="819"/>
      <point x="491" y="755"/>
      <point x="491" y="665"/>
      <point x="555" y="601"/>
      <point x="645" y="601"/>
    </contour>
    <contour>
      <point x="268" y="1198"/>
      <point x="112" y="1042"/>
      <point x="20" y="828"/>
      <point x="20" y="592"/>
      <point x="112" y="378"/>
      <point x="268" y="222"/>
      <point x="482" y="130"/>
      <point x="718" y="130"/>
      <point x="932" y="222"/>
      <point x="1088" y="378"/>
      <point x="1180" y="592"/>
      <point x="1180" y="828"/>
      <point x="1088" y="1042"/>
      <point x="932" y="1198"/>
      <point x="718" y="1290"/>
      <point x="482" y="1290"/>
    </contour>
    <contour>
      <point x="204" y="980"/>
      <point x="330" y="1106"/>
      <point x="504" y="1181"/>
      <point x="696" y="1181"/>
      <point x="870" y="1106"/>
      <point x="996" y="980"/>
      <point x="1071" y="806"/>
      <point x="1071" y="614"/>
      <point x="996" y="440"/>
      <point x="870" y="314"/>
      <point x="696" y="239"/>
      <point x="504" y="239"/>
      <point x="330" y="314"/>
      <point x="204" y="440"/>
      <point x="129" y="614"/>
      <point x="129" y="806"/>
    </contour>
  </outline>
</glyph>
<glyph name="issue-reopened" format="2">
  <advance width="1200"/>
  <unicode hex="F41C"/>
  <note>
issue-reopened
</note>
  <outline>
    <contour>
      <point x="486" y="1181"/>
      <point x="599" y="1181" type="qcurve" smooth="yes"/>
      <point x="689" y="1181"/>
      <point x="854" y="1116"/>
      <point x="978" y="1003"/>
      <point x="1060" y="847"/>
      <point x="1069" y="759" type="qcurve" smooth="yes"/>
      <point x="1071" y="738"/>
      <point x="1102" y="709"/>
      <point x="1123" y="709" type="qcurve" smooth="yes"/>
      <point x="1145" y="709"/>
      <point x="1177" y="741"/>
      <point x="1177" y="764" type="qcurve" smooth="yes"/>
      <point x="1177" y="767"/>
      <point x="1177" y="770" type="qcurve" smooth="yes"/>
      <point x="1169" y="842"/>
      <point x="1119" y="977"/>
      <point x="1042" y="1092"/>
      <point x="937" y="1186"/>
      <point x="815" y="1253"/>
      <point x="674" y="1289"/>
      <point x="600" y="1289" type="qcurve" smooth="yes"/>
      <point x="461" y="1289"/>
      <point x="220" y="1168"/>
      <point x="139" y="1062" type="qcurve"/>
      <point x="139" y="1062"/>
      <point x="113" y="1087"/>
      <point x="75" y="1126"/>
      <point x="56" y="1144"/>
      <point x="51" y="1150" type="qcurve" smooth="yes"/>
      <point x="45" y="1156"/>
      <point x="31" y="1156"/>
      <point x="20" y="1145"/>
      <point x="20" y="1138" type="qcurve"/>
      <point x="20" y="1138"/>
      <point x="20" y="1061"/>
      <point x="20" y="944"/>
      <point x="20" y="890"/>
      <point x="20" y="873" type="qcurve" smooth="yes"/>
      <point x="20" y="866"/>
      <point x="31" y="855"/>
      <point x="38" y="855" type="qcurve" smooth="yes"/>
      <point x="303" y="855" type="line" smooth="yes"/>
      <point x="310" y="855"/>
      <point x="321" y="866"/>
      <point x="321" y="880"/>
      <point x="315" y="886" type="qcurve" smooth="yes"/>
      <point x="217" y="984" type="line"/>
      <point x="283" y="1077"/>
      <point x="385" y="1129" type="qcurve" smooth="yes"/>
    </contour>
    <contour>
      <point x="96" y="710"/>
      <point x="77" y="710" type="qcurve" smooth="yes"/>
      <point x="55" y="710"/>
      <point x="23" y="678"/>
      <point x="23" y="656" type="qcurve" smooth="yes"/>
      <point x="23" y="652"/>
      <point x="23" y="650" type="qcurve" smooth="yes"/>
      <point x="31" y="578"/>
      <point x="81" y="443"/>
      <point x="158" y="329"/>
      <point x="263" y="234"/>
      <point x="385" y="167"/>
      <point x="526" y="131"/>
      <point x="600" y="131" type="qcurve" smooth="yes"/>
      <point x="739" y="131"/>
      <point x="980" y="252"/>
      <point x="1061" y="358" type="qcurve"/>
      <point x="1061" y="358"/>
      <point x="1087" y="333"/>
      <point x="1125" y="294"/>
      <point x="1144" y="276"/>
      <point x="1149" y="270" type="qcurve" smooth="yes"/>
      <point x="1155" y="264"/>
      <point x="1169" y="264"/>
      <point x="1180" y="275"/>
      <point x="1180" y="282" type="qcurve"/>
      <point x="1180" y="282"/>
      <point x="1180" y="359"/>
      <point x="1180" y="476"/>
      <point x="1180" y="530"/>
      <point x="1180" y="547" type="qcurve" smooth="yes"/>
      <point x="1180" y="554"/>
      <point x="1169" y="565"/>
      <point x="1162" y="565" type="qcurve" smooth="yes"/>
      <point x="897" y="565" type="line" smooth="yes"/>
      <point x="890" y="565"/>
      <point x="879" y="554"/>
      <point x="879" y="540"/>
      <point x="885" y="534" type="qcurve" smooth="yes"/>
      <point x="983" y="436" type="line"/>
      <point x="918" y="344"/>
      <point x="716" y="238"/>
      <point x="600" y="238" type="qcurve" smooth="yes"/>
      <point x="510" y="238"/>
      <point x="345" y="304"/>
      <point x="222" y="417"/>
      <point x="141" y="573"/>
      <point x="131" y="661" type="qcurve" smooth="yes"/>
      <point x="129" y="683"/>
      <point x="112" y="698" type="qcurve" smooth="yes"/>
    </contour>
    <contour>
      <point x="706" y="665"/>
      <point x="706" y="707" type="qcurve" smooth="yes"/>
      <point x="706" y="752"/>
      <point x="642" y="816"/>
      <point x="597" y="816" type="qcurve" smooth="yes"/>
      <point x="555" y="816"/>
      <point x="523" y="787" type="qcurve" smooth="yes"/>
      <point x="488" y="755"/>
      <point x="488" y="707" type="qcurve" smooth="yes"/>
      <point x="488" y="662"/>
      <point x="552" y="598"/>
      <point x="597" y="598" type="qcurve" smooth="yes"/>
      <point x="645" y="598"/>
      <point x="677" y="633" type="qcurve" smooth="yes"/>
    </contour>
  </outline>
</glyph>
<glyph name="issue-closed" format="2">
  <advance width="1200"/>
  <unicode hex="F41D"/>
  <note>
issue-closed
</note>
  <outline>
    <contour>
      <point x="853" y="814"/>
      <point x="853" y="836" type="qcurve" smooth="yes"/>
      <point x="853" y="858"/>
      <point x="820" y="890"/>
      <point x="798" y="890" type="qcurve" smooth="yes"/>
      <point x="777" y="890"/>
      <point x="761" y="875" type="qcurve" smooth="yes"/>
      <point x="546" y="660" type="line"/>
      <point x="439" y="767" type="line" smooth="yes"/>
      <point x="423" y="781"/>
      <point x="402" y="781" type="qcurve" smooth="yes"/>
      <point x="380" y="781"/>
      <point x="347" y="749"/>
      <point x="347" y="727" type="qcurve" smooth="yes"/>
      <point x="347" y="705"/>
      <point x="362" y="690" type="qcurve" smooth="yes"/>
      <point x="507" y="545" type="line" smooth="yes"/>
      <point x="523" y="529"/>
      <point x="568" y="529"/>
      <point x="584" y="545" type="qcurve"/>
      <point x="584" y="545"/>
      <point x="658" y="619"/>
      <point x="769" y="730"/>
      <point x="822" y="783"/>
      <point x="838" y="798" type="qcurve" smooth="yes"/>
    </contour>
    <contour>
      <point x="1088" y="1042"/>
      <point x="932" y="1198"/>
      <point x="718" y="1290"/>
      <point x="482" y="1290"/>
      <point x="268" y="1198"/>
      <point x="112" y="1042"/>
      <point x="20" y="828"/>
      <point x="20" y="592"/>
      <point x="112" y="378"/>
      <point x="268" y="222"/>
      <point x="482" y="130"/>
      <point x="718" y="130"/>
      <point x="932" y="222"/>
      <point x="1088" y="378"/>
      <point x="1180" y="592"/>
      <point x="1180" y="828"/>
    </contour>
    <contour>
      <point x="996" y="440"/>
      <point x="870" y="314"/>
      <point x="696" y="239"/>
      <point x="504" y="239"/>
      <point x="330" y="314"/>
      <point x="204" y="440"/>
      <point x="129" y="614"/>
      <point x="129" y="806"/>
      <point x="204" y="980"/>
      <point x="330" y="1106"/>
      <point x="504" y="1181"/>
      <point x="696" y="1181"/>
      <point x="870" y="1106"/>
      <point x="996" y="980"/>
      <point x="1071" y="806"/>
      <point x="1071" y="614"/>
    </contour>
  </outline>
</glyph>
<glyph name="star" format="2">
  <advance width="1200"/>
  <unicode hex="F41E"/>
  <note>
star
</note>
  <outline>
    <contour>
      <point x="555" y="1247"/>
      <point x="547" y="1232" type="qcurve" smooth="yes"/>
      <point x="400" y="933" type="line"/>
      <point x="317" y="921" type="line" smooth="yes"/>
      <point x="235" y="909"/>
      <point x="70" y="885"/>
      <point x="70" y="885" type="qcurve"/>
      <point x="49" y="882"/>
      <point x="20" y="849"/>
      <point x="20" y="827" type="qcurve" smooth="yes"/>
      <point x="20" y="802"/>
      <point x="38" y="785" type="qcurve" smooth="yes"/>
      <point x="276" y="552" type="line"/>
      <point x="220" y="224" type="line"/>
      <point x="219" y="220"/>
      <point x="219" y="214" type="qcurve" smooth="yes"/>
      <point x="219" y="190"/>
      <point x="254" y="155"/>
      <point x="278" y="155" type="qcurve" smooth="yes"/>
      <point x="292" y="155"/>
      <point x="305" y="162" type="qcurve" smooth="yes"/>
      <point x="600" y="318" type="line"/>
      <point x="674" y="278" type="line" smooth="yes"/>
      <point x="747" y="240"/>
      <point x="895" y="162"/>
      <point x="895" y="162" type="qcurve"/>
      <point x="908" y="155"/>
      <point x="922" y="155" type="qcurve" smooth="yes"/>
      <point x="946" y="155"/>
      <point x="981" y="190"/>
      <point x="981" y="214" type="qcurve" smooth="yes"/>
      <point x="981" y="219"/>
      <point x="980" y="224" type="qcurve" smooth="yes"/>
      <point x="924" y="552" type="line"/>
      <point x="1162" y="785" type="line" smooth="yes"/>
      <point x="1180" y="802"/>
      <point x="1180" y="827" type="qcurve" smooth="yes"/>
      <point x="1180" y="849"/>
      <point x="1151" y="882"/>
      <point x="1130" y="885" type="qcurve" smooth="yes"/>
      <point x="800" y="933" type="line"/>
      <point x="653" y="1232" type="line" smooth="yes"/>
      <point x="645" y="1247"/>
      <point x="617" y="1265"/>
      <point x="583" y="1265"/>
    </contour>
    <contour>
      <point x="708" y="853" type="line" smooth="yes"/>
      <point x="722" y="826"/>
      <point x="752" y="821" type="qcurve" smooth="yes"/>
      <point x="995" y="786" type="line"/>
      <point x="820" y="615" type="line" smooth="yes"/>
      <point x="802" y="598"/>
      <point x="802" y="573" type="qcurve" smooth="yes"/>
      <point x="802" y="568"/>
      <point x="803" y="563" type="qcurve" smooth="yes"/>
      <point x="844" y="322" type="line"/>
      <point x="790" y="350" type="line" smooth="yes"/>
      <point x="736" y="379"/>
      <point x="628" y="436"/>
      <point x="628" y="436" type="qcurve"/>
      <point x="615" y="442"/>
      <point x="585" y="442"/>
      <point x="572" y="436" type="qcurve" smooth="yes"/>
      <point x="356" y="322" type="line"/>
      <point x="397" y="563" type="line" smooth="yes"/>
      <point x="398" y="568"/>
      <point x="398" y="573" type="qcurve" smooth="yes"/>
      <point x="398" y="598"/>
      <point x="380" y="615" type="qcurve" smooth="yes"/>
      <point x="205" y="786" type="line"/>
      <point x="265" y="795" type="line" smooth="yes"/>
      <point x="326" y="804"/>
      <point x="448" y="821"/>
      <point x="448" y="822" type="qcurve"/>
      <point x="478" y="826"/>
      <point x="492" y="853" type="qcurve" smooth="yes"/>
      <point x="600" y="1073" type="line"/>
    </contour>
  </outline>
</glyph>
<glyph name="comment" format="2">
  <advance width="1200"/>
  <unicode hex="F41F"/>
  <note>
comment
</note>
  <outline>
    <contour>
      <point x="20" y="524" type="line" smooth="yes"/>
      <point x="20" y="463"/>
      <point x="105" y="379"/>
      <point x="165" y="379" type="qcurve" smooth="yes"/>
      <point x="269" y="379" type="line"/>
      <point x="269" y="347" type="line" smooth="yes"/>
      <point x="269" y="314"/>
      <point x="269" y="250"/>
      <point x="269" y="250" type="qcurve"/>
      <point x="269" y="201"/>
      <point x="340" y="130"/>
      <point x="439" y="130"/>
      <point x="474" y="166" type="qcurve" smooth="yes"/>
      <point x="688" y="379" type="line"/>
      <point x="1035" y="379" type="line" smooth="yes"/>
      <point x="1095" y="379"/>
      <point x="1180" y="463"/>
      <point x="1180" y="524" type="qcurve" smooth="yes"/>
      <point x="1180" y="1145" type="line" smooth="yes"/>
      <point x="1180" y="1205"/>
      <point x="1095" y="1290"/>
      <point x="1035" y="1290" type="qcurve" smooth="yes"/>
      <point x="165" y="1290" type="line" smooth="yes"/>
      <point x="105" y="1290"/>
      <point x="20" y="1205"/>
      <point x="20" y="1145" type="qcurve" smooth="yes"/>
    </contour>
    <contour>
      <point x="1035" y="1166" type="line" smooth="yes"/>
      <point x="1043" y="1166"/>
      <point x="1056" y="1153"/>
      <point x="1056" y="1145" type="qcurve" smooth="yes"/>
      <point x="1056" y="524" type="line" smooth="yes"/>
      <point x="1056" y="515"/>
      <point x="1043" y="503"/>
      <point x="1035" y="503" type="qcurve" smooth="yes"/>
      <point x="942" y="503" type="line" smooth="yes"/>
      <point x="849" y="503"/>
      <point x="755" y="503" type="qcurve" smooth="yes"/>
      <point x="662" y="503" type="line" smooth="yes"/>
      <point x="636" y="503"/>
      <point x="618" y="485" type="qcurve" smooth="yes"/>
      <point x="393" y="259" type="line"/>
      <point x="393" y="441" type="line" smooth="yes"/>
      <point x="393" y="467"/>
      <point x="357" y="503"/>
      <point x="331" y="503" type="qcurve" smooth="yes"/>
      <point x="165" y="503" type="line" smooth="yes"/>
      <point x="157" y="503"/>
      <point x="144" y="515"/>
      <point x="144" y="524" type="qcurve" smooth="yes"/>
      <point x="144" y="1145" type="line" smooth="yes"/>
      <point x="144" y="1153"/>
      <point x="157" y="1166"/>
      <point x="165" y="1166" type="qcurve" smooth="yes"/>
    </contour>
  </outline>
</glyph>
<glyph name="question" format="2">
  <advance width="1200"/>
  <unicode hex="F420"/>
  <note>
question
</note>
  <outline>
    <contour>
      <point x="112" y="378"/>
      <point x="268" y="222"/>
      <point x="482" y="130"/>
      <point x="718" y="130"/>
      <point x="932" y="222"/>
      <point x="1088" y="378"/>
      <point x="1180" y="592"/>
      <point x="1180" y="828"/>
      <point x="1088" y="1042"/>
      <point x="932" y="1198"/>
      <point x="718" y="1290"/>
      <point x="482" y="1290"/>
      <point x="268" y="1198"/>
      <point x="112" y="1042"/>
      <point x="20" y="828"/>
      <point x="20" y="592"/>
    </contour>
    <contour>
      <point x="870" y="1106"/>
      <point x="996" y="980"/>
      <point x="1071" y="806"/>
      <point x="1071" y="614"/>
      <point x="996" y="440"/>
      <point x="870" y="314"/>
      <point x="696" y="239"/>
      <point x="504" y="239"/>
      <point x="330" y="314"/>
      <point x="204" y="440"/>
      <point x="129" y="614"/>
      <point x="129" y="806"/>
      <point x="204" y="980"/>
      <point x="330" y="1106"/>
      <point x="504" y="1181"/>
      <point x="696" y="1181"/>
    </contour>
    <contour>
      <point x="530" y="866"/>
      <point x="546" y="878" type="qcurve" smooth="yes"/>
      <point x="567" y="891"/>
      <point x="600" y="891" type="qcurve"/>
      <point x="600" y="891"/>
      <point x="601" y="891"/>
      <point x="601" y="891" type="qcurve"/>
      <point x="630" y="891"/>
      <point x="653" y="875" type="qcurve" smooth="yes"/>
      <point x="673" y="862"/>
      <point x="673" y="839" type="qcurve" smooth="yes"/>
      <point x="673" y="837"/>
      <point x="673" y="837" type="qcurve" smooth="yes"/>
      <point x="673" y="822"/>
      <point x="667" y="814" type="qcurve" smooth="yes"/>
      <point x="658" y="803"/>
      <point x="647" y="796" type="qcurve" smooth="yes"/>
      <point x="642" y="793"/>
      <point x="628" y="784" type="qcurve"/>
      <point x="628" y="784" type="line"/>
      <point x="616" y="777"/>
      <point x="605" y="770" type="qcurve" smooth="yes"/>
      <point x="575" y="751"/>
      <point x="555" y="722" type="qcurve" smooth="yes"/>
      <point x="546" y="708"/>
      <point x="546" y="692" type="qcurve" smooth="yes"/>
      <point x="546" y="670"/>
      <point x="578" y="638"/>
      <point x="601" y="638" type="qcurve" smooth="yes"/>
      <point x="629" y="638"/>
      <point x="645" y="662" type="qcurve" smooth="yes"/>
      <point x="653" y="673"/>
      <point x="665" y="679" type="qcurve" smooth="yes"/>
      <point x="675" y="686"/>
      <point x="684" y="691" type="qcurve"/>
      <point x="684" y="691" type="line"/>
      <point x="703" y="702"/>
      <point x="707" y="705" type="qcurve" smooth="yes"/>
      <point x="740" y="728"/>
      <point x="757" y="754" type="qcurve" smooth="yes"/>
      <point x="781" y="789"/>
      <point x="781" y="837" type="qcurve" smooth="yes"/>
      <point x="781" y="877"/>
      <point x="747" y="941"/>
      <point x="719" y="962" type="qcurve" smooth="yes"/>
      <point x="666" y="1000"/>
      <point x="601" y="1000" type="qcurve" smooth="yes"/>
      <point x="601" y="1000"/>
      <point x="600" y="1000" type="qcurve" smooth="yes"/>
      <point x="534" y="1000"/>
      <point x="486" y="968" type="qcurve" smooth="yes"/>
      <point x="447" y="942"/>
      <point x="424" y="897" type="qcurve" smooth="yes"/>
      <point x="419" y="886"/>
      <point x="419" y="873" type="qcurve" smooth="yes"/>
      <point x="419" y="850"/>
      <point x="450" y="819"/>
      <point x="473" y="819" type="qcurve" smooth="yes"/>
      <point x="489" y="819"/>
      <point x="515" y="835"/>
      <point x="522" y="849" type="qcurve" smooth="yes"/>
    </contour>
    <contour>
      <point x="630" y="565"/>
      <point x="570" y="565"/>
      <point x="528" y="523"/>
      <point x="528" y="462"/>
      <point x="570" y="420"/>
      <point x="630" y="420"/>
      <point x="673" y="462"/>
      <point x="673" y="523"/>
    </contour>
  </outline>
</glyph>
<glyph name="alert" format="2">
  <advance width="1200"/>
  <unicode hex="F421"/>
  <note>
alert
</note>
  <outline>
    <contour>
      <point x="373" y="982" type="line" smooth="yes"/>
      <point x="260" y="771"/>
      <point x="35" y="349"/>
      <point x="35" y="350" type="qcurve"/>
      <point x="20" y="321"/>
      <point x="20" y="289" type="qcurve" smooth="yes"/>
      <point x="20" y="235"/>
      <point x="96" y="159"/>
      <point x="150" y="159" type="qcurve" smooth="yes"/>
      <point x="1050" y="159" type="line" smooth="yes"/>
      <point x="1104" y="159"/>
      <point x="1180" y="235"/>
      <point x="1180" y="289" type="qcurve" smooth="yes"/>
      <point x="1180" y="321"/>
      <point x="1165" y="350" type="qcurve" smooth="yes"/>
      <point x="715" y="1193" type="line" smooth="yes"/>
      <point x="700" y="1219"/>
      <point x="653" y="1254"/>
      <point x="600" y="1263"/>
      <point x="547" y="1254"/>
      <point x="500" y="1219"/>
      <point x="485" y="1193" type="qcurve" smooth="yes"/>
    </contour>
    <contour>
      <point x="729" y="929" type="line" smooth="yes"/>
      <point x="841" y="719"/>
      <point x="1067" y="297"/>
      <point x="1067" y="297" type="qcurve"/>
      <point x="1069" y="293"/>
      <point x="1069" y="289" type="qcurve" smooth="yes"/>
      <point x="1069" y="281"/>
      <point x="1058" y="270"/>
      <point x="1050" y="270" type="qcurve" smooth="yes"/>
      <point x="150" y="270" type="line" smooth="yes"/>
      <point x="142" y="270"/>
      <point x="131" y="281"/>
      <point x="131" y="289" type="qcurve" smooth="yes"/>
      <point x="131" y="293"/>
      <point x="133" y="297" type="qcurve" smooth="yes"/>
      <point x="584" y="1140" type="line" smooth="yes"/>
      <point x="589" y="1150"/>
      <point x="611" y="1150"/>
      <point x="616" y="1140" type="qcurve" smooth="yes"/>
    </contour>
    <contour>
      <point x="656" y="867"/>
      <point x="623" y="900"/>
      <point x="577" y="900"/>
      <point x="544" y="867"/>
      <point x="544" y="844" type="qcurve" smooth="yes"/>
      <point x="544" y="659" type="line" smooth="yes"/>
      <point x="544" y="636"/>
      <point x="577" y="603"/>
      <point x="623" y="603"/>
      <point x="656" y="636"/>
      <point x="656" y="659" type="qcurve" smooth="yes"/>
      <point x="656" y="844" type="line" smooth="yes"/>
    </contour>
    <contour>
      <point x="631" y="529"/>
      <point x="569" y="529"/>
      <point x="526" y="486"/>
      <point x="526" y="425"/>
      <point x="569" y="381"/>
      <point x="631" y="381"/>
      <point x="674" y="425"/>
      <point x="674" y="486"/>
    </contour>
  </outline>
</glyph>
<glyph name="search" format="2">
  <advance width="1200"/>
  <unicode hex="F422"/>
  <note>
search
</note>
  <outline>
    <contour>
      <point x="1072" y="149" type="line" smooth="yes"/>
      <point x="1091" y="130"/>
      <point x="1117" y="130" type="qcurve" smooth="yes"/>
      <point x="1125" y="130"/>
      <point x="1133" y="132" type="qcurve" smooth="yes"/>
      <point x="1153" y="137"/>
      <point x="1180" y="170"/>
      <point x="1180" y="192" type="qcurve" smooth="yes"/>
      <point x="1180" y="219"/>
      <point x="1160" y="237" type="qcurve" smooth="yes"/>
      <point x="1097" y="300" type="line" smooth="yes"/>
      <point x="1034" y="363"/>
      <point x="908" y="489"/>
      <point x="908" y="489" type="qcurve"/>
      <point x="958" y="553"/>
      <point x="1013" y="709"/>
      <point x="1013" y="793" type="qcurve" smooth="yes"/>
      <point x="1013" y="894"/>
      <point x="934" y="1079"/>
      <point x="800" y="1211"/>
      <point x="617" y="1290"/>
      <point x="415" y="1290"/>
      <point x="233" y="1213"/>
      <point x="96" y="1076"/>
      <point x="20" y="895"/>
      <point x="20" y="693"/>
      <point x="98" y="509"/>
      <point x="231" y="376"/>
      <point x="416" y="297"/>
      <point x="517" y="297" type="qcurve" smooth="yes"/>
      <point x="601" y="297"/>
      <point x="756" y="351"/>
      <point x="820" y="401" type="qcurve"/>
    </contour>
    <contour>
      <point x="887" y="718"/>
      <point x="828" y="583"/>
      <point x="728" y="485"/>
      <point x="591" y="427"/>
      <point x="441" y="427"/>
      <point x="305" y="485"/>
      <point x="205" y="583"/>
      <point x="145" y="718"/>
      <point x="144" y="793" type="qcurve" smooth="yes"/>
      <point x="144" y="796"/>
      <point x="144" y="799" type="qcurve" smooth="yes"/>
      <point x="144" y="875"/>
      <point x="203" y="1013"/>
      <point x="303" y="1112"/>
      <point x="440" y="1172"/>
      <point x="592" y="1172"/>
      <point x="730" y="1112"/>
      <point x="830" y="1013"/>
      <point x="888" y="875"/>
      <point x="888" y="799" type="qcurve" smooth="yes"/>
      <point x="888" y="796"/>
      <point x="888" y="793" type="qcurve" smooth="yes"/>
    </contour>
  </outline>
</glyph>
<glyph name="gear" format="2">
  <advance width="1200"/>
  <unicode hex="F423"/>
  <note>
gear
</note>
  <outline>
    <contour>
      <point x="572" y="1337"/>
      <point x="545" y="1334" type="qcurve" smooth="yes"/>
      <point x="503" y="1331"/>
      <point x="441" y="1275"/>
      <point x="431" y="1236" type="qcurve" smooth="yes"/>
      <point x="408" y="1149" type="line" smooth="yes"/>
      <point x="405" y="1138"/>
      <point x="392" y="1132" type="qcurve" smooth="yes"/>
      <point x="364" y="1118"/>
      <point x="339" y="1101" type="qcurve" smooth="yes"/>
      <point x="326" y="1093"/>
      <point x="316" y="1096" type="qcurve" smooth="yes"/>
      <point x="230" y="1119" type="line" smooth="yes"/>
      <point x="190" y="1130"/>
      <point x="111" y="1105"/>
      <point x="87" y="1070" type="qcurve" smooth="yes"/>
      <point x="55" y="1025"/>
      <point x="31" y="974" type="qcurve" smooth="yes"/>
      <point x="14" y="934"/>
      <point x="31" y="855"/>
      <point x="60" y="826" type="qcurve" smooth="yes"/>
      <point x="124" y="763" type="line" smooth="yes"/>
      <point x="132" y="756"/>
      <point x="131" y="740" type="qcurve" smooth="yes"/>
      <point x="130" y="725"/>
      <point x="130" y="711" type="qcurve" smooth="yes"/>
      <point x="130" y="695"/>
      <point x="131" y="680" type="qcurve" smooth="yes"/>
      <point x="132" y="664"/>
      <point x="124" y="657" type="qcurve" smooth="yes"/>
      <point x="60" y="594" type="line" smooth="yes"/>
      <point x="31" y="565"/>
      <point x="14" y="486"/>
      <point x="31" y="446" type="qcurve" smooth="yes"/>
      <point x="55" y="395"/>
      <point x="87" y="350" type="qcurve" smooth="yes"/>
      <point x="111" y="315"/>
      <point x="190" y="290"/>
      <point x="230" y="301" type="qcurve" smooth="yes"/>
      <point x="316" y="324" type="line" smooth="yes"/>
      <point x="326" y="327"/>
      <point x="339" y="319" type="qcurve" smooth="yes"/>
      <point x="364" y="302"/>
      <point x="392" y="288" type="qcurve" smooth="yes"/>
      <point x="405" y="282"/>
      <point x="408" y="271" type="qcurve" smooth="yes"/>
      <point x="431" y="184" type="line" smooth="yes"/>
      <point x="441" y="145"/>
      <point x="503" y="89"/>
      <point x="545" y="86" type="qcurve" smooth="yes"/>
      <point x="572" y="83"/>
      <point x="599" y="83" type="qcurve" smooth="yes"/>
      <point x="628" y="83"/>
      <point x="655" y="86" type="qcurve" smooth="yes"/>
      <point x="697" y="89"/>
      <point x="759" y="145"/>
      <point x="769" y="184" type="qcurve" smooth="yes"/>
      <point x="792" y="271" type="line" smooth="yes"/>
      <point x="795" y="282"/>
      <point x="808" y="288" type="qcurve" smooth="yes"/>
      <point x="836" y="302"/>
      <point x="861" y="319" type="qcurve" smooth="yes"/>
      <point x="874" y="327"/>
      <point x="884" y="324" type="qcurve" smooth="yes"/>
      <point x="970" y="301" type="line" smooth="yes"/>
      <point x="1010" y="290"/>
      <point x="1089" y="315"/>
      <point x="1113" y="350" type="qcurve" smooth="yes"/>
      <point x="1145" y="395"/>
      <point x="1169" y="446" type="qcurve" smooth="yes"/>
      <point x="1186" y="486"/>
      <point x="1169" y="565"/>
      <point x="1140" y="594" type="qcurve" smooth="yes"/>
      <point x="1076" y="657" type="line" smooth="yes"/>
      <point x="1068" y="664"/>
      <point x="1069" y="680" type="qcurve" smooth="yes"/>
      <point x="1071" y="710"/>
      <point x="1069" y="740" type="qcurve" smooth="yes"/>
      <point x="1068" y="755"/>
      <point x="1076" y="763" type="qcurve" smooth="yes"/>
      <point x="1140" y="826" type="line" smooth="yes"/>
      <point x="1169" y="855"/>
      <point x="1186" y="934"/>
      <point x="1169" y="974" type="qcurve" smooth="yes"/>
      <point x="1145" y="1025"/>
      <point x="1113" y="1070" type="qcurve" smooth="yes"/>
      <point x="1089" y="1105"/>
      <point x="1010" y="1130"/>
      <point x="970" y="1119" type="qcurve" smooth="yes"/>
      <point x="884" y="1096" type="line" smooth="yes"/>
      <point x="874" y="1093"/>
      <point x="861" y="1101" type="qcurve" smooth="yes"/>
      <point x="836" y="1118"/>
      <point x="808" y="1132" type="qcurve" smooth="yes"/>
      <point x="795" y="1138"/>
      <point x="792" y="1149" type="qcurve" smooth="yes"/>
      <point x="769" y="1236" type="line" smooth="yes"/>
      <point x="759" y="1275"/>
      <point x="697" y="1331"/>
      <point x="655" y="1334" type="qcurve" smooth="yes"/>
      <point x="628" y="1337"/>
      <point x="600" y="1337" type="qcurve" smooth="yes"/>
    </contour>
    <contour>
      <point x="578" y="1219"/>
      <point x="555" y="1217" type="qcurve" smooth="yes"/>
      <point x="547" y="1217"/>
      <point x="544" y="1206" type="qcurve" smooth="yes"/>
      <point x="522" y="1119" type="line" smooth="yes"/>
      <point x="514" y="1088"/>
      <point x="471" y="1040"/>
      <point x="444" y="1026" type="qcurve" smooth="yes"/>
      <point x="424" y="1016"/>
      <point x="405" y="1003" type="qcurve" smooth="yes"/>
      <point x="378" y="986"/>
      <point x="319" y="974"/>
      <point x="285" y="982" type="qcurve" smooth="yes"/>
      <point x="199" y="1006" type="line" smooth="yes"/>
      <point x="187" y="1009"/>
      <point x="183" y="1003" type="qcurve" smooth="yes"/>
      <point x="158" y="966"/>
      <point x="138" y="925" type="qcurve" smooth="yes"/>
      <point x="135" y="918"/>
      <point x="143" y="910" type="qcurve" smooth="yes"/>
      <point x="206" y="847" type="line" smooth="yes"/>
      <point x="230" y="824"/>
      <point x="250" y="764"/>
      <point x="248" y="733" type="qcurve" smooth="yes"/>
      <point x="247" y="721"/>
      <point x="247" y="710" type="qcurve" smooth="yes"/>
      <point x="247" y="699"/>
      <point x="248" y="687" type="qcurve" smooth="yes"/>
      <point x="250" y="656"/>
      <point x="230" y="596"/>
      <point x="206" y="573" type="qcurve" smooth="yes"/>
      <point x="143" y="510" type="line" smooth="yes"/>
      <point x="135" y="503"/>
      <point x="138" y="495" type="qcurve" smooth="yes"/>
      <point x="158" y="454"/>
      <point x="183" y="417" type="qcurve" smooth="yes"/>
      <point x="187" y="411"/>
      <point x="199" y="414" type="qcurve" smooth="yes"/>
      <point x="285" y="438" type="line" smooth="yes"/>
      <point x="319" y="446"/>
      <point x="378" y="434"/>
      <point x="405" y="417" type="qcurve" smooth="yes"/>
      <point x="424" y="404"/>
      <point x="444" y="394" type="qcurve" smooth="yes"/>
      <point x="471" y="380"/>
      <point x="514" y="332"/>
      <point x="522" y="301" type="qcurve" smooth="yes"/>
      <point x="544" y="214" type="line" smooth="yes"/>
      <point x="547" y="203"/>
      <point x="555" y="203" type="qcurve" smooth="yes"/>
      <point x="578" y="201"/>
      <point x="601" y="201" type="qcurve" smooth="yes"/>
      <point x="622" y="201"/>
      <point x="645" y="203" type="qcurve" smooth="yes"/>
      <point x="653" y="203"/>
      <point x="656" y="214" type="qcurve" smooth="yes"/>
      <point x="678" y="301" type="line" smooth="yes"/>
      <point x="686" y="332"/>
      <point x="729" y="380"/>
      <point x="756" y="394" type="qcurve" smooth="yes"/>
      <point x="776" y="404"/>
      <point x="795" y="417" type="qcurve" smooth="yes"/>
      <point x="822" y="434"/>
      <point x="881" y="446"/>
      <point x="915" y="438" type="qcurve" smooth="yes"/>
      <point x="1001" y="414" type="line" smooth="yes"/>
      <point x="1013" y="411"/>
      <point x="1017" y="417" type="qcurve" smooth="yes"/>
      <point x="1042" y="454"/>
      <point x="1062" y="495" type="qcurve" smooth="yes"/>
      <point x="1065" y="502"/>
      <point x="1057" y="510" type="qcurve" smooth="yes"/>
      <point x="994" y="573" type="line" smooth="yes"/>
      <point x="970" y="596"/>
      <point x="950" y="656"/>
      <point x="952" y="687" type="qcurve" smooth="yes"/>
      <point x="953" y="699"/>
      <point x="953" y="710" type="qcurve" smooth="yes"/>
      <point x="953" y="721"/>
      <point x="952" y="733" type="qcurve" smooth="yes"/>
      <point x="950" y="764"/>
      <point x="970" y="824"/>
      <point x="994" y="847" type="qcurve" smooth="yes"/>
      <point x="1057" y="910" type="line" smooth="yes"/>
      <point x="1065" y="917"/>
      <point x="1062" y="925" type="qcurve" smooth="yes"/>
      <point x="1043" y="966"/>
      <point x="1017" y="1003" type="qcurve" smooth="yes"/>
      <point x="1013" y="1009"/>
      <point x="1001" y="1006" type="qcurve" smooth="yes"/>
      <point x="915" y="982" type="line" smooth="yes"/>
      <point x="881" y="974"/>
      <point x="822" y="986"/>
      <point x="795" y="1003" type="qcurve" smooth="yes"/>
      <point x="777" y="1016"/>
      <point x="756" y="1026" type="qcurve" smooth="yes"/>
      <point x="729" y="1040"/>
      <point x="686" y="1088"/>
      <point x="678" y="1119" type="qcurve" smooth="yes"/>
      <point x="656" y="1206" type="line" smooth="yes"/>
      <point x="653" y="1217"/>
      <point x="645" y="1217" type="qcurve" smooth="yes"/>
      <point x="622" y="1219"/>
      <point x="599" y="1219" type="qcurve" smooth="yes"/>
    </contour>
    <contour>
      <point x="697" y="945"/>
      <point x="503" y="945"/>
      <point x="365" y="807"/>
      <point x="365" y="613"/>
      <point x="503" y="475"/>
      <point x="697" y="475"/>
      <point x="835" y="613"/>
      <point x="835" y="807"/>
    </contour>
    <contour>
      <point x="648" y="592"/>
      <point x="551" y="592"/>
      <point x="482" y="661"/>
      <point x="482" y="758"/>
      <point x="551" y="828"/>
      <point x="648" y="828"/>
      <point x="718" y="758"/>
      <point x="718" y="661"/>
    </contour>
  </outline>
</glyph>
<glyph name="arrow-down-left" format="2">
  <advance width="1200"/>
  <unicode hex="F424"/>
  <note>
arrow-down-left
</note>
  <outline>
    <contour>
      <point x="814" y="1001"/>
      <point x="799" y="986" type="qcurve" smooth="yes"/>
      <point x="417" y="604" type="line"/>
      <point x="417" y="909" type="line" smooth="yes"/>
      <point x="417" y="931"/>
      <point x="386" y="963"/>
      <point x="340" y="963"/>
      <point x="309" y="931"/>
      <point x="309" y="909" type="qcurve" smooth="yes"/>
      <point x="309" y="473" type="line" smooth="yes"/>
      <point x="309" y="450"/>
      <point x="340" y="419"/>
      <point x="363" y="419" type="qcurve" smooth="yes"/>
      <point x="799" y="419" type="line" smooth="yes"/>
      <point x="821" y="419"/>
      <point x="853" y="450"/>
      <point x="853" y="496"/>
      <point x="821" y="527"/>
      <point x="799" y="527" type="qcurve" smooth="yes"/>
      <point x="494" y="527" type="line"/>
      <point x="876" y="909" type="line" smooth="yes"/>
      <point x="891" y="924"/>
      <point x="891" y="970"/>
      <point x="860" y="1001"/>
    </contour>
  </outline>
</glyph>
<glyph name="tools" format="2">
  <advance width="1200"/>
  <unicode hex="F425"/>
  <note>
tools
</note>
  <outline>
    <contour>
      <point x="359" y="1271"/>
      <point x="359" y="1260" type="qcurve" smooth="yes"/>
      <point x="359" y="988" type="line" smooth="yes"/>
      <point x="359" y="945"/>
      <point x="399" y="871"/>
      <point x="433" y="848" type="qcurve" smooth="yes"/>
      <point x="451" y="836" type="line" smooth="yes"/>
      <point x="469" y="823"/>
      <point x="505" y="799"/>
      <point x="505" y="799" type="qcurve"/>
      <point x="548" y="770"/>
      <point x="600" y="770" type="qcurve" smooth="yes"/>
      <point x="652" y="770"/>
      <point x="695" y="799" type="qcurve" smooth="yes"/>
      <point x="767" y="848" type="line" smooth="yes"/>
      <point x="801" y="871"/>
      <point x="841" y="945"/>
      <point x="841" y="988" type="qcurve" smooth="yes"/>
      <point x="841" y="1260" type="line" smooth="yes"/>
      <point x="841" y="1271"/>
      <point x="848" y="1275" type="qcurve"/>
      <point x="934" y="1216"/>
      <point x="1034" y="1028"/>
      <point x="1034" y="919" type="qcurve" smooth="yes"/>
      <point x="1034" y="919" type="line"/>
      <point x="1035" y="919"/>
      <point x="1035" y="919" type="qcurve"/>
      <point x="1035" y="805"/>
      <point x="926" y="610"/>
      <point x="832" y="551" type="qcurve" smooth="yes"/>
      <point x="793" y="526"/>
      <point x="744" y="443"/>
      <point x="746" y="393" type="qcurve" smooth="yes"/>
      <point x="761" y="70" type="line" smooth="yes"/>
      <point x="762" y="51"/>
      <point x="783" y="17"/>
      <point x="801" y="8" type="qcurve" smooth="yes"/>
      <point x="816" y="1"/>
      <point x="834" y="1" type="qcurve" smooth="yes"/>
      <point x="864" y="1"/>
      <point x="906" y="43"/>
      <point x="906" y="73" type="qcurve" smooth="yes"/>
      <point x="906" y="75"/>
      <point x="906" y="78" type="qcurve" smooth="yes"/>
      <point x="890" y="399" type="line" smooth="yes"/>
      <point x="890" y="416"/>
      <point x="910" y="429" type="qcurve" smooth="yes"/>
      <point x="1034" y="508"/>
      <point x="1179" y="766"/>
      <point x="1179" y="919" type="qcurve"/>
      <point x="1180" y="919" type="line"/>
      <point x="1180" y="1063"/>
      <point x="1046" y="1314"/>
      <point x="931" y="1394" type="qcurve" smooth="yes"/>
      <point x="894" y="1420"/>
      <point x="847" y="1420" type="qcurve" smooth="yes"/>
      <point x="805" y="1420"/>
      <point x="770" y="1397" type="qcurve" smooth="yes"/>
      <point x="736" y="1376"/>
      <point x="697" y="1302"/>
      <point x="697" y="1260" type="qcurve" smooth="yes"/>
      <point x="697" y="988" type="line" smooth="yes"/>
      <point x="697" y="975"/>
      <point x="686" y="968" type="qcurve" smooth="yes"/>
      <point x="668" y="955" type="line" smooth="yes"/>
      <point x="650" y="943"/>
      <point x="614" y="919"/>
      <point x="614" y="919" type="qcurve"/>
      <point x="608" y="915"/>
      <point x="592" y="915"/>
      <point x="586" y="919" type="qcurve" smooth="yes"/>
      <point x="514" y="968" type="line" smooth="yes"/>
      <point x="503" y="975"/>
      <point x="503" y="988" type="qcurve" smooth="yes"/>
      <point x="503" y="1260" type="line" smooth="yes"/>
      <point x="503" y="1302"/>
      <point x="464" y="1376"/>
      <point x="430" y="1397" type="qcurve" smooth="yes"/>
      <point x="395" y="1420"/>
      <point x="352" y="1420" type="qcurve" smooth="yes"/>
      <point x="306" y="1420"/>
      <point x="269" y="1394" type="qcurve" smooth="yes"/>
      <point x="154" y="1314"/>
      <point x="21" y="1064"/>
      <point x="21" y="919" type="qcurve"/>
      <point x="21" y="919" type="line"/>
      <point x="20" y="919" type="line"/>
      <point x="20" y="767"/>
      <point x="166" y="508"/>
      <point x="290" y="429" type="qcurve" smooth="yes"/>
      <point x="310" y="416"/>
      <point x="310" y="399" type="qcurve" smooth="yes"/>
      <point x="294" y="78" type="line" smooth="yes"/>
      <point x="294" y="75"/>
      <point x="294" y="72" type="qcurve" smooth="yes"/>
      <point x="294" y="43"/>
      <point x="336" y="0"/>
      <point x="366" y="0" type="qcurve" smooth="yes"/>
      <point x="396" y="0"/>
      <point x="438" y="41"/>
      <point x="439" y="70" type="qcurve" smooth="yes"/>
      <point x="454" y="392" type="line"/>
      <point x="454" y="393" type="line" smooth="yes"/>
      <point x="456" y="443"/>
      <point x="407" y="526"/>
      <point x="368" y="551" type="qcurve" smooth="yes"/>
      <point x="275" y="611"/>
      <point x="166" y="805"/>
      <point x="166" y="919" type="qcurve"/>
      <point x="165" y="919"/>
      <point x="165" y="919" type="qcurve"/>
      <point x="165" y="1028"/>
      <point x="266" y="1216"/>
      <point x="352" y="1275" type="qcurve"/>
    </contour>
  </outline>
</glyph>
<glyph name="sign-out" format="2">
  <advance width="1200"/>
  <unicode hex="F426"/>
  <note>
sign-out
</note>
  <outline>
    <contour>
      <point x="20" y="242" type="line" smooth="yes"/>
      <point x="20" y="177"/>
      <point x="111" y="85"/>
      <point x="176" y="85" type="qcurve" smooth="yes"/>
      <point x="399" y="85" type="line" smooth="yes"/>
      <point x="427" y="85"/>
      <point x="466" y="124"/>
      <point x="466" y="180"/>
      <point x="427" y="219"/>
      <point x="399" y="219" type="qcurve" smooth="yes"/>
      <point x="176" y="219" type="line" smooth="yes"/>
      <point x="167" y="219"/>
      <point x="154" y="232"/>
      <point x="154" y="242" type="qcurve" smooth="yes"/>
      <point x="154" y="1178" type="line" smooth="yes"/>
      <point x="154" y="1188"/>
      <point x="167" y="1201"/>
      <point x="176" y="1201" type="qcurve" smooth="yes"/>
      <point x="399" y="1201" type="line" smooth="yes"/>
      <point x="427" y="1201"/>
      <point x="466" y="1240"/>
      <point x="466" y="1296"/>
      <point x="427" y="1335"/>
      <point x="399" y="1335" type="qcurve" smooth="yes"/>
      <point x="176" y="1335" type="line" smooth="yes"/>
      <point x="111" y="1335"/>
      <point x="20" y="1243"/>
      <point x="20" y="1178" type="qcurve" smooth="yes"/>
    </contour>
    <contour>
      <point x="444" y="777" type="line" smooth="yes"/>
      <point x="416" y="777"/>
      <point x="377" y="738"/>
      <point x="377" y="682"/>
      <point x="416" y="643"/>
      <point x="444" y="643" type="qcurve" smooth="yes"/>
      <point x="951" y="643" type="line"/>
      <point x="776" y="467" type="line" smooth="yes"/>
      <point x="755" y="447"/>
      <point x="755" y="419" type="qcurve" smooth="yes"/>
      <point x="755" y="410"/>
      <point x="757" y="402" type="qcurve" smooth="yes"/>
      <point x="762" y="380"/>
      <point x="798" y="351"/>
      <point x="822" y="351" type="qcurve" smooth="yes"/>
      <point x="850" y="351"/>
      <point x="870" y="373" type="qcurve" smooth="yes"/>
      <point x="1160" y="663" type="line" smooth="yes"/>
      <point x="1180" y="682"/>
      <point x="1180" y="738"/>
      <point x="1160" y="757" type="qcurve" smooth="yes"/>
      <point x="870" y="1047" type="line" smooth="yes"/>
      <point x="850" y="1068"/>
      <point x="822" y="1068" type="qcurve" smooth="yes"/>
      <point x="813" y="1068"/>
      <point x="805" y="1066" type="qcurve" smooth="yes"/>
      <point x="783" y="1061"/>
      <point x="754" y="1025"/>
      <point x="754" y="1001" type="qcurve" smooth="yes"/>
      <point x="754" y="973"/>
      <point x="776" y="953" type="qcurve" smooth="yes"/>
      <point x="951" y="777" type="line"/>
    </contour>
  </outline>
</glyph>
<glyph name="rocket" format="2">
  <advance width="1200"/>
  <unicode hex="F427"/>
  <note>
rocket
</note>
  <outline>
    <contour>
      <point x="910" y="1290"/>
      <point x="679" y="1192"/>
      <point x="591" y="1104" type="qcurve" smooth="yes"/>
      <point x="558" y="1071" type="line" smooth="yes"/>
      <point x="524" y="1037"/>
      <point x="492" y="1000" type="qcurve"/>
      <point x="260" y="1000" type="line" smooth="yes"/>
      <point x="226" y="1000"/>
      <point x="169" y="967"/>
      <point x="152" y="939" type="qcurve" smooth="yes"/>
      <point x="121" y="890" type="line" smooth="yes"/>
      <point x="90" y="839"/>
      <point x="28" y="738"/>
      <point x="28" y="738" type="qcurve"/>
      <point x="20" y="725"/>
      <point x="20" y="710" type="qcurve" smooth="yes"/>
      <point x="20" y="692"/>
      <point x="42" y="663"/>
      <point x="59" y="658" type="qcurve" smooth="yes"/>
      <point x="283" y="589" type="line"/>
      <point x="287" y="583"/>
      <point x="292" y="579" type="qcurve" smooth="yes"/>
      <point x="468" y="402" type="line" smooth="yes"/>
      <point x="473" y="397"/>
      <point x="479" y="393" type="qcurve"/>
      <point x="548" y="169" type="line" smooth="yes"/>
      <point x="553" y="152"/>
      <point x="582" y="130"/>
      <point x="600" y="130" type="qcurve" smooth="yes"/>
      <point x="615" y="130"/>
      <point x="628" y="138" type="qcurve" smooth="yes"/>
      <point x="829" y="262" type="line" smooth="yes"/>
      <point x="858" y="279"/>
      <point x="890" y="337"/>
      <point x="890" y="370" type="qcurve" smooth="yes"/>
      <point x="890" y="602" type="line"/>
      <point x="927" y="634"/>
      <point x="961" y="668" type="qcurve" smooth="yes"/>
      <point x="969" y="676" type="line" smooth="yes"/>
      <point x="977" y="685"/>
      <point x="994" y="701"/>
      <point x="994" y="701" type="qcurve"/>
      <point x="1082" y="789"/>
      <point x="1180" y="1020"/>
      <point x="1180" y="1150" type="qcurve" smooth="yes"/>
      <point x="1180" y="1163" type="line" smooth="yes"/>
      <point x="1180" y="1216"/>
      <point x="1106" y="1290"/>
      <point x="1053" y="1290" type="qcurve" smooth="yes"/>
      <point x="1040" y="1290" type="line" smooth="yes"/>
    </contour>
    <contour>
      <point x="740" y="1100"/>
      <point x="932" y="1181"/>
      <point x="1040" y="1181" type="qcurve" smooth="yes"/>
      <point x="1053" y="1181" type="line" smooth="yes"/>
      <point x="1060" y="1181"/>
      <point x="1071" y="1170"/>
      <point x="1071" y="1163" type="qcurve" smooth="yes"/>
      <point x="1071" y="1160" type="line" smooth="yes"/>
      <point x="1071" y="1156"/>
      <point x="1071" y="1150"/>
      <point x="1071" y="1150" type="qcurve"/>
      <point x="1071" y="1042"/>
      <point x="990" y="850"/>
      <point x="917" y="778" type="qcurve" smooth="yes"/>
      <point x="884" y="745" type="line" smooth="yes"/>
      <point x="801" y="662"/>
      <point x="703" y="598" type="qcurve" smooth="yes"/>
      <point x="535" y="490" type="line"/>
      <point x="380" y="645" type="line"/>
      <point x="488" y="813" type="line" smooth="yes"/>
      <point x="552" y="911"/>
      <point x="635" y="994" type="qcurve" smooth="yes"/>
      <point x="668" y="1027" type="line" smooth="yes"/>
    </contour>
    <contour>
      <point x="315" y="267"/>
      <point x="315" y="316" type="qcurve" smooth="yes"/>
      <point x="315" y="361"/>
      <point x="251" y="425"/>
      <point x="206" y="425" type="qcurve" smooth="yes"/>
      <point x="157" y="425"/>
      <point x="124" y="388" type="qcurve"/>
      <point x="106" y="370"/>
      <point x="75" y="310"/>
      <point x="56" y="243"/>
      <point x="45" y="194"/>
      <point x="41" y="170" type="qcurve" smooth="yes"/>
      <point x="41" y="169"/>
      <point x="41" y="168" type="qcurve" smooth="yes"/>
      <point x="41" y="161"/>
      <point x="51" y="151"/>
      <point x="57" y="151" type="qcurve" smooth="yes"/>
      <point x="59" y="151"/>
      <point x="60" y="151" type="qcurve" smooth="yes"/>
      <point x="84" y="155"/>
      <point x="133" y="166"/>
      <point x="200" y="185"/>
      <point x="260" y="216"/>
      <point x="278" y="234" type="qcurve"/>
    </contour>
    <contour>
      <point x="781" y="370" type="line" smooth="yes"/>
      <point x="781" y="360"/>
      <point x="773" y="354" type="qcurve" smooth="yes"/>
      <point x="631" y="268" type="line"/>
      <point x="592" y="397" type="line"/>
      <point x="762" y="507" type="line" smooth="yes"/>
      <point x="773" y="514"/>
      <point x="781" y="520" type="qcurve"/>
    </contour>
    <contour>
      <point x="158" y="741" type="line"/>
      <point x="244" y="883" type="line" smooth="yes"/>
      <point x="250" y="891"/>
      <point x="260" y="891" type="qcurve" smooth="yes"/>
      <point x="410" y="891" type="line"/>
      <point x="401" y="878"/>
      <point x="397" y="872" type="qcurve" smooth="yes"/>
      <point x="287" y="702" type="line"/>
    </contour>
    <contour>
      <point x="848" y="1000"/>
      <point x="787" y="1000"/>
      <point x="745" y="958"/>
      <point x="745" y="897"/>
      <point x="787" y="855"/>
      <point x="848" y="855"/>
      <point x="890" y="897"/>
      <point x="890" y="958"/>
    </contour>
  </outline>
</glyph>
<glyph name="rss" format="2">
  <advance width="1200"/>
  <unicode hex="F428"/>
  <note>
rss
</note>
  <outline>
    <contour>
      <point x="20" y="1220"/>
      <point x="20" y="1217" type="qcurve" smooth="yes"/>
      <point x="20" y="1188"/>
      <point x="59" y="1146"/>
      <point x="88" y="1145" type="qcurve" smooth="yes"/>
      <point x="213" y="1136"/>
      <point x="450" y="1059"/>
      <point x="653" y="934"/>
      <point x="824" y="763"/>
      <point x="949" y="560"/>
      <point x="1026" y="323"/>
      <point x="1035" y="198" type="qcurve" smooth="yes"/>
      <point x="1037" y="169"/>
      <point x="1079" y="130"/>
      <point x="1107" y="130" type="qcurve" smooth="yes"/>
      <point x="1138" y="130"/>
      <point x="1180" y="172"/>
      <point x="1180" y="203" type="qcurve" smooth="yes"/>
      <point x="1180" y="205"/>
      <point x="1180" y="207" type="qcurve" smooth="yes"/>
      <point x="1170" y="350"/>
      <point x="1082" y="622"/>
      <point x="940" y="853"/>
      <point x="743" y="1050"/>
      <point x="512" y="1192"/>
      <point x="240" y="1280"/>
      <point x="97" y="1290" type="qcurve" smooth="yes"/>
      <point x="96" y="1290"/>
      <point x="93" y="1290" type="qcurve" smooth="yes"/>
      <point x="64" y="1290"/>
      <point x="22" y="1251"/>
      <point x="20" y="1222" type="qcurve" smooth="yes"/>
    </contour>
    <contour>
      <point x="98" y="803"/>
      <point x="94" y="803" type="qcurve" smooth="yes"/>
      <point x="64" y="803"/>
      <point x="22" y="761"/>
      <point x="22" y="731" type="qcurve" smooth="yes"/>
      <point x="22" y="704"/>
      <point x="57" y="663"/>
      <point x="84" y="659" type="qcurve" smooth="yes"/>
      <point x="204" y="645"/>
      <point x="406" y="516"/>
      <point x="535" y="314"/>
      <point x="549" y="194" type="qcurve" smooth="yes"/>
      <point x="552" y="167"/>
      <point x="594" y="130"/>
      <point x="621" y="130" type="qcurve" smooth="yes"/>
      <point x="651" y="130"/>
      <point x="693" y="172"/>
      <point x="693" y="203" type="qcurve" smooth="yes"/>
      <point x="693" y="207"/>
      <point x="693" y="211" type="qcurve"/>
      <point x="679" y="325"/>
      <point x="577" y="532"/>
      <point x="422" y="687"/>
      <point x="215" y="789"/>
      <point x="101" y="803" type="qcurve" smooth="yes"/>
      <point x="102" y="803" type="line" smooth="yes"/>
    </contour>
    <contour>
      <point x="77" y="130"/>
      <point x="157" y="130"/>
      <point x="214" y="187"/>
      <point x="214" y="267"/>
      <point x="157" y="324"/>
      <point x="77" y="324"/>
      <point x="20" y="267"/>
      <point x="20" y="187"/>
    </contour>
  </outline>
</glyph>
<glyph name="paste" format="2">
  <advance width="1200"/>
  <unicode hex="F429"/>
  <note>
paste
</note>
  <outline>
    <contour>
      <point x="194" y="1151"/>
      <point x="213" y="1185"/>
      <point x="213" y="1205" type="qcurve" smooth="yes"/>
      <point x="213" y="1235"/>
      <point x="171" y="1277"/>
      <point x="141" y="1277" type="qcurve" smooth="yes"/>
      <point x="121" y="1277"/>
      <point x="105" y="1267" type="qcurve" smooth="yes"/>
      <point x="65" y="1245"/>
      <point x="20" y="1166"/>
      <point x="20" y="1121" type="qcurve" smooth="yes"/>
      <point x="20" y="202" type="line" smooth="yes"/>
      <point x="20" y="132"/>
      <point x="119" y="33"/>
      <point x="189" y="33" type="qcurve" smooth="yes"/>
      <point x="1011" y="33" type="line" smooth="yes"/>
      <point x="1081" y="33"/>
      <point x="1180" y="132"/>
      <point x="1180" y="202" type="qcurve" smooth="yes"/>
      <point x="1180" y="1121" type="line" smooth="yes"/>
      <point x="1180" y="1166"/>
      <point x="1135" y="1245"/>
      <point x="1095" y="1267" type="qcurve" smooth="yes"/>
      <point x="1079" y="1277"/>
      <point x="1059" y="1277" type="qcurve" smooth="yes"/>
      <point x="1029" y="1277"/>
      <point x="987" y="1235"/>
      <point x="987" y="1205" type="qcurve" smooth="yes"/>
      <point x="987" y="1185"/>
      <point x="1006" y="1151"/>
      <point x="1023" y="1142" type="qcurve" smooth="yes"/>
      <point x="1035" y="1135"/>
      <point x="1035" y="1121" type="qcurve" smooth="yes"/>
      <point x="1035" y="202" type="line" smooth="yes"/>
      <point x="1035" y="193"/>
      <point x="1021" y="178"/>
      <point x="1011" y="178" type="qcurve" smooth="yes"/>
      <point x="189" y="178" type="line" smooth="yes"/>
      <point x="179" y="178"/>
      <point x="165" y="193"/>
      <point x="165" y="202" type="qcurve" smooth="yes"/>
      <point x="165" y="1121" type="line" smooth="yes"/>
      <point x="165" y="1135"/>
      <point x="177" y="1142" type="qcurve" smooth="yes"/>
    </contour>
    <contour>
      <point x="352" y="1387"/>
      <point x="310" y="1344"/>
      <point x="310" y="1314" type="qcurve" smooth="yes"/>
      <point x="310" y="1024" type="line" smooth="yes"/>
      <point x="310" y="994"/>
      <point x="352" y="952"/>
      <point x="382" y="952" type="qcurve" smooth="yes"/>
      <point x="817" y="952" type="line" smooth="yes"/>
      <point x="848" y="952"/>
      <point x="890" y="994"/>
      <point x="890" y="1024" type="qcurve" smooth="yes"/>
      <point x="890" y="1314" type="line" smooth="yes"/>
      <point x="890" y="1344"/>
      <point x="848" y="1387"/>
      <point x="817" y="1387" type="qcurve" smooth="yes"/>
      <point x="382" y="1387" type="line" smooth="yes"/>
    </contour>
    <contour>
      <point x="455" y="1242" type="line"/>
      <point x="745" y="1242" type="line"/>
      <point x="745" y="1097" type="line"/>
      <point x="455" y="1097" type="line"/>
    </contour>
  </outline>
</glyph>
<glyph name="sign-in" format="2">
  <advance width="1200"/>
  <unicode hex="F42A"/>
  <note>
sign-in
</note>
  <outline>
    <contour>
      <point x="20" y="242" type="line" smooth="yes"/>
      <point x="20" y="177"/>
      <point x="111" y="85"/>
      <point x="176" y="85" type="qcurve" smooth="yes"/>
      <point x="399" y="85" type="line" smooth="yes"/>
      <point x="427" y="85"/>
      <point x="466" y="124"/>
      <point x="466" y="180"/>
      <point x="427" y="219"/>
      <point x="399" y="219" type="qcurve" smooth="yes"/>
      <point x="176" y="219" type="line" smooth="yes"/>
      <point x="167" y="219"/>
      <point x="154" y="232"/>
      <point x="154" y="242" type="qcurve" smooth="yes"/>
      <point x="154" y="1178" type="line" smooth="yes"/>
      <point x="154" y="1188"/>
      <point x="167" y="1201"/>
      <point x="176" y="1201" type="qcurve" smooth="yes"/>
      <point x="399" y="1201" type="line" smooth="yes"/>
      <point x="427" y="1201"/>
      <point x="466" y="1240"/>
      <point x="466" y="1296"/>
      <point x="427" y="1335"/>
      <point x="399" y="1335" type="qcurve" smooth="yes"/>
      <point x="176" y="1335" type="line" smooth="yes"/>
      <point x="111" y="1335"/>
      <point x="20" y="1243"/>
      <point x="20" y="1178" type="qcurve" smooth="yes"/>
    </contour>
    <contour>
      <point x="781" y="953" type="line" smooth="yes"/>
      <point x="802" y="973"/>
      <point x="802" y="1001" type="qcurve" smooth="yes"/>
      <point x="802" y="1010"/>
      <point x="800" y="1018" type="qcurve" smooth="yes"/>
      <point x="794" y="1040"/>
      <point x="759" y="1069"/>
      <point x="735" y="1069" type="qcurve" smooth="yes"/>
      <point x="707" y="1069"/>
      <point x="686" y="1047" type="qcurve" smooth="yes"/>
      <point x="396" y="757" type="line" smooth="yes"/>
      <point x="377" y="738"/>
      <point x="377" y="682"/>
      <point x="396" y="663" type="qcurve" smooth="yes"/>
      <point x="686" y="373" type="line" smooth="yes"/>
      <point x="707" y="352"/>
      <point x="735" y="352" type="qcurve" smooth="yes"/>
      <point x="744" y="352"/>
      <point x="752" y="354" type="qcurve" smooth="yes"/>
      <point x="774" y="359"/>
      <point x="803" y="395"/>
      <point x="803" y="419" type="qcurve" smooth="yes"/>
      <point x="803" y="447"/>
      <point x="781" y="467" type="qcurve" smooth="yes"/>
      <point x="606" y="643" type="line"/>
      <point x="1113" y="643" type="line" smooth="yes"/>
      <point x="1141" y="643"/>
      <point x="1180" y="682"/>
      <point x="1180" y="738"/>
      <point x="1141" y="777"/>
      <point x="1113" y="777" type="qcurve" smooth="yes"/>
      <point x="606" y="777" type="line"/>
    </contour>
  </outline>
</glyph>
<glyph name="organization" format="2">
  <advance width="1200"/>
  <unicode hex="F42B"/>
  <note>
organization
</note>
  <outline>
    <contour>
      <point x="364" y="130" type="line" smooth="yes"/>
      <point x="387" y="130"/>
      <point x="419" y="162"/>
      <point x="419" y="184" type="qcurve" smooth="yes"/>
      <point x="419" y="275" type="line"/>
      <point x="491" y="275" type="line"/>
      <point x="491" y="184" type="line" smooth="yes"/>
      <point x="491" y="162"/>
      <point x="523" y="130"/>
      <point x="546" y="130" type="qcurve" smooth="yes"/>
      <point x="763" y="130" type="line" smooth="yes"/>
      <point x="774" y="130"/>
      <point x="785" y="132" type="qcurve"/>
      <point x="792" y="130"/>
      <point x="799" y="130" type="qcurve" smooth="yes"/>
      <point x="1053" y="130" type="line" smooth="yes"/>
      <point x="1106" y="130"/>
      <point x="1180" y="204"/>
      <point x="1180" y="257" type="qcurve" smooth="yes"/>
      <point x="1180" y="690" type="line" smooth="yes"/>
      <point x="1180" y="721"/>
      <point x="1150" y="777"/>
      <point x="1123" y="795" type="qcurve" smooth="yes"/>
      <point x="1104" y="807" type="line" smooth="yes"/>
      <point x="1085" y="820"/>
      <point x="1047" y="846"/>
      <point x="1047" y="846" type="qcurve"/>
      <point x="1033" y="855"/>
      <point x="1017" y="855" type="qcurve" smooth="yes"/>
      <point x="994" y="855"/>
      <point x="963" y="823"/>
      <point x="963" y="801" type="qcurve" smooth="yes"/>
      <point x="963" y="772"/>
      <point x="987" y="755" type="qcurve" smooth="yes"/>
      <point x="1063" y="704" type="line" smooth="yes"/>
      <point x="1071" y="699"/>
      <point x="1071" y="690" type="qcurve" smooth="yes"/>
      <point x="1071" y="257" type="line" smooth="yes"/>
      <point x="1071" y="250"/>
      <point x="1060" y="239"/>
      <point x="1053" y="239" type="qcurve" smooth="yes"/>
      <point x="889" y="239" type="line"/>
      <point x="890" y="248"/>
      <point x="890" y="257" type="qcurve" smooth="yes"/>
      <point x="890" y="1163" type="line" smooth="yes"/>
      <point x="890" y="1216"/>
      <point x="816" y="1290"/>
      <point x="763" y="1290" type="qcurve" smooth="yes"/>
      <point x="147" y="1290" type="line" smooth="yes"/>
      <point x="94" y="1290"/>
      <point x="20" y="1216"/>
      <point x="20" y="1163" type="qcurve" smooth="yes"/>
      <point x="20" y="257" type="line" smooth="yes"/>
      <point x="20" y="204"/>
      <point x="94" y="130"/>
      <point x="147" y="130" type="qcurve" smooth="yes"/>
    </contour>
    <contour>
      <point x="129" y="1163" type="qcurve" smooth="yes"/>
      <point x="129" y="257" type="line" smooth="yes"/>
      <point x="129" y="250"/>
      <point x="140" y="239"/>
      <point x="147" y="239" type="qcurve" smooth="yes"/>
      <point x="310" y="239" type="line"/>
      <point x="310" y="329" type="line" smooth="yes"/>
      <point x="310" y="352"/>
      <point x="342" y="384"/>
      <point x="364" y="384" type="qcurve" smooth="yes"/>
      <point x="546" y="384" type="line" smooth="yes"/>
      <point x="568" y="384"/>
      <point x="600" y="352"/>
      <point x="600" y="329" type="qcurve" smooth="yes"/>
      <point x="600" y="239" type="line"/>
      <point x="763" y="239" type="line" smooth="yes"/>
      <point x="770" y="239"/>
      <point x="781" y="250"/>
      <point x="781" y="257" type="qcurve" smooth="yes"/>
      <point x="781" y="1163" type="line" smooth="yes"/>
      <point x="781" y="1170"/>
      <point x="770" y="1181"/>
      <point x="763" y="1181" type="qcurve" smooth="yes"/>
      <point x="147" y="1181" type="line" smooth="yes"/>
      <point x="140" y="1181"/>
      <point x="129" y="1170"/>
    </contour>
    <contour>
      <point x="269" y="855"/>
      <point x="238" y="823"/>
      <point x="238" y="778"/>
      <point x="269" y="746"/>
      <point x="292" y="746" type="qcurve" smooth="yes"/>
      <point x="328" y="746" type="line" smooth="yes"/>
      <point x="351" y="746"/>
      <point x="383" y="778"/>
      <point x="383" y="823"/>
      <point x="351" y="855"/>
      <point x="328" y="855" type="qcurve" smooth="yes"/>
      <point x="292" y="855" type="line" smooth="yes"/>
    </contour>
    <contour>
      <point x="269" y="964"/>
      <point x="292" y="964" type="qcurve" smooth="yes"/>
      <point x="328" y="964" type="line" smooth="yes"/>
      <point x="351" y="964"/>
      <point x="383" y="995"/>
      <point x="383" y="1041"/>
      <point x="351" y="1073"/>
      <point x="328" y="1073" type="qcurve" smooth="yes"/>
      <point x="292" y="1073" type="line" smooth="yes"/>
      <point x="269" y="1073"/>
      <point x="238" y="1041"/>
      <point x="238" y="995"/>
    </contour>
    <contour>
      <point x="559" y="746"/>
      <point x="582" y="746" type="qcurve" smooth="yes"/>
      <point x="618" y="746" type="line" smooth="yes"/>
      <point x="641" y="746"/>
      <point x="673" y="778"/>
      <point x="673" y="823"/>
      <point x="641" y="855"/>
      <point x="618" y="855" type="qcurve" smooth="yes"/>
      <point x="582" y="855" type="line" smooth="yes"/>
      <point x="559" y="855"/>
      <point x="528" y="823"/>
      <point x="528" y="778"/>
    </contour>
    <contour>
      <point x="559" y="1073"/>
      <point x="528" y="1041"/>
      <point x="528" y="995"/>
      <point x="559" y="964"/>
      <point x="582" y="964" type="qcurve" smooth="yes"/>
      <point x="618" y="964" type="line" smooth="yes"/>
      <point x="641" y="964"/>
      <point x="673" y="995"/>
      <point x="673" y="1041"/>
      <point x="641" y="1073"/>
      <point x="618" y="1073" type="qcurve" smooth="yes"/>
      <point x="582" y="1073" type="line" smooth="yes"/>
    </contour>
    <contour>
      <point x="269" y="529"/>
      <point x="292" y="529" type="qcurve" smooth="yes"/>
      <point x="328" y="529" type="line" smooth="yes"/>
      <point x="351" y="529"/>
      <point x="383" y="560"/>
      <point x="383" y="606"/>
      <point x="351" y="638"/>
      <point x="328" y="638" type="qcurve" smooth="yes"/>
      <point x="292" y="638" type="line" smooth="yes"/>
      <point x="269" y="638"/>
      <point x="238" y="606"/>
      <point x="238" y="560"/>
    </contour>
    <contour>
      <point x="559" y="638"/>
      <point x="528" y="606"/>
      <point x="528" y="560"/>
      <point x="559" y="529"/>
      <point x="582" y="529" type="qcurve" smooth="yes"/>
      <point x="618" y="529" type="line" smooth="yes"/>
      <point x="641" y="529"/>
      <point x="673" y="560"/>
      <point x="673" y="606"/>
      <point x="641" y="638"/>
      <point x="618" y="638" type="qcurve" smooth="yes"/>
      <point x="582" y="638" type="line" smooth="yes"/>
    </contour>
  </outline>
</glyph>
<glyph name="device-mobile" format="2">
  <advance width="1200"/>
  <unicode hex="F42C"/>
  <note>
device-mobile
</note>
  <outline>
    <contour>
      <point x="158" y="1420"/>
      <point x="68" y="1329"/>
      <point x="68" y="1265" type="qcurve" smooth="yes"/>
      <point x="68" y="155" type="line" smooth="yes"/>
      <point x="68" y="91"/>
      <point x="158" y="0"/>
      <point x="223" y="0" type="qcurve" smooth="yes"/>
      <point x="977" y="0" type="line" smooth="yes"/>
      <point x="1042" y="0"/>
      <point x="1133" y="91"/>
      <point x="1133" y="155" type="qcurve" smooth="yes"/>
      <point x="1133" y="1265" type="line" smooth="yes"/>
      <point x="1133" y="1329"/>
      <point x="1042" y="1420"/>
      <point x="977" y="1420" type="qcurve" smooth="yes"/>
      <point x="223" y="1420" type="line" smooth="yes"/>
    </contour>
    <contour>
      <point x="201" y="1274"/>
      <point x="214" y="1287"/>
      <point x="223" y="1287" type="qcurve" smooth="yes"/>
      <point x="977" y="1287" type="line" smooth="yes"/>
      <point x="986" y="1287"/>
      <point x="999" y="1274"/>
      <point x="999" y="1265" type="qcurve" smooth="yes"/>
      <point x="999" y="155" type="line" smooth="yes"/>
      <point x="999" y="146"/>
      <point x="986" y="133"/>
      <point x="977" y="133" type="qcurve" smooth="yes"/>
      <point x="223" y="133" type="line" smooth="yes"/>
      <point x="214" y="133"/>
      <point x="201" y="146"/>
      <point x="201" y="155" type="qcurve" smooth="yes"/>
      <point x="201" y="1265" type="line" smooth="yes"/>
    </contour>
    <contour>
      <point x="689" y="318"/>
      <point x="689" y="392"/>
      <point x="637" y="444"/>
      <point x="563" y="444"/>
      <point x="511" y="392"/>
      <point x="511" y="318"/>
      <point x="563" y="266"/>
      <point x="637" y="266"/>
    </contour>
  </outline>
</glyph>
<glyph name="unfold" format="2">
  <advance width="1200"/>
  <unicode hex="F42D"/>
  <note>
unfold
</note>
  <outline>
    <contour>
      <point x="608" y="1323"/>
      <point x="592" y="1323"/>
      <point x="585" y="1317" type="qcurve" smooth="yes"/>
      <point x="346" y="1077" type="line" smooth="yes"/>
      <point x="339" y="1071"/>
      <point x="339" y="1054"/>
      <point x="351" y="1041"/>
      <point x="360" y="1041" type="qcurve" smooth="yes"/>
      <point x="538" y="1041" type="line"/>
      <point x="538" y="938" type="line" smooth="yes"/>
      <point x="538" y="912"/>
      <point x="574" y="876"/>
      <point x="626" y="876"/>
      <point x="662" y="912"/>
      <point x="662" y="938" type="qcurve" smooth="yes"/>
      <point x="662" y="1041" type="line"/>
      <point x="707" y="1041" type="line" smooth="yes"/>
      <point x="751" y="1041"/>
      <point x="840" y="1041"/>
      <point x="840" y="1041" type="qcurve"/>
      <point x="849" y="1041"/>
      <point x="861" y="1054"/>
      <point x="861" y="1071"/>
      <point x="854" y="1077" type="qcurve" smooth="yes"/>
      <point x="615" y="1317" type="line" smooth="yes"/>
    </contour>
    <contour>
      <point x="538" y="379" type="line"/>
      <point x="493" y="379" type="line" smooth="yes"/>
      <point x="449" y="379"/>
      <point x="360" y="379"/>
      <point x="360" y="379" type="qcurve"/>
      <point x="351" y="379"/>
      <point x="339" y="366"/>
      <point x="339" y="349"/>
      <point x="346" y="343" type="qcurve" smooth="yes"/>
      <point x="405" y="283" type="line" smooth="yes"/>
      <point x="465" y="223"/>
      <point x="585" y="103"/>
      <point x="585" y="103" type="qcurve"/>
      <point x="592" y="97"/>
      <point x="608" y="97"/>
      <point x="615" y="103" type="qcurve" smooth="yes"/>
      <point x="854" y="343" type="line" smooth="yes"/>
      <point x="861" y="349"/>
      <point x="861" y="366"/>
      <point x="849" y="379"/>
      <point x="840" y="379" type="qcurve" smooth="yes"/>
      <point x="662" y="379" type="line"/>
      <point x="662" y="482" type="line" smooth="yes"/>
      <point x="662" y="508"/>
      <point x="626" y="544"/>
      <point x="574" y="544"/>
      <point x="538" y="508"/>
      <point x="538" y="482" type="qcurve" smooth="yes"/>
    </contour>
    <contour>
      <point x="149" y="648"/>
      <point x="186" y="684"/>
      <point x="186" y="736"/>
      <point x="149" y="772"/>
      <point x="124" y="772" type="qcurve" smooth="yes"/>
      <point x="82" y="772" type="line" smooth="yes"/>
      <point x="56" y="772"/>
      <point x="20" y="736"/>
      <point x="20" y="684"/>
      <point x="56" y="648"/>
      <point x="82" y="648" type="qcurve" smooth="yes"/>
      <point x="124" y="648" type="line" smooth="yes"/>
    </contour>
    <contour>
      <point x="398" y="772"/>
      <point x="372" y="772" type="qcurve" smooth="yes"/>
      <point x="331" y="772" type="line" smooth="yes"/>
      <point x="305" y="772"/>
      <point x="269" y="736"/>
      <point x="269" y="684"/>
      <point x="305" y="648"/>
      <point x="331" y="648" type="qcurve" smooth="yes"/>
      <point x="372" y="648" type="line" smooth="yes"/>
      <point x="398" y="648"/>
      <point x="434" y="684"/>
      <point x="434" y="736"/>
    </contour>
    <contour>
      <point x="647" y="648"/>
      <point x="683" y="684"/>
      <point x="683" y="736"/>
      <point x="647" y="772"/>
      <point x="621" y="772" type="qcurve" smooth="yes"/>
      <point x="579" y="772" type="line" smooth="yes"/>
      <point x="553" y="772"/>
      <point x="517" y="736"/>
      <point x="517" y="684"/>
      <point x="553" y="648"/>
      <point x="579" y="648" type="qcurve" smooth="yes"/>
      <point x="621" y="648" type="line" smooth="yes"/>
    </contour>
    <contour>
      <point x="895" y="772"/>
      <point x="869" y="772" type="qcurve" smooth="yes"/>
      <point x="828" y="772" type="line" smooth="yes"/>
      <point x="802" y="772"/>
      <point x="766" y="736"/>
      <point x="766" y="684"/>
      <point x="802" y="648"/>
      <point x="828" y="648" type="qcurve" smooth="yes"/>
      <point x="869" y="648" type="line" smooth="yes"/>
      <point x="895" y="648"/>
      <point x="931" y="684"/>
      <point x="931" y="736"/>
    </contour>
    <contour>
      <point x="1144" y="648"/>
      <point x="1180" y="684"/>
      <point x="1180" y="736"/>
      <point x="1144" y="772"/>
      <point x="1118" y="772" type="qcurve" smooth="yes"/>
      <point x="1076" y="772" type="line" smooth="yes"/>
      <point x="1051" y="772"/>
      <point x="1014" y="736"/>
      <point x="1014" y="684"/>
      <point x="1051" y="648"/>
      <point x="1076" y="648" type="qcurve" smooth="yes"/>
      <point x="1118" y="648" type="line" smooth="yes"/>
    </contour>
  </outline>
</glyph>
<glyph name="check" format="2">
  <advance width="1200"/>
  <unicode hex="F42E"/>
  <note>
check
</note>
  <outline>
    <contour>
      <point x="1077" y="1133"/>
      <point x="1056" y="1112" type="qcurve" smooth="yes"/>
      <point x="406" y="462" type="line"/>
      <point x="340" y="528" type="line" smooth="yes"/>
      <point x="274" y="594"/>
      <point x="143" y="725"/>
      <point x="143" y="725" type="qcurve"/>
      <point x="121" y="745"/>
      <point x="93" y="745" type="qcurve" smooth="yes"/>
      <point x="63" y="745"/>
      <point x="20" y="702"/>
      <point x="20" y="672" type="qcurve" smooth="yes"/>
      <point x="20" y="643"/>
      <point x="40" y="622" type="qcurve" smooth="yes"/>
      <point x="118" y="544" type="line" smooth="yes"/>
      <point x="197" y="465"/>
      <point x="354" y="308"/>
      <point x="354" y="308" type="qcurve"/>
      <point x="375" y="287"/>
      <point x="436" y="287"/>
      <point x="457" y="308" type="qcurve" smooth="yes"/>
      <point x="1159" y="1009" type="line" smooth="yes"/>
      <point x="1180" y="1031"/>
      <point x="1180" y="1091"/>
      <point x="1138" y="1133"/>
    </contour>
  </outline>
</glyph>
<glyph name="mail" format="2">
  <advance width="1200"/>
  <unicode hex="F42F"/>
  <note>
mail
</note>
  <outline>
    <contour>
      <point x="94" y="1145"/>
      <point x="20" y="1071"/>
      <point x="20" y="1018" type="qcurve" smooth="yes"/>
      <point x="20" y="402" type="line" smooth="yes"/>
      <point x="20" y="349"/>
      <point x="94" y="275"/>
      <point x="147" y="275" type="qcurve" smooth="yes"/>
      <point x="1053" y="275" type="line" smooth="yes"/>
      <point x="1106" y="275"/>
      <point x="1180" y="349"/>
      <point x="1180" y="402" type="qcurve" smooth="yes"/>
      <point x="1180" y="1018" type="line" smooth="yes"/>
      <point x="1180" y="1071"/>
      <point x="1106" y="1145"/>
      <point x="1053" y="1145" type="qcurve" smooth="yes"/>
      <point x="147" y="1145" type="line" smooth="yes"/>
    </contour>
    <contour>
      <point x="129" y="869" type="line"/>
      <point x="240" y="804" type="line" smooth="yes"/>
      <point x="351" y="739"/>
      <point x="572" y="609"/>
      <point x="572" y="609" type="qcurve"/>
      <point x="585" y="601"/>
      <point x="600" y="601" type="qcurve" smooth="yes"/>
      <point x="615" y="601"/>
      <point x="628" y="609" type="qcurve" smooth="yes"/>
      <point x="1071" y="869" type="line"/>
      <point x="1071" y="402" type="line" smooth="yes"/>
      <point x="1071" y="395"/>
      <point x="1060" y="384"/>
      <point x="1053" y="384" type="qcurve" smooth="yes"/>
      <point x="147" y="384" type="line" smooth="yes"/>
      <point x="140" y="384"/>
      <point x="129" y="395"/>
      <point x="129" y="402" type="qcurve" smooth="yes"/>
    </contour>
    <contour>
      <point x="600" y="718" type="line"/>
      <point x="129" y="995" type="line"/>
      <point x="129" y="1018" type="line" smooth="yes"/>
      <point x="129" y="1025"/>
      <point x="140" y="1036"/>
      <point x="147" y="1036" type="qcurve" smooth="yes"/>
      <point x="1053" y="1036" type="line" smooth="yes"/>
      <point x="1060" y="1036"/>
      <point x="1071" y="1025"/>
      <point x="1071" y="1018" type="qcurve" smooth="yes"/>
      <point x="1071" y="995" type="line"/>
    </contour>
  </outline>
</glyph>
<glyph name="read" format="2">
  <advance width="1200"/>
  <unicode hex="F430"/>
  <note>
read
</note>
  <outline>
    <contour>
      <point x="83" y="920" type="line" smooth="yes"/>
      <point x="53" y="903"/>
      <point x="20" y="844"/>
      <point x="20" y="811" type="qcurve" smooth="yes"/>
      <point x="20" y="344" type="line" smooth="yes"/>
      <point x="20" y="292"/>
      <point x="94" y="218"/>
      <point x="147" y="218" type="qcurve" smooth="yes"/>
      <point x="1053" y="218" type="line" smooth="yes"/>
      <point x="1106" y="218"/>
      <point x="1180" y="292"/>
      <point x="1180" y="344" type="qcurve" smooth="yes"/>
      <point x="1180" y="811" type="line" smooth="yes"/>
      <point x="1180" y="844"/>
      <point x="1147" y="903"/>
      <point x="1117" y="920" type="qcurve" smooth="yes"/>
      <point x="1004" y="986" type="line" smooth="yes"/>
      <point x="891" y="1052"/>
      <point x="664" y="1185"/>
      <point x="664" y="1185" type="qcurve"/>
      <point x="635" y="1202"/>
      <point x="600" y="1202" type="qcurve" smooth="yes"/>
      <point x="565" y="1202"/>
      <point x="536" y="1185" type="qcurve" smooth="yes"/>
    </contour>
    <contour>
      <point x="1024" y="848" type="line"/>
      <point x="946" y="804" type="line" smooth="yes"/>
      <point x="867" y="759"/>
      <point x="711" y="670"/>
      <point x="711" y="670" type="qcurve"/>
      <point x="661" y="703"/>
      <point x="600" y="703" type="qcurve" smooth="yes"/>
      <point x="539" y="703"/>
      <point x="489" y="670" type="qcurve"/>
      <point x="176" y="848" type="line"/>
      <point x="280" y="909" type="line" smooth="yes"/>
      <point x="384" y="970"/>
      <point x="591" y="1091"/>
      <point x="591" y="1091" type="qcurve"/>
      <point x="595" y="1094"/>
      <point x="605" y="1094"/>
      <point x="609" y="1091" type="qcurve"/>
    </contour>
    <contour>
      <point x="227" y="326" type="line"/>
      <point x="306" y="389" type="line" smooth="yes"/>
      <point x="385" y="451"/>
      <point x="544" y="575"/>
      <point x="544" y="575" type="qcurve"/>
      <point x="569" y="595"/>
      <point x="600" y="595" type="qcurve" smooth="yes"/>
      <point x="631" y="595"/>
      <point x="656" y="575" type="qcurve" smooth="yes"/>
      <point x="973" y="326" type="line"/>
    </contour>
    <contour>
      <point x="1071" y="387" type="line"/>
      <point x="804" y="598" type="line"/>
      <point x="1071" y="750" type="line"/>
    </contour>
    <contour>
      <point x="129" y="387" type="line"/>
      <point x="129" y="750" type="line"/>
      <point x="396" y="598" type="line"/>
    </contour>
  </outline>
</glyph>
<glyph name="arrow-up" format="2">
  <advance width="1200"/>
  <unicode hex="F431"/>
  <note>
arrow-up
</note>
  <outline>
    <contour>
      <point x="315" y="683"/>
      <point x="331" y="699" type="qcurve" smooth="yes"/>
      <point x="546" y="914" type="line"/>
      <point x="546" y="375" type="line" smooth="yes"/>
      <point x="546" y="352"/>
      <point x="578" y="320"/>
      <point x="623" y="320"/>
      <point x="655" y="352"/>
      <point x="655" y="375" type="qcurve" smooth="yes"/>
      <point x="655" y="914" type="line"/>
      <point x="709" y="860" type="line" smooth="yes"/>
      <point x="763" y="806"/>
      <point x="870" y="699"/>
      <point x="870" y="699" type="qcurve"/>
      <point x="886" y="684"/>
      <point x="908" y="684" type="qcurve" smooth="yes"/>
      <point x="930" y="684"/>
      <point x="962" y="716"/>
      <point x="962" y="738" type="qcurve" smooth="yes"/>
      <point x="962" y="760"/>
      <point x="947" y="776" type="qcurve" smooth="yes"/>
      <point x="870" y="853" type="line" smooth="yes"/>
      <point x="793" y="930"/>
      <point x="639" y="1084"/>
      <point x="639" y="1084" type="qcurve"/>
      <point x="623" y="1100"/>
      <point x="578" y="1100"/>
      <point x="562" y="1084" type="qcurve" smooth="yes"/>
      <point x="254" y="776" type="line" smooth="yes"/>
      <point x="238" y="760"/>
      <point x="238" y="715"/>
      <point x="270" y="683"/>
    </contour>
  </outline>
</glyph>
<glyph name="arrow-right" format="2">
  <advance width="1200"/>
  <unicode hex="F432"/>
  <note>
arrow-right
</note>
  <outline>
    <contour>
      <point x="573" y="995"/>
      <point x="589" y="979" type="qcurve" smooth="yes"/>
      <point x="804" y="764" type="line"/>
      <point x="265" y="764" type="line" smooth="yes"/>
      <point x="242" y="764"/>
      <point x="210" y="732"/>
      <point x="210" y="687"/>
      <point x="242" y="655"/>
      <point x="265" y="655" type="qcurve" smooth="yes"/>
      <point x="804" y="655" type="line"/>
      <point x="750" y="601" type="line" smooth="yes"/>
      <point x="696" y="547"/>
      <point x="589" y="440"/>
      <point x="589" y="440" type="qcurve"/>
      <point x="574" y="424"/>
      <point x="574" y="402" type="qcurve" smooth="yes"/>
      <point x="574" y="380"/>
      <point x="606" y="348"/>
      <point x="628" y="348" type="qcurve" smooth="yes"/>
      <point x="650" y="348"/>
      <point x="666" y="363" type="qcurve" smooth="yes"/>
      <point x="974" y="671" type="line" smooth="yes"/>
      <point x="990" y="687"/>
      <point x="990" y="732"/>
      <point x="974" y="748" type="qcurve" smooth="yes"/>
      <point x="897" y="825" type="line" smooth="yes"/>
      <point x="820" y="902"/>
      <point x="666" y="1056"/>
      <point x="666" y="1056" type="qcurve"/>
      <point x="650" y="1072"/>
      <point x="605" y="1072"/>
      <point x="573" y="1040"/>
    </contour>
  </outline>
</glyph>
<glyph name="arrow-down" format="2">
  <advance width="1200"/>
  <unicode hex="F433"/>
  <note>
arrow-down
</note>
  <outline>
    <contour>
      <point x="885" y="737"/>
      <point x="869" y="721" type="qcurve" smooth="yes"/>
      <point x="654" y="506" type="line"/>
      <point x="654" y="1045" type="line" smooth="yes"/>
      <point x="654" y="1068"/>
      <point x="622" y="1100"/>
      <point x="577" y="1100"/>
      <point x="545" y="1068"/>
      <point x="545" y="1045" type="qcurve" smooth="yes"/>
      <point x="545" y="506" type="line"/>
      <point x="491" y="560" type="line" smooth="yes"/>
      <point x="437" y="614"/>
      <point x="330" y="721"/>
      <point x="330" y="721" type="qcurve"/>
      <point x="314" y="736"/>
      <point x="292" y="736" type="qcurve" smooth="yes"/>
      <point x="270" y="736"/>
      <point x="238" y="704"/>
      <point x="238" y="682" type="qcurve" smooth="yes"/>
      <point x="238" y="660"/>
      <point x="253" y="644" type="qcurve" smooth="yes"/>
      <point x="330" y="567" type="line" smooth="yes"/>
      <point x="407" y="490"/>
      <point x="561" y="336"/>
      <point x="561" y="336" type="qcurve"/>
      <point x="577" y="320"/>
      <point x="622" y="320"/>
      <point x="638" y="336" type="qcurve" smooth="yes"/>
      <point x="946" y="644" type="line" smooth="yes"/>
      <point x="962" y="660"/>
      <point x="962" y="705"/>
      <point x="930" y="737"/>
    </contour>
  </outline>
</glyph>
